{
.appVersion = "1291";
copyright = "Jingzhe, Chen Yuanhao";
customParameters = (
{
name = Axes;
value = (
{
Name = Weight;
Tag = wght;
}
);
},
{
name = "Variable Font Family Name";
value = "Hundred Xdi8 Variable";
},
{
name = variableStyleName;
value = "3 Italic";
},
{
name = "Variable Font File Name";
value = "Hundred Xdi8 Variable Italic";
},
{
name = glyphOrder;
value = (
a,
o,
e,
E,
A,
Y,
L,
six,
two,
b,
p,
m,
w,
j,
q,
x,
y,
n,
z,
D,
s,
r,
H,
i,
one,
V,
three,
N,
l,
d,
t,
g,
k,
h,
four,
eight,
five,
v,
F,
seven,
B,
c,
f,
u,
T,
a.ss01,
o.ss01,
e.ss01,
E.ss01,
A.ss01,
Y.ss01,
L.ss01,
six.ss01,
two.ss01,
b.ss01,
p.ss01,
m.ss01,
w.ss01,
j.ss01,
q.ss01,
x.ss01,
y.ss01,
n.ss01,
z.ss01,
D.ss01,
s.ss01,
r.ss01,
H.ss01,
i.ss01,
one.ss01,
V.ss01,
three.ss01,
N.ss01,
l.ss01,
d.ss01,
t.ss01,
g.ss01,
k.ss01,
h.ss01,
four.ss01,
eight.ss01,
five.ss01,
v.ss01,
F.ss01,
seven.ss01,
B.ss01,
c.ss01,
f.ss01,
u.ss01,
T.ss01,
a.ss02,
o.ss02,
e.ss02,
E.ss02,
A.ss02,
Y.ss02,
L.ss02,
six.ss02,
two.ss02,
b.ss02,
p.ss02,
m.ss02,
w.ss02,
j.ss02,
q.ss02,
x.ss02,
y.ss02,
n.ss02,
z.ss02,
D.ss02,
s.ss02,
r.ss02,
H.ss02,
i.ss02,
one.ss02,
V.ss02,
three.ss02,
N.ss02,
l.ss02,
d.ss02,
t.ss02,
g.ss02,
k.ss02,
h.ss02,
four.ss02,
eight.ss02,
five.ss02,
v.ss02,
F.ss02,
seven.ss02,
B.ss02,
c.ss02,
f.ss02,
u.ss02,
T.ss02,
zero.ss03,
one.ss03,
two.ss03,
three.ss03,
four.ss03,
five.ss03,
six.ss03,
seven.ss03,
eight.ss03,
nine.ss03,
n.ss03,
T.ss03
);
},
{
name = uniqueID;
value = "Chen Yuanhao: Hundred Xdi8: 2021";
}
);
date = "2021-02-03 07:32:51 +0000";
designer = "Jingzhe, Chen Yuanhao";
disablesNiceNames = 1;
familyName = "Hundred Xdi8";
featurePrefixes = (
{
automatic = 1;
code = "languagesystem DFLT dflt;\012";
name = Languagesystems;
}
);
features = (
{
automatic = 1;
code = "feature salt;\012feature ss01;\012feature ss02;\012feature ss03;\012feature case;\012";
name = aalt;
},
{
automatic = 1;

glyphs = (
{
glyphname = a;
lastChange = "2021-02-03 07:47:43 +0000";
layers = (
{
layerId = master01;
paths = (
{
closed = 1;
nodes = (
"1436 2936 OFFCURVE",
"1441 2931 OFFCURVE",
"1441 2925 CURVE SMOOTH",
"1441 2920 OFFCURVE",
"1436 2915 OFFCURVE",
"1430 2915 CURVE SMOOTH",
"1283 2915 OFFCURVE",
"1127 2855 OFFCURVE",
"1002 2751 CURVE SMOOTH",
"876 2646 OFFCURVE",
"788 2502 OFFCURVE",
"758 2354 CURVE SMOOTH",
"757 2350 OFFCURVE",
"753 2346 OFFCURVE",
"748 2346 CURVE SMOOTH",
"745 2346 LINE SMOOTH",
"741 2347 OFFCURVE",
"738 2352 OFFCURVE",
"737 2356 CURVE",
"738 2359 LINE SMOOTH",
"769 2513 OFFCURVE",
"858 2658 OFFCURVE",
"988 2767 CURVE SMOOTH",
"1119 2875 OFFCURVE",
"1276 2936 OFFCURVE",
"1430 2936 CURVE SMOOTH"
);
},
{
closed = 1;
nodes = (
"1531 579 LINE SMOOTH",
"1535 578 OFFCURVE",
"1538 574 OFFCURVE",
"1539 570 CURVE",
"1538 566 LINE SMOOTH",
"1507 413 OFFCURVE",
"1418 267 OFFCURVE",
"1288 159 CURVE SMOOTH",
"1157 50 OFFCURVE",
"999 -10 OFFCURVE",
"845 -10 CURVE SMOOTH",
"840 -10 OFFCURVE",
"835 -5 OFFCURVE",
"835 0 CURVE SMOOTH",
"835 6 OFFCURVE",
"840 11 OFFCURVE",
"845 11 CURVE SMOOTH",
"993 11 OFFCURVE",
"1149 70 OFFCURVE",
"1274 175 CURVE SMOOTH",
"1400 280 OFFCURVE",
"1488 423 OFFCURVE",
"1518 571 CURVE SMOOTH",
"1519 575 OFFCURVE",
"1523 579 OFFCURVE",
"1527 580 CURVE"
);
},
{
closed = 1;
nodes = (
"1585 2936 OFFCURVE",
"1720 2874 OFFCURVE",
"1808 2765 CURVE SMOOTH",
"1895 2656 OFFCURVE",
"1927 2509 OFFCURVE",
"1896 2354 CURVE SMOOTH",
"1895 2350 OFFCURVE",
"1891 2346 OFFCURVE",
"1886 2346 CURVE SMOOTH",
"1883 2346 LINE SMOOTH",
"1879 2347 OFFCURVE",
"1875 2352 OFFCURVE",
"1875 2356 CURVE SMOOTH",
"1875 2359 LINE",
"1905 2507 OFFCURVE",
"1874 2648 OFFCURVE",
"1791 2752 CURVE SMOOTH",
"1708 2856 OFFCURVE",
"1578 2915 OFFCURVE",
"1430 2915 CURVE SMOOTH",
"1425 2915 OFFCURVE",
"1420 2920 OFFCURVE",
"1420 2925 CURVE SMOOTH",
"1420 2931 OFFCURVE",
"1425 2936 OFFCURVE",
"1430 2936 CURVE SMOOTH"
);
},
{
closed = 1;
nodes = (
"1888 2367 LINE",
"1892 2365 OFFCURVE",
"1896 2361 OFFCURVE",
"1896 2357 CURVE SMOOTH",
"1896 2354 LINE",
"1828 2019 OFFCURVE",
"1486 1739 OFFCURVE",
"1145 1455 CURVE SMOOTH",
"803 1171 OFFCURVE",
"464 883 OFFCURVE",
"401 567 CURVE SMOOTH",
"400 563 OFFCURVE",
"395 559 OFFCURVE",
"391 559 CURVE SMOOTH",
"388 559 LINE SMOOTH",
"384 560 OFFCURVE",
"380 564 OFFCURVE",
"380 569 CURVE SMOOTH",
"380 572 LINE",
"448 907 OFFCURVE",
"790 1187 OFFCURVE",
"1131 1471 CURVE SMOOTH",
"1473 1755 OFFCURVE",
"1812 2043 OFFCURVE",
"1875 2358 CURVE SMOOTH",
"1876 2362 OFFCURVE",
"1880 2366 OFFCURVE",
"1884 2367 CURVE SMOOTH"
);
},
{
closed = 1;
nodes = (
"393 579 LINE SMOOTH",
"397 578 OFFCURVE",
"400 574 OFFCURVE",
"401 570 CURVE",
"400 566 LINE SMOOTH",
"371 419 OFFCURVE",
"402 277 OFFCURVE",
"485 174 CURVE SMOOTH",
"568 69 OFFCURVE",
"698 11 OFFCURVE",
"845 11 CURVE SMOOTH",
"851 11 OFFCURVE",
"856 6 OFFCURVE",
"856 0 CURVE SMOOTH",
"856 -5 OFFCURVE",
"851 -10 OFFCURVE",
"845 -10 CURVE SMOOTH",
"691 -10 OFFCURVE",
"556 51 OFFCURVE",
"468 160 CURVE SMOOTH",
"381 270 OFFCURVE",
"349 417 OFFCURVE",
"380 571 CURVE SMOOTH",
"381 575 OFFCURVE",
"385 579 OFFCURVE",
"389 580 CURVE"
);
},
{
closed = 1;
nodes = (
"1888 2367 LINE",
"1892 2365 OFFCURVE",
"1896 2361 OFFCURVE",
"1896 2357 CURVE SMOOTH",
"1896 2354 LINE",
"1538 567 LINE",
"1538 563 OFFCURVE",
"1533 559 OFFCURVE",
"1529 559 CURVE SMOOTH",
"1525 559 LINE SMOOTH",
"1521 560 OFFCURVE",
"1518 564 OFFCURVE",
"1518 569 CURVE SMOOTH",
"1518 572 LINE",
"1875 2358 LINE SMOOTH",
"1876 2362 OFFCURVE",
"1880 2366 OFFCURVE",
"1884 2367 CURVE SMOOTH"
);
},
{
closed = 1;
nodes = (
"1531 579 LINE SMOOTH",
"1535 578 OFFCURVE",
"1538 574 OFFCURVE",
"1539 570 CURVE",
"1538 566 LINE SMOOTH",
"1509 419 OFFCURVE",
"1539 277 OFFCURVE",
"1622 174 CURVE SMOOTH",
"1706 69 OFFCURVE",
"1836 11 OFFCURVE",
"1983 11 CURVE SMOOTH",
"1989 11 OFFCURVE",
"1994 6 OFFCURVE",
"1994 0 CURVE SMOOTH",
"1994 -5 OFFCURVE",
"1989 -10 OFFCURVE",
"1983 -10 CURVE SMOOTH",
"1829 -10 OFFCURVE",
"1693 51 OFFCURVE",
"1606 160 CURVE SMOOTH",
"1519 270 OFFCURVE",
"1487 417 OFFCURVE",
"1518 571 CURVE SMOOTH",
"1519 575 OFFCURVE",
"1523 579 OFFCURVE",
"1527 580 CURVE"
);
}
);
width = 2277;
},
{
layerId = "328E32EA-B50A-4570-BED2-89D75A472110";
paths = (
{
closed = 1;
nodes = (
"1685 3370 OFFCURVE",
"1884 3170 OFFCURVE",
"1884 2925 CURVE SMOOTH",
"1884 2680 OFFCURVE",
"1684 2480 OFFCURVE",
"1440 2480 CURVE SMOOTH",
"1381 2480 OFFCURVE",
"1311 2446 OFFCURVE",
"1251 2380 CURVE SMOOTH",
"1221 2345 OFFCURVE",
"1200 2306 OFFCURVE",
"1193 2269 CURVE SMOOTH",
"1149 2049 OFFCURVE",
"946 1895 OFFCURVE",
"722 1913 CURVE SMOOTH",
"699 1916 LINE SMOOTH",
"466 1946 OFFCURVE",
"296 2155 OFFCURVE",
"313 2390 CURVE SMOOTH",
"316 2421 LINE",
"361 2678 OFFCURVE",
"507 2923 OFFCURVE",
"719 3100 CURVE SMOOTH",
"925 3273 OFFCURVE",
"1185 3370 OFFCURVE",
"1440 3370 CURVE SMOOTH"
);
},
{
closed = 1;
nodes = (
"1590 1011 LINE SMOOTH",
"1825 982 OFFCURVE",
"1998 773 OFFCURVE",
"1981 537 CURVE SMOOTH",
"1978 505 LINE",
"1933 248 OFFCURVE",
"1786 1 OFFCURVE",
"1575 -175 CURVE SMOOTH",
"1369 -347 OFFCURVE",
"1109 -445 OFFCURVE",
"854 -445 CURVE SMOOTH",
"610 -445 OFFCURVE",
"410 -245 OFFCURVE",
"409 0 CURVE SMOOTH",
"410 245 OFFCURVE",
"609 445 OFFCURVE",
"854 445 CURVE SMOOTH",
"901 445 OFFCURVE",
"955 467 OFFCURVE",
"1005 508 CURVE SMOOTH",
"1057 552 OFFCURVE",
"1091 605 OFFCURVE",
"1101 656 CURVE SMOOTH",
"1143 873 OFFCURVE",
"1343 1028 OFFCURVE",
"1566 1013 CURVE SMOOTH"
);
},
{
closed = 1;
nodes = (
"1724 3370 OFFCURVE",
"1986 3248 OFFCURVE",
"2156 3037 CURVE SMOOTH",
"2323 2827 OFFCURVE",
"2387 2547 OFFCURVE",
"2331 2269 CURVE SMOOTH",
"2287 2049 OFFCURVE",
"2084 1895 OFFCURVE",
"1860 1913 CURVE SMOOTH",
"1838 1915 LINE SMOOTH",
"1604 1944 OFFCURVE",
"1434 2153 OFFCURVE",
"1451 2389 CURVE SMOOTH",
"1454 2427 LINE",
"1459 2442 OFFCURVE",
"1460 2473 OFFCURVE",
"1460 2480 CURVE",
"1456 2480 OFFCURVE",
"1442 2480 OFFCURVE",
"1439 2480 CURVE SMOOTH",
"1195 2480 OFFCURVE",
"995 2680 OFFCURVE",
"994 2925 CURVE SMOOTH",
"995 3170 OFFCURVE",
"1194 3370 OFFCURVE",
"1439 3370 CURVE SMOOTH"
);
},
{
closed = 1;
nodes = (
"1942 2799 LINE SMOOTH",
"2180 2774 OFFCURVE",
"2355 2563 OFFCURVE",
"2338 2325 CURVE SMOOTH",
"2335 2293 LINE",
"2248 1793 OFFCURVE",
"1776 1408 OFFCURVE",
"1432 1121 CURVE SMOOTH",
"1008 769 OFFCURVE",
"860 602 OFFCURVE",
"836 482 CURVE SMOOTH",
"792 264 OFFCURVE",
"593 111 OFFCURVE",
"372 125 CURVE SMOOTH",
"349 127 LINE SMOOTH",
"113 154 OFFCURVE",
"-61 364 OFFCURVE",
"-44 601 CURVE SMOOTH",
"-41 633 LINE",
"46 1132 OFFCURVE",
"518 1517 OFFCURVE",
"862 1805 CURVE SMOOTH",
"1286 2157 OFFCURVE",
"1434 2324 OFFCURVE",
"1458 2444 CURVE SMOOTH",
"1502 2658 OFFCURVE",
"1698 2812 OFFCURVE",
"1916 2801 CURVE SMOOTH"
);
},
{
closed = 1;
nodes = (
"453 1011 LINE SMOOTH",
"688 983 OFFCURVE",
"860 773 OFFCURVE",
"843 537 CURVE SMOOTH",
"840 499 LINE",
"834 481 OFFCURVE",
"834 444 OFFCURVE",
"834 444 CURVE",
"834 444 OFFCURVE",
"839 445 OFFCURVE",
"855 445 CURVE SMOOTH",
"1100 445 OFFCURVE",
"1299 245 OFFCURVE",
"1299 0 CURVE SMOOTH",
"1299 -245 OFFCURVE",
"1099 -445 OFFCURVE",
"855 -445 CURVE SMOOTH",
"570 -445 OFFCURVE",
"308 -323 OFFCURVE",
"138 -111 CURVE SMOOTH",
"-29 98 OFFCURVE",
"-93 379 OFFCURVE",
"-37 657 CURVE SMOOTH",
"7 874 OFFCURVE",
"206 1028 OFFCURVE",
"427 1013 CURVE SMOOTH"
);
},
{
closed = 1;
nodes = (
"1942 2799 LINE SMOOTH",
"2180 2774 OFFCURVE",
"2355 2563 OFFCURVE",
"2338 2325 CURVE SMOOTH",
"2335 2290 LINE",
"1973 482 LINE SMOOTH",
"1931 264 OFFCURVE",
"1731 111 OFFCURVE",
"1508 125 CURVE SMOOTH",
"1487 127 LINE SMOOTH",
"1250 154 OFFCURVE",
"1076 365 OFFCURVE",
"1094 601 CURVE SMOOTH",
"1097 636 LINE",
"1458 2444 LINE SMOOTH",
"1502 2658 OFFCURVE",
"1698 2812 OFFCURVE",
"1916 2801 CURVE SMOOTH"
);
},
{
closed = 1;
nodes = (
"1590 1011 LINE SMOOTH",
"1827 982 OFFCURVE",
"2001 770 OFFCURVE",
"1981 531 CURVE",
"1976 497 LINE SMOOTH",
"1974 489 OFFCURVE",
"1970 447 OFFCURVE",
"1971 445 CURVE SMOOTH",
"1972 444 OFFCURVE",
"1976 445 OFFCURVE",
"1992 445 CURVE SMOOTH",
"2238 445 OFFCURVE",
"2437 245 OFFCURVE",
"2437 0 CURVE SMOOTH",
"2437 -245 OFFCURVE",
"2237 -445 OFFCURVE",
"1992 -445 CURVE SMOOTH",
"1708 -445 OFFCURVE",
"1445 -323 OFFCURVE",
"1276 -111 CURVE SMOOTH",
"1109 97 OFFCURVE",
"1045 378 OFFCURVE",
"1101 656 CURVE SMOOTH",
"1143 873 OFFCURVE",
"1343 1028 OFFCURVE",
"1566 1013 CURVE SMOOTH"
);
}
);
width = 2294;
}
);
unicode = 0061;
},
{
glyphname = o;
lastChange = "2021-02-03 07:47:43 +0000";
layers = (
{
layerId = master01;
paths = (
{
closed = 1;
nodes = (
"751 2367 LINE",
"754 2365 OFFCURVE",
"758 2361 OFFCURVE",
"758 2357 CURVE SMOOTH",
"758 2354 LINE",
"401 567 LINE SMOOTH",
"400 563 OFFCURVE",
"395 559 OFFCURVE",
"391 559 CURVE SMOOTH",
"388 559 LINE SMOOTH",
"384 560 OFFCURVE",
"380 564 OFFCURVE",
"380 569 CURVE SMOOTH",
"380 572 LINE",
"738 2358 LINE",
"738 2362 OFFCURVE",
"743 2366 OFFCURVE",
"747 2367 CURVE SMOOTH"
);
},
{
closed = 1;
nodes = (
"1436 2936 OFFCURVE",
"1441 2931 OFFCURVE",
"1441 2925 CURVE SMOOTH",
"1441 2920 OFFCURVE",
"1436 2915 OFFCURVE",
"1430 2915 CURVE SMOOTH",
"1283 2915 OFFCURVE",
"1127 2855 OFFCURVE",
"1002 2751 CURVE SMOOTH",
"876 2646 OFFCURVE",
"788 2502 OFFCURVE",
"758 2354 CURVE SMOOTH",
"757 2350 OFFCURVE",
"753 2346 OFFCURVE",
"748 2346 CURVE SMOOTH",
"745 2346 LINE SMOOTH",
"741 2347 OFFCURVE",
"738 2352 OFFCURVE",
"737 2356 CURVE",
"738 2359 LINE SMOOTH",
"769 2513 OFFCURVE",
"858 2658 OFFCURVE",
"988 2767 CURVE SMOOTH",
"1119 2875 OFFCURVE",
"1276 2936 OFFCURVE",
"1430 2936 CURVE SMOOTH"
);
},
{
closed = 1;
nodes = (
"1531 579 LINE SMOOTH",
"1535 578 OFFCURVE",
"1538 574 OFFCURVE",
"1539 570 CURVE",
"1538 566 LINE SMOOTH",
"1507 413 OFFCURVE",
"1418 267 OFFCURVE",
"1288 159 CURVE SMOOTH",
"1157 50 OFFCURVE",
"999 -10 OFFCURVE",
"845 -10 CURVE SMOOTH",
"840 -10 OFFCURVE",
"835 -5 OFFCURVE",
"835 0 CURVE SMOOTH",
"835 6 OFFCURVE",
"840 11 OFFCURVE",
"845 11 CURVE SMOOTH",
"993 11 OFFCURVE",
"1149 70 OFFCURVE",
"1274 175 CURVE SMOOTH",
"1400 280 OFFCURVE",
"1488 423 OFFCURVE",
"1518 571 CURVE SMOOTH",
"1519 575 OFFCURVE",
"1523 579 OFFCURVE",
"1527 580 CURVE"
);
},
{
closed = 1;
nodes = (
"1585 2936 OFFCURVE",
"1720 2874 OFFCURVE",
"1808 2765 CURVE SMOOTH",
"1895 2656 OFFCURVE",
"1927 2509 OFFCURVE",
"1896 2354 CURVE SMOOTH",
"1895 2350 OFFCURVE",
"1891 2346 OFFCURVE",
"1886 2346 CURVE SMOOTH",
"1883 2346 LINE SMOOTH",
"1879 2347 OFFCURVE",
"1875 2352 OFFCURVE",
"1875 2356 CURVE SMOOTH",
"1875 2359 LINE",
"1905 2507 OFFCURVE",
"1874 2648 OFFCURVE",
"1791 2752 CURVE SMOOTH",
"1708 2856 OFFCURVE",
"1578 2915 OFFCURVE",
"1430 2915 CURVE SMOOTH",
"1425 2915 OFFCURVE",
"1420 2920 OFFCURVE",
"1420 2925 CURVE SMOOTH",
"1420 2931 OFFCURVE",
"1425 2936 OFFCURVE",
"1430 2936 CURVE SMOOTH"
);
},
{
closed = 1;
nodes = (
"393 579 LINE SMOOTH",
"397 578 OFFCURVE",
"400 574 OFFCURVE",
"401 570 CURVE",
"400 566 LINE SMOOTH",
"371 419 OFFCURVE",
"402 277 OFFCURVE",
"485 174 CURVE SMOOTH",
"568 69 OFFCURVE",
"698 11 OFFCURVE",
"845 11 CURVE SMOOTH",
"851 11 OFFCURVE",
"856 6 OFFCURVE",
"856 0 CURVE SMOOTH",
"856 -5 OFFCURVE",
"851 -10 OFFCURVE",
"845 -10 CURVE SMOOTH",
"691 -10 OFFCURVE",
"556 51 OFFCURVE",
"468 160 CURVE SMOOTH",
"381 270 OFFCURVE",
"349 417 OFFCURVE",
"380 571 CURVE SMOOTH",
"381 575 OFFCURVE",
"385 579 OFFCURVE",
"389 580 CURVE"
);
},
{
closed = 1;
nodes = (
"1888 2367 LINE",
"1892 2365 OFFCURVE",
"1896 2361 OFFCURVE",
"1896 2357 CURVE SMOOTH",
"1896 2354 LINE",
"1538 567 LINE",
"1538 563 OFFCURVE",
"1533 559 OFFCURVE",
"1529 559 CURVE SMOOTH",
"1525 559 LINE SMOOTH",
"1521 560 OFFCURVE",
"1518 564 OFFCURVE",
"1518 569 CURVE SMOOTH",
"1518 572 LINE",
"1875 2358 LINE SMOOTH",
"1876 2362 OFFCURVE",
"1880 2366 OFFCURVE",
"1884 2367 CURVE SMOOTH"
);
}
);
width = 2276;
},
{
layerId = "328E32EA-B50A-4570-BED2-89D75A472110";
paths = (
{
closed = 1;
nodes = (
"804 2799 LINE SMOOTH",
"1042 2774 OFFCURVE",
"1218 2562 OFFCURVE",
"1200 2325 CURVE SMOOTH",
"1197 2290 LINE",
"836 482 LINE SMOOTH",
"792 264 OFFCURVE",
"593 111 OFFCURVE",
"372 125 CURVE SMOOTH",
"349 127 LINE SMOOTH",
"113 154 OFFCURVE",
"-61 364 OFFCURVE",
"-44 601 CURVE SMOOTH",
"-41 636 LINE",
"321 2443 LINE SMOOTH",
"363 2658 OFFCURVE",
"560 2812 OFFCURVE",
"780 2801 CURVE SMOOTH"
);
},
{
closed = 1;
nodes = (
"1685 3370 OFFCURVE",
"1884 3170 OFFCURVE",
"1884 2925 CURVE SMOOTH",
"1884 2680 OFFCURVE",
"1684 2480 OFFCURVE",
"1440 2480 CURVE SMOOTH",
"1381 2480 OFFCURVE",
"1311 2446 OFFCURVE",
"1251 2380 CURVE SMOOTH",
"1221 2345 OFFCURVE",
"1200 2306 OFFCURVE",
"1193 2269 CURVE SMOOTH",
"1149 2049 OFFCURVE",
"946 1895 OFFCURVE",
"722 1913 CURVE SMOOTH",
"699 1916 LINE SMOOTH",
"466 1946 OFFCURVE",
"296 2155 OFFCURVE",
"313 2390 CURVE SMOOTH",
"316 2421 LINE",
"361 2678 OFFCURVE",
"507 2923 OFFCURVE",
"719 3100 CURVE SMOOTH",
"925 3273 OFFCURVE",
"1185 3370 OFFCURVE",
"1440 3370 CURVE SMOOTH"
);
},
{
closed = 1;
nodes = (
"1590 1011 LINE SMOOTH",
"1825 982 OFFCURVE",
"1998 773 OFFCURVE",
"1981 537 CURVE SMOOTH",
"1978 505 LINE",
"1933 248 OFFCURVE",
"1786 1 OFFCURVE",
"1575 -175 CURVE SMOOTH",
"1369 -347 OFFCURVE",
"1109 -445 OFFCURVE",
"854 -445 CURVE SMOOTH",
"610 -445 OFFCURVE",
"410 -245 OFFCURVE",
"409 0 CURVE SMOOTH",
"410 245 OFFCURVE",
"609 445 OFFCURVE",
"854 445 CURVE SMOOTH",
"901 445 OFFCURVE",
"955 467 OFFCURVE",
"1005 508 CURVE SMOOTH",
"1057 552 OFFCURVE",
"1091 605 OFFCURVE",
"1101 656 CURVE SMOOTH",
"1143 873 OFFCURVE",
"1343 1028 OFFCURVE",
"1566 1013 CURVE SMOOTH"
);
},
{
closed = 1;
nodes = (
"1724 3370 OFFCURVE",
"1986 3248 OFFCURVE",
"2156 3037 CURVE SMOOTH",
"2323 2827 OFFCURVE",
"2387 2547 OFFCURVE",
"2331 2269 CURVE SMOOTH",
"2287 2049 OFFCURVE",
"2084 1895 OFFCURVE",
"1860 1913 CURVE SMOOTH",
"1838 1915 LINE SMOOTH",
"1604 1944 OFFCURVE",
"1434 2153 OFFCURVE",
"1451 2389 CURVE SMOOTH",
"1454 2427 LINE",
"1459 2442 OFFCURVE",
"1460 2473 OFFCURVE",
"1460 2480 CURVE",
"1456 2480 OFFCURVE",
"1442 2480 OFFCURVE",
"1439 2480 CURVE SMOOTH",
"1195 2480 OFFCURVE",
"995 2680 OFFCURVE",
"994 2925 CURVE SMOOTH",
"995 3170 OFFCURVE",
"1194 3370 OFFCURVE",
"1439 3370 CURVE SMOOTH"
);
},
{
closed = 1;
nodes = (
"453 1011 LINE SMOOTH",
"688 983 OFFCURVE",
"860 773 OFFCURVE",
"843 537 CURVE SMOOTH",
"840 499 LINE",
"834 481 OFFCURVE",
"834 444 OFFCURVE",
"834 444 CURVE",
"834 444 OFFCURVE",
"839 445 OFFCURVE",
"855 445 CURVE SMOOTH",
"1100 445 OFFCURVE",
"1299 245 OFFCURVE",
"1299 0 CURVE SMOOTH",
"1299 -245 OFFCURVE",
"1099 -445 OFFCURVE",
"855 -445 CURVE SMOOTH",
"570 -445 OFFCURVE",
"308 -323 OFFCURVE",
"138 -111 CURVE SMOOTH",
"-29 98 OFFCURVE",
"-93 379 OFFCURVE",
"-37 657 CURVE SMOOTH",
"7 874 OFFCURVE",
"206 1028 OFFCURVE",
"427 1013 CURVE SMOOTH"
);
},
{
closed = 1;
nodes = (
"1942 2799 LINE SMOOTH",
"2180 2774 OFFCURVE",
"2355 2563 OFFCURVE",
"2338 2325 CURVE SMOOTH",
"2335 2290 LINE",
"1973 482 LINE SMOOTH",
"1931 264 OFFCURVE",
"1731 111 OFFCURVE",
"1508 125 CURVE SMOOTH",
"1487 127 LINE SMOOTH",
"1250 154 OFFCURVE",
"1076 365 OFFCURVE",
"1094 601 CURVE SMOOTH",
"1097 636 LINE",
"1458 2444 LINE SMOOTH",
"1502 2658 OFFCURVE",
"1698 2812 OFFCURVE",
"1916 2801 CURVE SMOOTH"
);
}
);
width = 2294;
}
);
unicode = 006F;
},
{
glyphname = e;
lastChange = "2021-02-03 07:47:43 +0000";
layers = (
{
layerId = master01;
paths = (
{
closed = 1;
nodes = (
"751 2367 LINE",
"754 2365 OFFCURVE",
"758 2361 OFFCURVE",
"758 2357 CURVE SMOOTH",
"758 2354 LINE",
"401 567 LINE SMOOTH",
"400 563 OFFCURVE",
"395 559 OFFCURVE",
"391 559 CURVE SMOOTH",
"388 559 LINE SMOOTH",
"384 560 OFFCURVE",
"380 564 OFFCURVE",
"380 569 CURVE SMOOTH",
"380 572 LINE",
"738 2358 LINE",
"738 2362 OFFCURVE",
"743 2366 OFFCURVE",
"747 2367 CURVE SMOOTH"
);
},
{
closed = 1;
nodes = (
"1436 2936 OFFCURVE",
"1441 2931 OFFCURVE",
"1441 2925 CURVE SMOOTH",
"1441 2920 OFFCURVE",
"1436 2915 OFFCURVE",
"1430 2915 CURVE SMOOTH",
"1283 2915 OFFCURVE",
"1127 2855 OFFCURVE",
"1002 2751 CURVE SMOOTH",
"876 2646 OFFCURVE",
"788 2502 OFFCURVE",
"758 2354 CURVE SMOOTH",
"757 2350 OFFCURVE",
"753 2346 OFFCURVE",
"748 2346 CURVE SMOOTH",
"745 2346 LINE SMOOTH",
"741 2347 OFFCURVE",
"738 2352 OFFCURVE",
"737 2356 CURVE",
"738 2359 LINE SMOOTH",
"769 2513 OFFCURVE",
"858 2658 OFFCURVE",
"988 2767 CURVE SMOOTH",
"1119 2875 OFFCURVE",
"1276 2936 OFFCURVE",
"1430 2936 CURVE SMOOTH"
);
},
{
closed = 1;
nodes = (
"1531 579 LINE SMOOTH",
"1535 578 OFFCURVE",
"1538 574 OFFCURVE",
"1539 570 CURVE",
"1538 566 LINE SMOOTH",
"1507 413 OFFCURVE",
"1418 267 OFFCURVE",
"1288 159 CURVE SMOOTH",
"1157 50 OFFCURVE",
"999 -10 OFFCURVE",
"845 -10 CURVE SMOOTH",
"840 -10 OFFCURVE",
"835 -5 OFFCURVE",
"835 0 CURVE SMOOTH",
"835 6 OFFCURVE",
"840 11 OFFCURVE",
"845 11 CURVE SMOOTH",
"993 11 OFFCURVE",
"1149 70 OFFCURVE",
"1274 175 CURVE SMOOTH",
"1400 280 OFFCURVE",
"1488 423 OFFCURVE",
"1518 571 CURVE SMOOTH",
"1519 575 OFFCURVE",
"1523 579 OFFCURVE",
"1527 580 CURVE"
);
},
{
closed = 1;
nodes = (
"1585 2936 OFFCURVE",
"1720 2874 OFFCURVE",
"1808 2765 CURVE SMOOTH",
"1895 2656 OFFCURVE",
"1927 2509 OFFCURVE",
"1896 2354 CURVE SMOOTH",
"1895 2350 OFFCURVE",
"1891 2346 OFFCURVE",
"1886 2346 CURVE SMOOTH",
"1883 2346 LINE SMOOTH",
"1879 2347 OFFCURVE",
"1875 2352 OFFCURVE",
"1875 2356 CURVE SMOOTH",
"1875 2359 LINE",
"1905 2507 OFFCURVE",
"1874 2648 OFFCURVE",
"1791 2752 CURVE SMOOTH",
"1708 2856 OFFCURVE",
"1578 2915 OFFCURVE",
"1430 2915 CURVE SMOOTH",
"1425 2915 OFFCURVE",
"1420 2920 OFFCURVE",
"1420 2925 CURVE SMOOTH",
"1420 2931 OFFCURVE",
"1425 2936 OFFCURVE",
"1430 2936 CURVE SMOOTH"
);
},
{
closed = 1;
nodes = (
"1888 2367 LINE",
"1892 2365 OFFCURVE",
"1896 2361 OFFCURVE",
"1896 2357 CURVE SMOOTH",
"1896 2354 LINE",
"1828 2019 OFFCURVE",
"1486 1739 OFFCURVE",
"1145 1455 CURVE SMOOTH",
"803 1171 OFFCURVE",
"464 883 OFFCURVE",
"401 567 CURVE SMOOTH",
"400 563 OFFCURVE",
"395 559 OFFCURVE",
"391 559 CURVE SMOOTH",
"388 559 LINE SMOOTH",
"384 560 OFFCURVE",
"380 564 OFFCURVE",
"380 569 CURVE SMOOTH",
"380 572 LINE",
"448 907 OFFCURVE",
"790 1187 OFFCURVE",
"1131 1471 CURVE SMOOTH",
"1473 1755 OFFCURVE",
"1812 2043 OFFCURVE",
"1875 2358 CURVE SMOOTH",
"1876 2362 OFFCURVE",
"1880 2366 OFFCURVE",
"1884 2367 CURVE SMOOTH"
);
},
{
closed = 1;
nodes = (
"393 579 LINE SMOOTH",
"397 578 OFFCURVE",
"400 574 OFFCURVE",
"401 570 CURVE",
"400 566 LINE SMOOTH",
"371 419 OFFCURVE",
"402 277 OFFCURVE",
"485 174 CURVE SMOOTH",
"568 69 OFFCURVE",
"698 11 OFFCURVE",
"845 11 CURVE SMOOTH",
"851 11 OFFCURVE",
"856 6 OFFCURVE",
"856 0 CURVE SMOOTH",
"856 -5 OFFCURVE",
"851 -10 OFFCURVE",
"845 -10 CURVE SMOOTH",
"691 -10 OFFCURVE",
"556 51 OFFCURVE",
"468 160 CURVE SMOOTH",
"381 270 OFFCURVE",
"349 417 OFFCURVE",
"380 571 CURVE SMOOTH",
"381 575 OFFCURVE",
"385 579 OFFCURVE",
"389 580 CURVE"
);
}
);
width = 2276;
},
{
layerId = "328E32EA-B50A-4570-BED2-89D75A472110";
paths = (
{
closed = 1;
nodes = (
"804 2799 LINE SMOOTH",
"1042 2774 OFFCURVE",
"1218 2562 OFFCURVE",
"1200 2325 CURVE SMOOTH",
"1197 2290 LINE",
"836 482 LINE SMOOTH",
"792 264 OFFCURVE",
"593 111 OFFCURVE",
"372 125 CURVE SMOOTH",
"349 127 LINE SMOOTH",
"113 154 OFFCURVE",
"-61 364 OFFCURVE",
"-44 601 CURVE SMOOTH",
"-41 636 LINE",
"321 2443 LINE SMOOTH",
"363 2658 OFFCURVE",
"560 2812 OFFCURVE",
"780 2801 CURVE SMOOTH"
);
},
{
closed = 1;
nodes = (
"1685 3370 OFFCURVE",
"1884 3170 OFFCURVE",
"1884 2925 CURVE SMOOTH",
"1884 2680 OFFCURVE",
"1684 2480 OFFCURVE",
"1440 2480 CURVE SMOOTH",
"1381 2480 OFFCURVE",
"1311 2446 OFFCURVE",
"1251 2380 CURVE SMOOTH",
"1221 2345 OFFCURVE",
"1200 2306 OFFCURVE",
"1193 2269 CURVE SMOOTH",
"1149 2049 OFFCURVE",
"946 1895 OFFCURVE",
"722 1913 CURVE SMOOTH",
"699 1916 LINE SMOOTH",
"466 1946 OFFCURVE",
"296 2155 OFFCURVE",
"313 2390 CURVE SMOOTH",
"316 2421 LINE",
"361 2678 OFFCURVE",
"507 2923 OFFCURVE",
"719 3100 CURVE SMOOTH",
"925 3273 OFFCURVE",
"1185 3370 OFFCURVE",
"1440 3370 CURVE SMOOTH"
);
},
{
closed = 1;
nodes = (
"1590 1011 LINE SMOOTH",
"1825 982 OFFCURVE",
"1998 773 OFFCURVE",
"1981 537 CURVE SMOOTH",
"1978 505 LINE",
"1933 248 OFFCURVE",
"1786 1 OFFCURVE",
"1575 -175 CURVE SMOOTH",
"1369 -347 OFFCURVE",
"1109 -445 OFFCURVE",
"854 -445 CURVE SMOOTH",
"610 -445 OFFCURVE",
"410 -245 OFFCURVE",
"409 0 CURVE SMOOTH",
"410 245 OFFCURVE",
"609 445 OFFCURVE",
"854 445 CURVE SMOOTH",
"901 445 OFFCURVE",
"955 467 OFFCURVE",
"1005 508 CURVE SMOOTH",
"1057 552 OFFCURVE",
"1091 605 OFFCURVE",
"1101 656 CURVE SMOOTH",
"1143 873 OFFCURVE",
"1343 1028 OFFCURVE",
"1566 1013 CURVE SMOOTH"
);
},
{
closed = 1;
nodes = (
"1724 3370 OFFCURVE",
"1986 3248 OFFCURVE",
"2156 3037 CURVE SMOOTH",
"2323 2827 OFFCURVE",
"2387 2547 OFFCURVE",
"2331 2269 CURVE SMOOTH",
"2287 2049 OFFCURVE",
"2084 1895 OFFCURVE",
"1860 1913 CURVE SMOOTH",
"1838 1915 LINE SMOOTH",
"1604 1944 OFFCURVE",
"1434 2153 OFFCURVE",
"1451 2389 CURVE SMOOTH",
"1454 2427 LINE",
"1459 2442 OFFCURVE",
"1460 2473 OFFCURVE",
"1460 2480 CURVE",
"1456 2480 OFFCURVE",
"1442 2480 OFFCURVE",
"1439 2480 CURVE SMOOTH",
"1195 2480 OFFCURVE",
"995 2680 OFFCURVE",
"994 2925 CURVE SMOOTH",
"995 3170 OFFCURVE",
"1194 3370 OFFCURVE",
"1439 3370 CURVE SMOOTH"
);
},
{
closed = 1;
nodes = (
"1942 2799 LINE SMOOTH",
"2180 2774 OFFCURVE",
"2355 2563 OFFCURVE",
"2338 2325 CURVE SMOOTH",
"2335 2293 LINE",
"2248 1793 OFFCURVE",
"1776 1408 OFFCURVE",
"1432 1121 CURVE SMOOTH",
"1008 769 OFFCURVE",
"860 602 OFFCURVE",
"836 482 CURVE SMOOTH",
"792 264 OFFCURVE",
"593 111 OFFCURVE",
"372 125 CURVE SMOOTH",
"349 127 LINE SMOOTH",
"113 154 OFFCURVE",
"-61 364 OFFCURVE",
"-44 601 CURVE SMOOTH",
"-41 633 LINE",
"46 1132 OFFCURVE",
"518 1517 OFFCURVE",
"862 1805 CURVE SMOOTH",
"1286 2157 OFFCURVE",
"1434 2324 OFFCURVE",
"1458 2444 CURVE SMOOTH",
"1502 2658 OFFCURVE",
"1698 2812 OFFCURVE",
"1916 2801 CURVE SMOOTH"
);
},
{
closed = 1;
nodes = (
"453 1011 LINE SMOOTH",
"688 983 OFFCURVE",
"860 773 OFFCURVE",
"843 537 CURVE SMOOTH",
"840 499 LINE",
"834 481 OFFCURVE",
"834 444 OFFCURVE",
"834 444 CURVE",
"834 444 OFFCURVE",
"839 445 OFFCURVE",
"855 445 CURVE SMOOTH",
"1100 445 OFFCURVE",
"1299 245 OFFCURVE",
"1299 0 CURVE SMOOTH",
"1299 -245 OFFCURVE",
"1099 -445 OFFCURVE",
"855 -445 CURVE SMOOTH",
"570 -445 OFFCURVE",
"308 -323 OFFCURVE",
"138 -111 CURVE SMOOTH",
"-29 98 OFFCURVE",
"-93 379 OFFCURVE",
"-37 657 CURVE SMOOTH",
"7 874 OFFCURVE",
"206 1028 OFFCURVE",
"427 1013 CURVE SMOOTH"
);
}
);
width = 2294;
}
);
unicode = 0065;
},
{
glyphname = E;
lastChange = "2021-02-03 07:47:43 +0000";
layers = (
{
layerId = master01;
paths = (
{
closed = 1;
nodes = (
"751 2367 LINE",
"754 2365 OFFCURVE",
"758 2361 OFFCURVE",
"758 2357 CURVE SMOOTH",
"758 2354 LINE",
"401 567 LINE SMOOTH",
"400 563 OFFCURVE",
"395 559 OFFCURVE",
"391 559 CURVE SMOOTH",
"388 559 LINE SMOOTH",
"384 560 OFFCURVE",
"380 564 OFFCURVE",
"380 569 CURVE SMOOTH",
"380 572 LINE",
"738 2358 LINE",
"738 2362 OFFCURVE",
"743 2366 OFFCURVE",
"747 2367 CURVE SMOOTH"
);
},
{
closed = 1;
nodes = (
"1436 2936 OFFCURVE",
"1441 2931 OFFCURVE",
"1441 2925 CURVE SMOOTH",
"1441 2920 OFFCURVE",
"1436 2915 OFFCURVE",
"1430 2915 CURVE SMOOTH",
"1283 2915 OFFCURVE",
"1127 2855 OFFCURVE",
"1002 2751 CURVE SMOOTH",
"876 2646 OFFCURVE",
"788 2502 OFFCURVE",
"758 2354 CURVE SMOOTH",
"757 2350 OFFCURVE",
"753 2346 OFFCURVE",
"748 2346 CURVE SMOOTH",
"745 2346 LINE SMOOTH",
"741 2347 OFFCURVE",
"738 2352 OFFCURVE",
"737 2356 CURVE",
"738 2359 LINE SMOOTH",
"769 2513 OFFCURVE",
"858 2658 OFFCURVE",
"988 2767 CURVE SMOOTH",
"1119 2875 OFFCURVE",
"1276 2936 OFFCURVE",
"1430 2936 CURVE SMOOTH"
);
},
{
closed = 1;
nodes = (
"1531 579 LINE SMOOTH",
"1535 578 OFFCURVE",
"1538 574 OFFCURVE",
"1539 570 CURVE",
"1538 566 LINE SMOOTH",
"1507 413 OFFCURVE",
"1418 267 OFFCURVE",
"1288 159 CURVE SMOOTH",
"1157 50 OFFCURVE",
"999 -10 OFFCURVE",
"845 -10 CURVE SMOOTH",
"840 -10 OFFCURVE",
"835 -5 OFFCURVE",
"835 0 CURVE SMOOTH",
"835 6 OFFCURVE",
"840 11 OFFCURVE",
"845 11 CURVE SMOOTH",
"993 11 OFFCURVE",
"1149 70 OFFCURVE",
"1274 175 CURVE SMOOTH",
"1400 280 OFFCURVE",
"1488 423 OFFCURVE",
"1518 571 CURVE SMOOTH",
"1519 575 OFFCURVE",
"1523 579 OFFCURVE",
"1527 580 CURVE"
);
},
{
closed = 1;
nodes = (
"1585 2936 OFFCURVE",
"1720 2874 OFFCURVE",
"1808 2765 CURVE SMOOTH",
"1895 2656 OFFCURVE",
"1927 2509 OFFCURVE",
"1896 2354 CURVE SMOOTH",
"1895 2350 OFFCURVE",
"1891 2346 OFFCURVE",
"1886 2346 CURVE SMOOTH",
"1883 2346 LINE SMOOTH",
"1879 2347 OFFCURVE",
"1875 2352 OFFCURVE",
"1875 2356 CURVE SMOOTH",
"1875 2359 LINE",
"1905 2507 OFFCURVE",
"1874 2648 OFFCURVE",
"1791 2752 CURVE SMOOTH",
"1708 2856 OFFCURVE",
"1578 2915 OFFCURVE",
"1430 2915 CURVE SMOOTH",
"1425 2915 OFFCURVE",
"1420 2920 OFFCURVE",
"1420 2925 CURVE SMOOTH",
"1420 2931 OFFCURVE",
"1425 2936 OFFCURVE",
"1430 2936 CURVE SMOOTH"
);
},
{
closed = 1;
nodes = (
"393 579 LINE SMOOTH",
"397 578 OFFCURVE",
"400 574 OFFCURVE",
"401 570 CURVE",
"400 566 LINE SMOOTH",
"371 419 OFFCURVE",
"402 277 OFFCURVE",
"485 174 CURVE SMOOTH",
"568 69 OFFCURVE",
"698 11 OFFCURVE",
"845 11 CURVE SMOOTH",
"851 11 OFFCURVE",
"856 6 OFFCURVE",
"856 0 CURVE SMOOTH",
"856 -5 OFFCURVE",
"851 -10 OFFCURVE",
"845 -10 CURVE SMOOTH",
"691 -10 OFFCURVE",
"556 51 OFFCURVE",
"468 160 CURVE SMOOTH",
"381 270 OFFCURVE",
"349 417 OFFCURVE",
"380 571 CURVE SMOOTH",
"381 575 OFFCURVE",
"385 579 OFFCURVE",
"389 580 CURVE"
);
},
{
closed = 1;
nodes = (
"1138 1473 LINE SMOOTH",
"1144 1473 OFFCURVE",
"1148 1469 OFFCURVE",
"1148 1463 CURVE SMOOTH",
"1148 1457 OFFCURVE",
"1144 1452 OFFCURVE",
"1138 1452 CURVE SMOOTH",
"569 1452 LINE SMOOTH",
"563 1452 OFFCURVE",
"559 1457 OFFCURVE",
"559 1463 CURVE SMOOTH",
"559 1469 OFFCURVE",
"563 1473 OFFCURVE",
"569 1473 CURVE SMOOTH"
);
}
);
width = 2276;
},
{
layerId = "328E32EA-B50A-4570-BED2-89D75A472110";
paths = (
{
closed = 1;
nodes = (
"804 2799 LINE SMOOTH",
"1042 2774 OFFCURVE",
"1218 2562 OFFCURVE",
"1200 2325 CURVE SMOOTH",
"1197 2290 LINE",
"836 482 LINE SMOOTH",
"792 264 OFFCURVE",
"593 111 OFFCURVE",
"372 125 CURVE SMOOTH",
"349 127 LINE SMOOTH",
"113 154 OFFCURVE",
"-61 364 OFFCURVE",
"-44 601 CURVE SMOOTH",
"-41 636 LINE",
"321 2443 LINE SMOOTH",
"363 2658 OFFCURVE",
"560 2812 OFFCURVE",
"780 2801 CURVE SMOOTH"
);
},
{
closed = 1;
nodes = (
"1685 3370 OFFCURVE",
"1884 3170 OFFCURVE",
"1884 2925 CURVE SMOOTH",
"1884 2680 OFFCURVE",
"1684 2480 OFFCURVE",
"1440 2480 CURVE SMOOTH",
"1381 2480 OFFCURVE",
"1311 2446 OFFCURVE",
"1251 2380 CURVE SMOOTH",
"1221 2345 OFFCURVE",
"1200 2306 OFFCURVE",
"1193 2269 CURVE SMOOTH",
"1149 2049 OFFCURVE",
"946 1895 OFFCURVE",
"722 1913 CURVE SMOOTH",
"699 1916 LINE SMOOTH",
"466 1946 OFFCURVE",
"296 2155 OFFCURVE",
"313 2390 CURVE SMOOTH",
"316 2421 LINE",
"361 2678 OFFCURVE",
"507 2923 OFFCURVE",
"719 3100 CURVE SMOOTH",
"925 3273 OFFCURVE",
"1185 3370 OFFCURVE",
"1440 3370 CURVE SMOOTH"
);
},
{
closed = 1;
nodes = (
"1590 1011 LINE SMOOTH",
"1825 982 OFFCURVE",
"1998 773 OFFCURVE",
"1981 537 CURVE SMOOTH",
"1978 505 LINE",
"1933 248 OFFCURVE",
"1786 1 OFFCURVE",
"1575 -175 CURVE SMOOTH",
"1369 -347 OFFCURVE",
"1109 -445 OFFCURVE",
"854 -445 CURVE SMOOTH",
"610 -445 OFFCURVE",
"410 -245 OFFCURVE",
"409 0 CURVE SMOOTH",
"410 245 OFFCURVE",
"609 445 OFFCURVE",
"854 445 CURVE SMOOTH",
"901 445 OFFCURVE",
"955 467 OFFCURVE",
"1005 508 CURVE SMOOTH",
"1057 552 OFFCURVE",
"1091 605 OFFCURVE",
"1101 656 CURVE SMOOTH",
"1143 873 OFFCURVE",
"1343 1028 OFFCURVE",
"1566 1013 CURVE SMOOTH"
);
},
{
closed = 1;
nodes = (
"1724 3370 OFFCURVE",
"1986 3248 OFFCURVE",
"2156 3037 CURVE SMOOTH",
"2323 2827 OFFCURVE",
"2387 2547 OFFCURVE",
"2331 2269 CURVE SMOOTH",
"2287 2049 OFFCURVE",
"2084 1895 OFFCURVE",
"1860 1913 CURVE SMOOTH",
"1838 1915 LINE SMOOTH",
"1604 1944 OFFCURVE",
"1434 2153 OFFCURVE",
"1451 2389 CURVE SMOOTH",
"1454 2427 LINE",
"1459 2442 OFFCURVE",
"1460 2473 OFFCURVE",
"1460 2480 CURVE",
"1456 2480 OFFCURVE",
"1442 2480 OFFCURVE",
"1439 2480 CURVE SMOOTH",
"1195 2480 OFFCURVE",
"995 2680 OFFCURVE",
"994 2925 CURVE SMOOTH",
"995 3170 OFFCURVE",
"1194 3370 OFFCURVE",
"1439 3370 CURVE SMOOTH"
);
},
{
closed = 1;
nodes = (
"453 1011 LINE SMOOTH",
"688 983 OFFCURVE",
"860 773 OFFCURVE",
"843 537 CURVE SMOOTH",
"840 499 LINE",
"834 481 OFFCURVE",
"834 444 OFFCURVE",
"834 444 CURVE",
"834 444 OFFCURVE",
"839 445 OFFCURVE",
"855 445 CURVE SMOOTH",
"1100 445 OFFCURVE",
"1299 245 OFFCURVE",
"1299 0 CURVE SMOOTH",
"1299 -245 OFFCURVE",
"1099 -445 OFFCURVE",
"855 -445 CURVE SMOOTH",
"570 -445 OFFCURVE",
"308 -323 OFFCURVE",
"138 -111 CURVE SMOOTH",
"-29 98 OFFCURVE",
"-93 379 OFFCURVE",
"-37 657 CURVE SMOOTH",
"7 874 OFFCURVE",
"206 1028 OFFCURVE",
"427 1013 CURVE SMOOTH"
);
},
{
closed = 1;
nodes = (
"1147 1908 LINE SMOOTH",
"1393 1908 OFFCURVE",
"1592 1708 OFFCURVE",
"1592 1463 CURVE SMOOTH",
"1592 1217 OFFCURVE",
"1392 1018 OFFCURVE",
"1147 1018 CURVE SMOOTH",
"578 1018 LINE SMOOTH",
"332 1018 OFFCURVE",
"133 1218 OFFCURVE",
"133 1463 CURVE SMOOTH",
"133 1709 OFFCURVE",
"333 1908 OFFCURVE",
"578 1908 CURVE SMOOTH"
);
}
);
width = 2294;
}
);
unicode = 0045;
},
{
glyphname = A;
lastChange = "2021-02-03 07:47:43 +0000";
layers = (
{
layerId = master01;
paths = (
{
closed = 1;
nodes = (
"864 2935 LINE SMOOTH",
"868 2934 OFFCURVE",
"872 2930 OFFCURVE",
"872 2926 CURVE SMOOTH",
"872 2922 LINE",
"758 2354 LINE SMOOTH",
"757 2350 OFFCURVE",
"753 2346 OFFCURVE",
"748 2346 CURVE SMOOTH",
"745 2346 LINE SMOOTH",
"741 2347 OFFCURVE",
"738 2352 OFFCURVE",
"737 2356 CURVE",
"738 2359 LINE",
"851 2927 LINE SMOOTH",
"852 2931 OFFCURVE",
"856 2935 OFFCURVE",
"860 2936 CURVE"
);
},
{
closed = 1;
nodes = (
"751 2367 LINE",
"754 2365 OFFCURVE",
"758 2361 OFFCURVE",
"758 2357 CURVE SMOOTH",
"758 2354 LINE",
"401 567 LINE SMOOTH",
"400 563 OFFCURVE",
"395 559 OFFCURVE",
"391 559 CURVE SMOOTH",
"388 559 LINE SMOOTH",
"384 560 OFFCURVE",
"380 564 OFFCURVE",
"380 569 CURVE SMOOTH",
"380 572 LINE",
"738 2358 LINE",
"738 2362 OFFCURVE",
"743 2366 OFFCURVE",
"747 2367 CURVE SMOOTH"
);
},
{
closed = 1;
nodes = (
"1531 579 LINE SMOOTH",
"1535 578 OFFCURVE",
"1538 574 OFFCURVE",
"1539 570 CURVE",
"1538 566 LINE SMOOTH",
"1507 413 OFFCURVE",
"1418 267 OFFCURVE",
"1288 159 CURVE SMOOTH",
"1157 50 OFFCURVE",
"999 -10 OFFCURVE",
"845 -10 CURVE SMOOTH",
"840 -10 OFFCURVE",
"835 -5 OFFCURVE",
"835 0 CURVE SMOOTH",
"835 6 OFFCURVE",
"840 11 OFFCURVE",
"845 11 CURVE SMOOTH",
"993 11 OFFCURVE",
"1149 70 OFFCURVE",
"1274 175 CURVE SMOOTH",
"1400 280 OFFCURVE",
"1488 423 OFFCURVE",
"1518 571 CURVE SMOOTH",
"1519 575 OFFCURVE",
"1523 579 OFFCURVE",
"1527 580 CURVE"
);
},
{
closed = 1;
nodes = (
"393 579 LINE SMOOTH",
"397 578 OFFCURVE",
"400 574 OFFCURVE",
"401 570 CURVE",
"400 566 LINE SMOOTH",
"371 419 OFFCURVE",
"402 277 OFFCURVE",
"485 174 CURVE SMOOTH",
"568 69 OFFCURVE",
"698 11 OFFCURVE",
"845 11 CURVE SMOOTH",
"851 11 OFFCURVE",
"856 6 OFFCURVE",
"856 0 CURVE SMOOTH",
"856 -5 OFFCURVE",
"851 -10 OFFCURVE",
"845 -10 CURVE SMOOTH",
"691 -10 OFFCURVE",
"556 51 OFFCURVE",
"468 160 CURVE SMOOTH",
"381 270 OFFCURVE",
"349 417 OFFCURVE",
"380 571 CURVE SMOOTH",
"381 575 OFFCURVE",
"385 579 OFFCURVE",
"389 580 CURVE"
);
},
{
closed = 1;
nodes = (
"2002 2935 LINE SMOOTH",
"2006 2934 OFFCURVE",
"2009 2930 OFFCURVE",
"2010 2926 CURVE",
"2009 2922 LINE",
"1896 2354 LINE SMOOTH",
"1895 2350 OFFCURVE",
"1891 2346 OFFCURVE",
"1886 2346 CURVE SMOOTH",
"1883 2346 LINE SMOOTH",
"1879 2347 OFFCURVE",
"1875 2352 OFFCURVE",
"1875 2356 CURVE SMOOTH",
"1875 2359 LINE",
"1989 2927 LINE SMOOTH",
"1990 2931 OFFCURVE",
"1994 2935 OFFCURVE",
"1998 2936 CURVE"
);
},
{
closed = 1;
nodes = (
"1888 2367 LINE",
"1892 2365 OFFCURVE",
"1896 2361 OFFCURVE",
"1896 2357 CURVE SMOOTH",
"1896 2354 LINE",
"1538 567 LINE",
"1538 563 OFFCURVE",
"1533 559 OFFCURVE",
"1529 559 CURVE SMOOTH",
"1525 559 LINE SMOOTH",
"1521 560 OFFCURVE",
"1518 564 OFFCURVE",
"1518 569 CURVE SMOOTH",
"1518 572 LINE",
"1875 2358 LINE SMOOTH",
"1876 2362 OFFCURVE",
"1880 2366 OFFCURVE",
"1884 2367 CURVE SMOOTH"
);
},
{
closed = 1;
nodes = (
"1138 1473 LINE SMOOTH",
"1144 1473 OFFCURVE",
"1148 1469 OFFCURVE",
"1148 1463 CURVE SMOOTH",
"1148 1457 OFFCURVE",
"1144 1452 OFFCURVE",
"1138 1452 CURVE SMOOTH",
"569 1452 LINE SMOOTH",
"563 1452 OFFCURVE",
"559 1457 OFFCURVE",
"559 1463 CURVE SMOOTH",
"559 1469 OFFCURVE",
"563 1473 OFFCURVE",
"569 1473 CURVE SMOOTH"
);
},
{
closed = 1;
nodes = (
"1707 1473 LINE SMOOTH",
"1713 1473 OFFCURVE",
"1717 1469 OFFCURVE",
"1717 1463 CURVE SMOOTH",
"1717 1457 OFFCURVE",
"1713 1452 OFFCURVE",
"1707 1452 CURVE SMOOTH",
"1138 1452 LINE SMOOTH",
"1132 1452 OFFCURVE",
"1127 1457 OFFCURVE",
"1127 1463 CURVE SMOOTH",
"1127 1469 OFFCURVE",
"1132 1473 OFFCURVE",
"1138 1473 CURVE SMOOTH"
);
}
);
width = 2276;
},
{
layerId = "328E32EA-B50A-4570-BED2-89D75A472110";
paths = (
{
closed = 1;
nodes = (
"923 3367 LINE SMOOTH",
"1158 3340 OFFCURVE",
"1332 3129 OFFCURVE",
"1314 2892 CURVE SMOOTH",
"1311 2859 LINE",
"1193 2268 LINE SMOOTH",
"1148 2049 OFFCURVE",
"946 1895 OFFCURVE",
"722 1913 CURVE SMOOTH",
"699 1916 LINE SMOOTH",
"466 1946 OFFCURVE",
"296 2154 OFFCURVE",
"313 2389 CURVE SMOOTH",
"316 2423 LINE",
"434 3014 LINE SMOOTH",
"478 3230 OFFCURVE",
"678 3384 OFFCURVE",
"898 3369 CURVE SMOOTH"
);
},
{
closed = 1;
nodes = (
"804 2799 LINE SMOOTH",
"1042 2774 OFFCURVE",
"1218 2562 OFFCURVE",
"1200 2325 CURVE SMOOTH",
"1197 2290 LINE",
"836 482 LINE SMOOTH",
"792 264 OFFCURVE",
"593 111 OFFCURVE",
"372 125 CURVE SMOOTH",
"349 127 LINE SMOOTH",
"113 154 OFFCURVE",
"-61 364 OFFCURVE",
"-44 601 CURVE SMOOTH",
"-41 636 LINE",
"321 2443 LINE SMOOTH",
"363 2658 OFFCURVE",
"560 2812 OFFCURVE",
"780 2801 CURVE SMOOTH"
);
},
{
closed = 1;
nodes = (
"1590 1011 LINE SMOOTH",
"1825 982 OFFCURVE",
"1998 773 OFFCURVE",
"1981 537 CURVE SMOOTH",
"1978 505 LINE",
"1933 248 OFFCURVE",
"1786 1 OFFCURVE",
"1575 -175 CURVE SMOOTH",
"1369 -347 OFFCURVE",
"1109 -445 OFFCURVE",
"854 -445 CURVE SMOOTH",
"610 -445 OFFCURVE",
"410 -245 OFFCURVE",
"409 0 CURVE SMOOTH",
"410 245 OFFCURVE",
"609 445 OFFCURVE",
"854 445 CURVE SMOOTH",
"901 445 OFFCURVE",
"955 467 OFFCURVE",
"1005 508 CURVE SMOOTH",
"1057 552 OFFCURVE",
"1091 605 OFFCURVE",
"1101 656 CURVE SMOOTH",
"1143 873 OFFCURVE",
"1343 1028 OFFCURVE",
"1566 1013 CURVE SMOOTH"
);
},
{
closed = 1;
nodes = (
"453 1011 LINE SMOOTH",
"688 983 OFFCURVE",
"860 773 OFFCURVE",
"843 537 CURVE SMOOTH",
"840 499 LINE",
"834 481 OFFCURVE",
"834 444 OFFCURVE",
"834 444 CURVE",
"834 444 OFFCURVE",
"839 445 OFFCURVE",
"855 445 CURVE SMOOTH",
"1100 445 OFFCURVE",
"1299 245 OFFCURVE",
"1299 0 CURVE SMOOTH",
"1299 -245 OFFCURVE",
"1099 -445 OFFCURVE",
"855 -445 CURVE SMOOTH",
"570 -445 OFFCURVE",
"308 -323 OFFCURVE",
"138 -111 CURVE SMOOTH",
"-29 98 OFFCURVE",
"-93 379 OFFCURVE",
"-37 657 CURVE SMOOTH",
"7 874 OFFCURVE",
"206 1028 OFFCURVE",
"427 1013 CURVE SMOOTH"
);
},
{
closed = 1;
nodes = (
"2062 3367 LINE SMOOTH",
"2297 3339 OFFCURVE",
"2469 3129 OFFCURVE",
"2452 2893 CURVE SMOOTH",
"2449 2859 LINE",
"2331 2269 LINE SMOOTH",
"2287 2049 OFFCURVE",
"2084 1895 OFFCURVE",
"1860 1913 CURVE SMOOTH",
"1838 1915 LINE SMOOTH",
"1604 1944 OFFCURVE",
"1434 2153 OFFCURVE",
"1451 2389 CURVE SMOOTH",
"1454 2423 LINE",
"1572 3014 LINE SMOOTH",
"1616 3230 OFFCURVE",
"1815 3384 OFFCURVE",
"2036 3369 CURVE SMOOTH"
);
},
{
closed = 1;
nodes = (
"1942 2799 LINE SMOOTH",
"2180 2774 OFFCURVE",
"2355 2563 OFFCURVE",
"2338 2325 CURVE SMOOTH",
"2335 2290 LINE",
"1973 482 LINE SMOOTH",
"1931 264 OFFCURVE",
"1731 111 OFFCURVE",
"1508 125 CURVE SMOOTH",
"1487 127 LINE SMOOTH",
"1250 154 OFFCURVE",
"1076 365 OFFCURVE",
"1094 601 CURVE SMOOTH",
"1097 636 LINE",
"1458 2444 LINE SMOOTH",
"1502 2658 OFFCURVE",
"1698 2812 OFFCURVE",
"1916 2801 CURVE SMOOTH"
);
},
{
closed = 1;
nodes = (
"1147 1908 LINE SMOOTH",
"1393 1908 OFFCURVE",
"1592 1708 OFFCURVE",
"1592 1463 CURVE SMOOTH",
"1592 1217 OFFCURVE",
"1392 1018 OFFCURVE",
"1147 1018 CURVE SMOOTH",
"578 1018 LINE SMOOTH",
"332 1018 OFFCURVE",
"133 1218 OFFCURVE",
"133 1463 CURVE SMOOTH",
"133 1709 OFFCURVE",
"333 1908 OFFCURVE",
"578 1908 CURVE SMOOTH"
);
},
{
closed = 1;
nodes = (
"1716 1908 LINE SMOOTH",
"1962 1908 OFFCURVE",
"2161 1708 OFFCURVE",
"2161 1463 CURVE SMOOTH",
"2161 1217 OFFCURVE",
"1961 1018 OFFCURVE",
"1716 1018 CURVE SMOOTH",
"1147 1018 LINE SMOOTH",
"901 1018 OFFCURVE",
"702 1218 OFFCURVE",
"702 1463 CURVE SMOOTH",
"702 1709 OFFCURVE",
"902 1908 OFFCURVE",
"1147 1908 CURVE SMOOTH"
);
}
);
width = 2294;
}
);
unicode = 0041;
},
{
glyphname = Y;
lastChange = "2021-02-03 07:47:43 +0000";
layers = (
{
layerId = master01;
paths = (
{
closed = 1;
nodes = (
"864 2935 LINE SMOOTH",
"868 2934 OFFCURVE",
"872 2930 OFFCURVE",
"872 2926 CURVE SMOOTH",
"872 2922 LINE",
"758 2354 LINE SMOOTH",
"757 2350 OFFCURVE",
"753 2346 OFFCURVE",
"748 2346 CURVE SMOOTH",
"745 2346 LINE SMOOTH",
"741 2347 OFFCURVE",
"738 2352 OFFCURVE",
"737 2356 CURVE",
"738 2359 LINE",
"851 2927 LINE SMOOTH",
"852 2931 OFFCURVE",
"856 2935 OFFCURVE",
"860 2936 CURVE"
);
},
{
closed = 1;
nodes = (
"751 2367 LINE",
"754 2365 OFFCURVE",
"758 2361 OFFCURVE",
"758 2357 CURVE SMOOTH",
"758 2354 LINE",
"729 2210 OFFCURVE",
"757 2062 OFFCURVE",
"842 1899 CURVE SMOOTH",
"919 1754 OFFCURVE",
"1032 1611 OFFCURVE",
"1146 1469 CURVE SMOOTH",
"1260 1327 OFFCURVE",
"1374 1186 OFFCURVE",
"1452 1036 CURVE SMOOTH",
"1540 868 OFFCURVE",
"1568 716 OFFCURVE",
"1538 567 CURVE",
"1538 563 OFFCURVE",
"1533 559 OFFCURVE",
"1529 559 CURVE SMOOTH",
"1525 559 LINE SMOOTH",
"1521 560 OFFCURVE",
"1518 564 OFFCURVE",
"1518 569 CURVE SMOOTH",
"1518 572 LINE",
"1547 716 OFFCURVE",
"1519 863 OFFCURVE",
"1434 1027 CURVE SMOOTH",
"1357 1172 OFFCURVE",
"1244 1314 OFFCURVE",
"1130 1456 CURVE SMOOTH",
"1016 1598 OFFCURVE",
"902 1740 OFFCURVE",
"824 1889 CURVE SMOOTH",
"736 2057 OFFCURVE",
"708 2210 OFFCURVE",
"738 2358 CURVE",
"738 2362 OFFCURVE",
"743 2366 OFFCURVE",
"747 2367 CURVE SMOOTH"
);
},
{
closed = 1;
nodes = (
"1531 579 LINE SMOOTH",
"1535 578 OFFCURVE",
"1538 574 OFFCURVE",
"1539 570 CURVE",
"1538 566 LINE SMOOTH",
"1507 413 OFFCURVE",
"1418 267 OFFCURVE",
"1288 159 CURVE SMOOTH",
"1157 50 OFFCURVE",
"999 -10 OFFCURVE",
"845 -10 CURVE SMOOTH",
"840 -10 OFFCURVE",
"835 -5 OFFCURVE",
"835 0 CURVE SMOOTH",
"835 6 OFFCURVE",
"840 11 OFFCURVE",
"845 11 CURVE SMOOTH",
"993 11 OFFCURVE",
"1149 70 OFFCURVE",
"1274 175 CURVE SMOOTH",
"1400 280 OFFCURVE",
"1488 423 OFFCURVE",
"1518 571 CURVE SMOOTH",
"1519 575 OFFCURVE",
"1523 579 OFFCURVE",
"1527 580 CURVE"
);
},
{
closed = 1;
nodes = (
"1888 2367 LINE",
"1892 2365 OFFCURVE",
"1896 2361 OFFCURVE",
"1896 2357 CURVE SMOOTH",
"1896 2354 LINE",
"1828 2019 OFFCURVE",
"1486 1739 OFFCURVE",
"1145 1455 CURVE SMOOTH",
"803 1171 OFFCURVE",
"464 883 OFFCURVE",
"401 567 CURVE SMOOTH",
"400 563 OFFCURVE",
"395 559 OFFCURVE",
"391 559 CURVE SMOOTH",
"388 559 LINE SMOOTH",
"384 560 OFFCURVE",
"380 564 OFFCURVE",
"380 569 CURVE SMOOTH",
"380 572 LINE",
"448 907 OFFCURVE",
"790 1187 OFFCURVE",
"1131 1471 CURVE SMOOTH",
"1473 1755 OFFCURVE",
"1812 2043 OFFCURVE",
"1875 2358 CURVE SMOOTH",
"1876 2362 OFFCURVE",
"1880 2366 OFFCURVE",
"1884 2367 CURVE SMOOTH"
);
},
{
closed = 1;
nodes = (
"393 579 LINE SMOOTH",
"397 578 OFFCURVE",
"400 574 OFFCURVE",
"401 570 CURVE",
"400 566 LINE SMOOTH",
"371 419 OFFCURVE",
"402 277 OFFCURVE",
"485 174 CURVE SMOOTH",
"568 69 OFFCURVE",
"698 11 OFFCURVE",
"845 11 CURVE SMOOTH",
"851 11 OFFCURVE",
"856 6 OFFCURVE",
"856 0 CURVE SMOOTH",
"856 -5 OFFCURVE",
"851 -10 OFFCURVE",
"845 -10 CURVE SMOOTH",
"691 -10 OFFCURVE",
"556 51 OFFCURVE",
"468 160 CURVE SMOOTH",
"381 270 OFFCURVE",
"349 417 OFFCURVE",
"380 571 CURVE SMOOTH",
"381 575 OFFCURVE",
"385 579 OFFCURVE",
"389 580 CURVE"
);
},
{
closed = 1;
nodes = (
"2002 2935 LINE SMOOTH",
"2006 2934 OFFCURVE",
"2009 2930 OFFCURVE",
"2010 2926 CURVE",
"2009 2922 LINE",
"1896 2354 LINE SMOOTH",
"1895 2350 OFFCURVE",
"1891 2346 OFFCURVE",
"1886 2346 CURVE SMOOTH",
"1883 2346 LINE SMOOTH",
"1879 2347 OFFCURVE",
"1875 2352 OFFCURVE",
"1875 2356 CURVE SMOOTH",
"1875 2359 LINE",
"1989 2927 LINE SMOOTH",
"1990 2931 OFFCURVE",
"1994 2935 OFFCURVE",
"1998 2936 CURVE"
);
}
);
width = 2276;
},
{
layerId = "328E32EA-B50A-4570-BED2-89D75A472110";
paths = (
{
closed = 1;
nodes = (
"923 3367 LINE SMOOTH",
"1158 3340 OFFCURVE",
"1332 3129 OFFCURVE",
"1314 2892 CURVE SMOOTH",
"1311 2859 LINE",
"1193 2268 LINE SMOOTH",
"1148 2049 OFFCURVE",
"946 1895 OFFCURVE",
"722 1913 CURVE SMOOTH",
"699 1916 LINE SMOOTH",
"466 1946 OFFCURVE",
"296 2154 OFFCURVE",
"313 2389 CURVE SMOOTH",
"316 2423 LINE",
"434 3014 LINE SMOOTH",
"478 3230 OFFCURVE",
"678 3384 OFFCURVE",
"898 3369 CURVE SMOOTH"
);
},
{
closed = 1;
nodes = (
"804 2799 LINE SMOOTH",
"1042 2774 OFFCURVE",
"1218 2562 OFFCURVE",
"1200 2325 CURVE SMOOTH",
"1197 2289 LINE",
"1184 2233 OFFCURVE",
"1191 2188 OFFCURVE",
"1236 2101 CURVE SMOOTH",
"1294 1992 OFFCURVE",
"1381 1882 OFFCURVE",
"1494 1741 CURVE SMOOTH",
"1608 1599 OFFCURVE",
"1748 1425 OFFCURVE",
"1846 1238 CURVE SMOOTH",
"1979 983 OFFCURVE",
"2023 728 OFFCURVE",
"1973 482 CURVE SMOOTH",
"1931 264 OFFCURVE",
"1731 111 OFFCURVE",
"1508 125 CURVE SMOOTH",
"1487 127 LINE SMOOTH",
"1250 154 OFFCURVE",
"1076 365 OFFCURVE",
"1094 601 CURVE SMOOTH",
"1097 637 LINE",
"1110 693 OFFCURVE",
"1103 739 OFFCURVE",
"1058 825 CURVE SMOOTH",
"1000 934 OFFCURVE",
"913 1044 OFFCURVE",
"800 1185 CURVE SMOOTH",
"686 1327 OFFCURVE",
"546 1501 OFFCURVE",
"448 1687 CURVE SMOOTH",
"314 1942 OFFCURVE",
"271 2197 OFFCURVE",
"321 2443 CURVE SMOOTH",
"363 2658 OFFCURVE",
"560 2812 OFFCURVE",
"780 2801 CURVE SMOOTH"
);
},
{
closed = 1;
nodes = (
"1590 1011 LINE SMOOTH",
"1825 982 OFFCURVE",
"1998 773 OFFCURVE",
"1981 537 CURVE SMOOTH",
"1978 505 LINE",
"1933 248 OFFCURVE",
"1786 1 OFFCURVE",
"1575 -175 CURVE SMOOTH",
"1369 -347 OFFCURVE",
"1109 -445 OFFCURVE",
"854 -445 CURVE SMOOTH",
"610 -445 OFFCURVE",
"410 -245 OFFCURVE",
"409 0 CURVE SMOOTH",
"410 245 OFFCURVE",
"609 445 OFFCURVE",
"854 445 CURVE SMOOTH",
"901 445 OFFCURVE",
"955 467 OFFCURVE",
"1005 508 CURVE SMOOTH",
"1057 552 OFFCURVE",
"1091 605 OFFCURVE",
"1101 656 CURVE SMOOTH",
"1143 873 OFFCURVE",
"1343 1028 OFFCURVE",
"1566 1013 CURVE SMOOTH"
);
},
{
closed = 1;
nodes = (
"1942 2799 LINE SMOOTH",
"2180 2774 OFFCURVE",
"2355 2563 OFFCURVE",
"2338 2325 CURVE SMOOTH",
"2335 2293 LINE",
"2248 1793 OFFCURVE",
"1776 1408 OFFCURVE",
"1432 1121 CURVE SMOOTH",
"1008 769 OFFCURVE",
"860 602 OFFCURVE",
"836 482 CURVE SMOOTH",
"792 264 OFFCURVE",
"593 111 OFFCURVE",
"372 125 CURVE SMOOTH",
"349 127 LINE SMOOTH",
"113 154 OFFCURVE",
"-61 364 OFFCURVE",
"-44 601 CURVE SMOOTH",
"-41 633 LINE",
"46 1132 OFFCURVE",
"518 1517 OFFCURVE",
"862 1805 CURVE SMOOTH",
"1286 2157 OFFCURVE",
"1434 2324 OFFCURVE",
"1458 2444 CURVE SMOOTH",
"1502 2658 OFFCURVE",
"1698 2812 OFFCURVE",
"1916 2801 CURVE SMOOTH"
);
},
{
closed = 1;
nodes = (
"453 1011 LINE SMOOTH",
"688 983 OFFCURVE",
"860 773 OFFCURVE",
"843 537 CURVE SMOOTH",
"840 499 LINE",
"834 481 OFFCURVE",
"834 444 OFFCURVE",
"834 444 CURVE",
"834 444 OFFCURVE",
"839 445 OFFCURVE",
"855 445 CURVE SMOOTH",
"1100 445 OFFCURVE",
"1299 245 OFFCURVE",
"1299 0 CURVE SMOOTH",
"1299 -245 OFFCURVE",
"1099 -445 OFFCURVE",
"855 -445 CURVE SMOOTH",
"570 -445 OFFCURVE",
"308 -323 OFFCURVE",
"138 -111 CURVE SMOOTH",
"-29 98 OFFCURVE",
"-93 379 OFFCURVE",
"-37 657 CURVE SMOOTH",
"7 874 OFFCURVE",
"206 1028 OFFCURVE",
"427 1013 CURVE SMOOTH"
);
},
{
closed = 1;
nodes = (
"2062 3367 LINE SMOOTH",
"2297 3339 OFFCURVE",
"2469 3129 OFFCURVE",
"2452 2893 CURVE SMOOTH",
"2449 2859 LINE",
"2331 2269 LINE SMOOTH",
"2287 2049 OFFCURVE",
"2084 1895 OFFCURVE",
"1860 1913 CURVE SMOOTH",
"1838 1915 LINE SMOOTH",
"1604 1944 OFFCURVE",
"1434 2153 OFFCURVE",
"1451 2389 CURVE SMOOTH",
"1454 2423 LINE",
"1572 3014 LINE SMOOTH",
"1616 3230 OFFCURVE",
"1815 3384 OFFCURVE",
"2036 3369 CURVE SMOOTH"
);
}
);
width = 2294;
}
);
unicode = 0059;
},
{
glyphname = L;
lastChange = "2021-02-03 07:47:43 +0000";
layers = (
{
layerId = master01;
paths = (
{
closed = 1;
nodes = (
"393 579 LINE SMOOTH",
"397 578 OFFCURVE",
"400 574 OFFCURVE",
"401 570 CURVE",
"400 566 LINE",
"287 -2 LINE SMOOTH",
"286 -6 OFFCURVE",
"282 -10 OFFCURVE",
"277 -10 CURVE SMOOTH",
"274 -10 LINE SMOOTH",
"270 -9 OFFCURVE",
"266 -4 OFFCURVE",
"266 0 CURVE SMOOTH",
"266 3 LINE",
"380 571 LINE SMOOTH",
"381 575 OFFCURVE",
"385 579 OFFCURVE",
"389 580 CURVE"
);
},
{
closed = 1;
nodes = (
"1436 2936 OFFCURVE",
"1441 2931 OFFCURVE",
"1441 2925 CURVE SMOOTH",
"1441 2920 OFFCURVE",
"1436 2915 OFFCURVE",
"1430 2915 CURVE SMOOTH",
"1283 2915 OFFCURVE",
"1127 2855 OFFCURVE",
"1002 2751 CURVE SMOOTH",
"876 2646 OFFCURVE",
"788 2502 OFFCURVE",
"758 2354 CURVE SMOOTH",
"757 2350 OFFCURVE",
"753 2346 OFFCURVE",
"748 2346 CURVE SMOOTH",
"745 2346 LINE SMOOTH",
"741 2347 OFFCURVE",
"738 2352 OFFCURVE",
"737 2356 CURVE",
"738 2359 LINE SMOOTH",
"769 2513 OFFCURVE",
"858 2658 OFFCURVE",
"988 2767 CURVE SMOOTH",
"1119 2875 OFFCURVE",
"1276 2936 OFFCURVE",
"1430 2936 CURVE SMOOTH"
);
},
{
closed = 1;
nodes = (
"1585 2936 OFFCURVE",
"1720 2874 OFFCURVE",
"1808 2765 CURVE SMOOTH",
"1895 2656 OFFCURVE",
"1927 2509 OFFCURVE",
"1896 2354 CURVE SMOOTH",
"1895 2350 OFFCURVE",
"1891 2346 OFFCURVE",
"1886 2346 CURVE SMOOTH",
"1883 2346 LINE SMOOTH",
"1879 2347 OFFCURVE",
"1875 2352 OFFCURVE",
"1875 2356 CURVE SMOOTH",
"1875 2359 LINE",
"1905 2507 OFFCURVE",
"1874 2648 OFFCURVE",
"1791 2752 CURVE SMOOTH",
"1708 2856 OFFCURVE",
"1578 2915 OFFCURVE",
"1430 2915 CURVE SMOOTH",
"1425 2915 OFFCURVE",
"1420 2920 OFFCURVE",
"1420 2925 CURVE SMOOTH",
"1420 2931 OFFCURVE",
"1425 2936 OFFCURVE",
"1430 2936 CURVE SMOOTH"
);
},
{
closed = 1;
nodes = (
"1888 2367 LINE",
"1892 2365 OFFCURVE",
"1896 2361 OFFCURVE",
"1896 2357 CURVE SMOOTH",
"1896 2354 LINE",
"1828 2019 OFFCURVE",
"1486 1739 OFFCURVE",
"1145 1455 CURVE SMOOTH",
"803 1171 OFFCURVE",
"464 883 OFFCURVE",
"401 567 CURVE SMOOTH",
"400 563 OFFCURVE",
"395 559 OFFCURVE",
"391 559 CURVE SMOOTH",
"388 559 LINE SMOOTH",
"384 560 OFFCURVE",
"380 564 OFFCURVE",
"380 569 CURVE SMOOTH",
"380 572 LINE",
"448 907 OFFCURVE",
"790 1187 OFFCURVE",
"1131 1471 CURVE SMOOTH",
"1473 1755 OFFCURVE",
"1812 2043 OFFCURVE",
"1875 2358 CURVE SMOOTH",
"1876 2362 OFFCURVE",
"1880 2366 OFFCURVE",
"1884 2367 CURVE SMOOTH"
);
},
{
closed = 1;
nodes = (
"1888 2367 LINE",
"1892 2365 OFFCURVE",
"1896 2361 OFFCURVE",
"1896 2357 CURVE SMOOTH",
"1896 2354 LINE",
"1538 567 LINE",
"1538 563 OFFCURVE",
"1533 559 OFFCURVE",
"1529 559 CURVE SMOOTH",
"1525 559 LINE SMOOTH",
"1521 560 OFFCURVE",
"1518 564 OFFCURVE",
"1518 569 CURVE SMOOTH",
"1518 572 LINE",
"1875 2358 LINE SMOOTH",
"1876 2362 OFFCURVE",
"1880 2366 OFFCURVE",
"1884 2367 CURVE SMOOTH"
);
},
{
closed = 1;
nodes = (
"1531 579 LINE SMOOTH",
"1535 578 OFFCURVE",
"1538 574 OFFCURVE",
"1539 570 CURVE",
"1538 566 LINE",
"1425 -2 LINE SMOOTH",
"1424 -6 OFFCURVE",
"1419 -10 OFFCURVE",
"1415 -10 CURVE SMOOTH",
"1412 -10 LINE SMOOTH",
"1408 -9 OFFCURVE",
"1404 -4 OFFCURVE",
"1404 0 CURVE SMOOTH",
"1404 3 LINE",
"1518 571 LINE SMOOTH",
"1519 575 OFFCURVE",
"1523 579 OFFCURVE",
"1527 580 CURVE"
);
}
);
width = 2276;
},
{
layerId = "328E32EA-B50A-4570-BED2-89D75A472110";
paths = (
{
closed = 1;
nodes = (
"453 1011 LINE SMOOTH",
"688 983 OFFCURVE",
"860 773 OFFCURVE",
"843 537 CURVE SMOOTH",
"840 503 LINE",
"722 -87 LINE SMOOTH",
"678 -305 OFFCURVE",
"479 -458 OFFCURVE",
"258 -444 CURVE SMOOTH",
"235 -442 LINE SMOOTH",
"-1 -415 OFFCURVE",
"-175 -205 OFFCURVE",
"-158 32 CURVE SMOOTH",
"-155 67 LINE",
"-37 657 LINE SMOOTH",
"7 874 OFFCURVE",
"206 1028 OFFCURVE",
"427 1013 CURVE SMOOTH"
);
},
{
closed = 1;
nodes = (
"1685 3370 OFFCURVE",
"1884 3170 OFFCURVE",
"1884 2925 CURVE SMOOTH",
"1884 2680 OFFCURVE",
"1684 2480 OFFCURVE",
"1440 2480 CURVE SMOOTH",
"1381 2480 OFFCURVE",
"1311 2446 OFFCURVE",
"1251 2380 CURVE SMOOTH",
"1221 2345 OFFCURVE",
"1200 2306 OFFCURVE",
"1193 2269 CURVE SMOOTH",
"1149 2049 OFFCURVE",
"946 1895 OFFCURVE",
"722 1913 CURVE SMOOTH",
"699 1916 LINE SMOOTH",
"466 1946 OFFCURVE",
"296 2155 OFFCURVE",
"313 2390 CURVE SMOOTH",
"316 2421 LINE",
"361 2678 OFFCURVE",
"507 2923 OFFCURVE",
"719 3100 CURVE SMOOTH",
"925 3273 OFFCURVE",
"1185 3370 OFFCURVE",
"1440 3370 CURVE SMOOTH"
);
},
{
closed = 1;
nodes = (
"1724 3370 OFFCURVE",
"1986 3248 OFFCURVE",
"2156 3037 CURVE SMOOTH",
"2323 2827 OFFCURVE",
"2387 2547 OFFCURVE",
"2331 2269 CURVE SMOOTH",
"2287 2049 OFFCURVE",
"2084 1895 OFFCURVE",
"1860 1913 CURVE SMOOTH",
"1838 1915 LINE SMOOTH",
"1604 1944 OFFCURVE",
"1434 2153 OFFCURVE",
"1451 2389 CURVE SMOOTH",
"1454 2427 LINE",
"1459 2442 OFFCURVE",
"1460 2473 OFFCURVE",
"1460 2480 CURVE",
"1456 2480 OFFCURVE",
"1442 2480 OFFCURVE",
"1439 2480 CURVE SMOOTH",
"1195 2480 OFFCURVE",
"995 2680 OFFCURVE",
"994 2925 CURVE SMOOTH",
"995 3170 OFFCURVE",
"1194 3370 OFFCURVE",
"1439 3370 CURVE SMOOTH"
);
},
{
closed = 1;
nodes = (
"1942 2799 LINE SMOOTH",
"2180 2774 OFFCURVE",
"2355 2563 OFFCURVE",
"2338 2325 CURVE SMOOTH",
"2335 2293 LINE",
"2248 1793 OFFCURVE",
"1776 1408 OFFCURVE",
"1432 1121 CURVE SMOOTH",
"1008 769 OFFCURVE",
"860 602 OFFCURVE",
"836 482 CURVE SMOOTH",
"792 264 OFFCURVE",
"593 111 OFFCURVE",
"372 125 CURVE SMOOTH",
"349 127 LINE SMOOTH",
"113 154 OFFCURVE",
"-61 364 OFFCURVE",
"-44 601 CURVE SMOOTH",
"-41 633 LINE",
"46 1132 OFFCURVE",
"518 1517 OFFCURVE",
"862 1805 CURVE SMOOTH",
"1286 2157 OFFCURVE",
"1434 2324 OFFCURVE",
"1458 2444 CURVE SMOOTH",
"1502 2658 OFFCURVE",
"1698 2812 OFFCURVE",
"1916 2801 CURVE SMOOTH"
);
},
{
closed = 1;
nodes = (
"1942 2799 LINE SMOOTH",
"2180 2774 OFFCURVE",
"2355 2563 OFFCURVE",
"2338 2325 CURVE SMOOTH",
"2335 2290 LINE",
"1973 482 LINE SMOOTH",
"1931 264 OFFCURVE",
"1731 111 OFFCURVE",
"1508 125 CURVE SMOOTH",
"1487 127 LINE SMOOTH",
"1250 154 OFFCURVE",
"1076 365 OFFCURVE",
"1094 601 CURVE SMOOTH",
"1097 636 LINE",
"1458 2444 LINE SMOOTH",
"1502 2658 OFFCURVE",
"1698 2812 OFFCURVE",
"1916 2801 CURVE SMOOTH"
);
},
{
closed = 1;
nodes = (
"1590 1011 LINE SMOOTH",
"1827 982 OFFCURVE",
"2001 770 OFFCURVE",
"1981 531 CURVE",
"1976 498 LINE",
"1860 -88 LINE SMOOTH",
"1815 -305 OFFCURVE",
"1615 -458 OFFCURVE",
"1394 -444 CURVE SMOOTH",
"1373 -442 LINE SMOOTH",
"1137 -415 OFFCURVE",
"963 -204 OFFCURVE",
"980 32 CURVE SMOOTH",
"983 67 LINE",
"1101 656 LINE SMOOTH",
"1143 873 OFFCURVE",
"1343 1028 OFFCURVE",
"1566 1013 CURVE SMOOTH"
);
}
);
width = 2294;
}
);
unicode = 004C;
},
{
glyphname = six;
lastChange = "2021-02-03 07:47:43 +0000";
layers = (
{
layerId = master01;
paths = (
{
closed = 1;
nodes = (
"751 2367 LINE",
"754 2365 OFFCURVE",
"758 2361 OFFCURVE",
"758 2357 CURVE SMOOTH",
"758 2354 LINE",
"401 567 LINE SMOOTH",
"400 563 OFFCURVE",
"395 559 OFFCURVE",
"391 559 CURVE SMOOTH",
"388 559 LINE SMOOTH",
"384 560 OFFCURVE",
"380 564 OFFCURVE",
"380 569 CURVE SMOOTH",
"380 572 LINE",
"738 2358 LINE",
"738 2362 OFFCURVE",
"743 2366 OFFCURVE",
"747 2367 CURVE SMOOTH"
);
},
{
closed = 1;
nodes = (
"1436 2936 OFFCURVE",
"1441 2931 OFFCURVE",
"1441 2925 CURVE SMOOTH",
"1441 2920 OFFCURVE",
"1436 2915 OFFCURVE",
"1430 2915 CURVE SMOOTH",
"1283 2915 OFFCURVE",
"1127 2855 OFFCURVE",
"1002 2751 CURVE SMOOTH",
"876 2646 OFFCURVE",
"788 2502 OFFCURVE",
"758 2354 CURVE SMOOTH",
"757 2350 OFFCURVE",
"753 2346 OFFCURVE",
"748 2346 CURVE SMOOTH",
"745 2346 LINE SMOOTH",
"741 2347 OFFCURVE",
"738 2352 OFFCURVE",
"737 2356 CURVE",
"738 2359 LINE SMOOTH",
"769 2513 OFFCURVE",
"858 2658 OFFCURVE",
"988 2767 CURVE SMOOTH",
"1119 2875 OFFCURVE",
"1276 2936 OFFCURVE",
"1430 2936 CURVE SMOOTH"
);
},
{
closed = 1;
nodes = (
"751 2367 LINE",
"754 2365 OFFCURVE",
"758 2361 OFFCURVE",
"758 2357 CURVE SMOOTH",
"758 2354 LINE",
"729 2210 OFFCURVE",
"757 2062 OFFCURVE",
"842 1899 CURVE SMOOTH",
"919 1754 OFFCURVE",
"1032 1611 OFFCURVE",
"1146 1469 CURVE SMOOTH",
"1260 1327 OFFCURVE",
"1374 1186 OFFCURVE",
"1452 1036 CURVE SMOOTH",
"1540 868 OFFCURVE",
"1568 716 OFFCURVE",
"1538 567 CURVE",
"1538 563 OFFCURVE",
"1533 559 OFFCURVE",
"1529 559 CURVE SMOOTH",
"1525 559 LINE SMOOTH",
"1521 560 OFFCURVE",
"1518 564 OFFCURVE",
"1518 569 CURVE SMOOTH",
"1518 572 LINE",
"1547 716 OFFCURVE",
"1519 863 OFFCURVE",
"1434 1027 CURVE SMOOTH",
"1357 1172 OFFCURVE",
"1244 1314 OFFCURVE",
"1130 1456 CURVE SMOOTH",
"1016 1598 OFFCURVE",
"902 1740 OFFCURVE",
"824 1889 CURVE SMOOTH",
"736 2057 OFFCURVE",
"708 2210 OFFCURVE",
"738 2358 CURVE",
"738 2362 OFFCURVE",
"743 2366 OFFCURVE",
"747 2367 CURVE SMOOTH"
);
},
{
closed = 1;
nodes = (
"1531 579 LINE SMOOTH",
"1535 578 OFFCURVE",
"1538 574 OFFCURVE",
"1539 570 CURVE",
"1538 566 LINE SMOOTH",
"1507 413 OFFCURVE",
"1418 267 OFFCURVE",
"1288 159 CURVE SMOOTH",
"1157 50 OFFCURVE",
"999 -10 OFFCURVE",
"845 -10 CURVE SMOOTH",
"840 -10 OFFCURVE",
"835 -5 OFFCURVE",
"835 0 CURVE SMOOTH",
"835 6 OFFCURVE",
"840 11 OFFCURVE",
"845 11 CURVE SMOOTH",
"993 11 OFFCURVE",
"1149 70 OFFCURVE",
"1274 175 CURVE SMOOTH",
"1400 280 OFFCURVE",
"1488 423 OFFCURVE",
"1518 571 CURVE SMOOTH",
"1519 575 OFFCURVE",
"1523 579 OFFCURVE",
"1527 580 CURVE"
);
},
{
closed = 1;
nodes = (
"1585 2936 OFFCURVE",
"1720 2874 OFFCURVE",
"1808 2765 CURVE SMOOTH",
"1895 2656 OFFCURVE",
"1927 2509 OFFCURVE",
"1896 2354 CURVE SMOOTH",
"1895 2350 OFFCURVE",
"1891 2346 OFFCURVE",
"1886 2346 CURVE SMOOTH",
"1883 2346 LINE SMOOTH",
"1879 2347 OFFCURVE",
"1875 2352 OFFCURVE",
"1875 2356 CURVE SMOOTH",
"1875 2359 LINE",
"1905 2507 OFFCURVE",
"1874 2648 OFFCURVE",
"1791 2752 CURVE SMOOTH",
"1708 2856 OFFCURVE",
"1578 2915 OFFCURVE",
"1430 2915 CURVE SMOOTH",
"1425 2915 OFFCURVE",
"1420 2920 OFFCURVE",
"1420 2925 CURVE SMOOTH",
"1420 2931 OFFCURVE",
"1425 2936 OFFCURVE",
"1430 2936 CURVE SMOOTH"
);
},
{
closed = 1;
nodes = (
"393 579 LINE SMOOTH",
"397 578 OFFCURVE",
"400 574 OFFCURVE",
"401 570 CURVE",
"400 566 LINE SMOOTH",
"371 419 OFFCURVE",
"402 277 OFFCURVE",
"485 174 CURVE SMOOTH",
"568 69 OFFCURVE",
"698 11 OFFCURVE",
"845 11 CURVE SMOOTH",
"851 11 OFFCURVE",
"856 6 OFFCURVE",
"856 0 CURVE SMOOTH",
"856 -5 OFFCURVE",
"851 -10 OFFCURVE",
"845 -10 CURVE SMOOTH",
"691 -10 OFFCURVE",
"556 51 OFFCURVE",
"468 160 CURVE SMOOTH",
"381 270 OFFCURVE",
"349 417 OFFCURVE",
"380 571 CURVE SMOOTH",
"381 575 OFFCURVE",
"385 579 OFFCURVE",
"389 580 CURVE"
);
}
);
width = 2276;
},
{
layerId = "328E32EA-B50A-4570-BED2-89D75A472110";
paths = (
{
closed = 1;
nodes = (
"804 2799 LINE SMOOTH",
"1042 2774 OFFCURVE",
"1218 2562 OFFCURVE",
"1200 2325 CURVE SMOOTH",
"1197 2290 LINE",
"836 482 LINE SMOOTH",
"792 264 OFFCURVE",
"593 111 OFFCURVE",
"372 125 CURVE SMOOTH",
"349 127 LINE SMOOTH",
"113 154 OFFCURVE",
"-61 364 OFFCURVE",
"-44 601 CURVE SMOOTH",
"-41 636 LINE",
"321 2443 LINE SMOOTH",
"363 2658 OFFCURVE",
"560 2812 OFFCURVE",
"780 2801 CURVE SMOOTH"
);
},
{
closed = 1;
nodes = (
"1685 3370 OFFCURVE",
"1884 3170 OFFCURVE",
"1884 2925 CURVE SMOOTH",
"1884 2680 OFFCURVE",
"1684 2480 OFFCURVE",
"1440 2480 CURVE SMOOTH",
"1381 2480 OFFCURVE",
"1311 2446 OFFCURVE",
"1251 2380 CURVE SMOOTH",
"1221 2345 OFFCURVE",
"1200 2306 OFFCURVE",
"1193 2269 CURVE SMOOTH",
"1149 2049 OFFCURVE",
"946 1895 OFFCURVE",
"722 1913 CURVE SMOOTH",
"699 1916 LINE SMOOTH",
"466 1946 OFFCURVE",
"296 2155 OFFCURVE",
"313 2390 CURVE SMOOTH",
"316 2421 LINE",
"361 2678 OFFCURVE",
"507 2923 OFFCURVE",
"719 3100 CURVE SMOOTH",
"925 3273 OFFCURVE",
"1185 3370 OFFCURVE",
"1440 3370 CURVE SMOOTH"
);
},
{
closed = 1;
nodes = (
"804 2799 LINE SMOOTH",
"1042 2774 OFFCURVE",
"1218 2562 OFFCURVE",
"1200 2325 CURVE SMOOTH",
"1197 2289 LINE",
"1184 2233 OFFCURVE",
"1191 2188 OFFCURVE",
"1236 2101 CURVE SMOOTH",
"1294 1992 OFFCURVE",
"1381 1882 OFFCURVE",
"1494 1741 CURVE SMOOTH",
"1608 1599 OFFCURVE",
"1748 1425 OFFCURVE",
"1846 1238 CURVE SMOOTH",
"1979 983 OFFCURVE",
"2023 728 OFFCURVE",
"1973 482 CURVE SMOOTH",
"1931 264 OFFCURVE",
"1731 111 OFFCURVE",
"1508 125 CURVE SMOOTH",
"1487 127 LINE SMOOTH",
"1250 154 OFFCURVE",
"1076 365 OFFCURVE",
"1094 601 CURVE SMOOTH",
"1097 637 LINE",
"1110 693 OFFCURVE",
"1103 739 OFFCURVE",
"1058 825 CURVE SMOOTH",
"1000 934 OFFCURVE",
"913 1044 OFFCURVE",
"800 1185 CURVE SMOOTH",
"686 1327 OFFCURVE",
"546 1501 OFFCURVE",
"448 1687 CURVE SMOOTH",
"314 1942 OFFCURVE",
"271 2197 OFFCURVE",
"321 2443 CURVE SMOOTH",
"363 2658 OFFCURVE",
"560 2812 OFFCURVE",
"780 2801 CURVE SMOOTH"
);
},
{
closed = 1;
nodes = (
"1590 1011 LINE SMOOTH",
"1825 982 OFFCURVE",
"1998 773 OFFCURVE",
"1981 537 CURVE SMOOTH",
"1978 505 LINE",
"1933 248 OFFCURVE",
"1786 1 OFFCURVE",
"1575 -175 CURVE SMOOTH",
"1369 -347 OFFCURVE",
"1109 -445 OFFCURVE",
"854 -445 CURVE SMOOTH",
"610 -445 OFFCURVE",
"410 -245 OFFCURVE",
"409 0 CURVE SMOOTH",
"410 245 OFFCURVE",
"609 445 OFFCURVE",
"854 445 CURVE SMOOTH",
"901 445 OFFCURVE",
"955 467 OFFCURVE",
"1005 508 CURVE SMOOTH",
"1057 552 OFFCURVE",
"1091 605 OFFCURVE",
"1101 656 CURVE SMOOTH",
"1143 873 OFFCURVE",
"1343 1028 OFFCURVE",
"1566 1013 CURVE SMOOTH"
);
},
{
closed = 1;
nodes = (
"1724 3370 OFFCURVE",
"1986 3248 OFFCURVE",
"2156 3037 CURVE SMOOTH",
"2323 2827 OFFCURVE",
"2387 2547 OFFCURVE",
"2331 2269 CURVE SMOOTH",
"2287 2049 OFFCURVE",
"2084 1895 OFFCURVE",
"1860 1913 CURVE SMOOTH",
"1838 1915 LINE SMOOTH",
"1604 1944 OFFCURVE",
"1434 2153 OFFCURVE",
"1451 2389 CURVE SMOOTH",
"1454 2427 LINE",
"1459 2442 OFFCURVE",
"1460 2473 OFFCURVE",
"1460 2480 CURVE",
"1456 2480 OFFCURVE",
"1442 2480 OFFCURVE",
"1439 2480 CURVE SMOOTH",
"1195 2480 OFFCURVE",
"995 2680 OFFCURVE",
"994 2925 CURVE SMOOTH",
"995 3170 OFFCURVE",
"1194 3370 OFFCURVE",
"1439 3370 CURVE SMOOTH"
);
},
{
closed = 1;
nodes = (
"453 1011 LINE SMOOTH",
"688 983 OFFCURVE",
"860 773 OFFCURVE",
"843 537 CURVE SMOOTH",
"840 499 LINE",
"834 481 OFFCURVE",
"834 444 OFFCURVE",
"834 444 CURVE",
"834 444 OFFCURVE",
"839 445 OFFCURVE",
"855 445 CURVE SMOOTH",
"1100 445 OFFCURVE",
"1299 245 OFFCURVE",
"1299 0 CURVE SMOOTH",
"1299 -245 OFFCURVE",
"1099 -445 OFFCURVE",
"855 -445 CURVE SMOOTH",
"570 -445 OFFCURVE",
"308 -323 OFFCURVE",
"138 -111 CURVE SMOOTH",
"-29 98 OFFCURVE",
"-93 379 OFFCURVE",
"-37 657 CURVE SMOOTH",
"7 874 OFFCURVE",
"206 1028 OFFCURVE",
"427 1013 CURVE SMOOTH"
);
}
);
width = 2294;
}
);
unicode = 0036;
},
{
glyphname = two;
lastChange = "2021-02-03 07:47:43 +0000";
layers = (
{
layerId = master01;
paths = (
{
closed = 1;
nodes = (
"1436 2936 OFFCURVE",
"1441 2931 OFFCURVE",
"1441 2925 CURVE SMOOTH",
"1441 2920 OFFCURVE",
"1436 2915 OFFCURVE",
"1430 2915 CURVE SMOOTH",
"1283 2915 OFFCURVE",
"1127 2855 OFFCURVE",
"1002 2751 CURVE SMOOTH",
"876 2646 OFFCURVE",
"788 2502 OFFCURVE",
"758 2354 CURVE SMOOTH",
"757 2350 OFFCURVE",
"753 2346 OFFCURVE",
"748 2346 CURVE SMOOTH",
"745 2346 LINE SMOOTH",
"741 2347 OFFCURVE",
"738 2352 OFFCURVE",
"737 2356 CURVE",
"738 2359 LINE SMOOTH",
"769 2513 OFFCURVE",
"858 2658 OFFCURVE",
"988 2767 CURVE SMOOTH",
"1119 2875 OFFCURVE",
"1276 2936 OFFCURVE",
"1430 2936 CURVE SMOOTH"
);
},
{
closed = 1;
nodes = (
"1531 579 LINE SMOOTH",
"1535 578 OFFCURVE",
"1538 574 OFFCURVE",
"1539 570 CURVE",
"1538 566 LINE SMOOTH",
"1507 413 OFFCURVE",
"1418 267 OFFCURVE",
"1288 159 CURVE SMOOTH",
"1157 50 OFFCURVE",
"999 -10 OFFCURVE",
"845 -10 CURVE SMOOTH",
"840 -10 OFFCURVE",
"835 -5 OFFCURVE",
"835 0 CURVE SMOOTH",
"835 6 OFFCURVE",
"840 11 OFFCURVE",
"845 11 CURVE SMOOTH",
"993 11 OFFCURVE",
"1149 70 OFFCURVE",
"1274 175 CURVE SMOOTH",
"1400 280 OFFCURVE",
"1488 423 OFFCURVE",
"1518 571 CURVE SMOOTH",
"1519 575 OFFCURVE",
"1523 579 OFFCURVE",
"1527 580 CURVE"
);
},
{
closed = 1;
nodes = (
"1585 2936 OFFCURVE",
"1720 2874 OFFCURVE",
"1808 2765 CURVE SMOOTH",
"1895 2656 OFFCURVE",
"1927 2509 OFFCURVE",
"1896 2354 CURVE SMOOTH",
"1895 2350 OFFCURVE",
"1891 2346 OFFCURVE",
"1886 2346 CURVE SMOOTH",
"1883 2346 LINE SMOOTH",
"1879 2347 OFFCURVE",
"1875 2352 OFFCURVE",
"1875 2356 CURVE SMOOTH",
"1875 2359 LINE",
"1905 2507 OFFCURVE",
"1874 2648 OFFCURVE",
"1791 2752 CURVE SMOOTH",
"1708 2856 OFFCURVE",
"1578 2915 OFFCURVE",
"1430 2915 CURVE SMOOTH",
"1425 2915 OFFCURVE",
"1420 2920 OFFCURVE",
"1420 2925 CURVE SMOOTH",
"1420 2931 OFFCURVE",
"1425 2936 OFFCURVE",
"1430 2936 CURVE SMOOTH"
);
},
{
closed = 1;
nodes = (
"1888 2367 LINE",
"1892 2365 OFFCURVE",
"1896 2361 OFFCURVE",
"1896 2357 CURVE SMOOTH",
"1896 2354 LINE",
"1828 2019 OFFCURVE",
"1486 1739 OFFCURVE",
"1145 1455 CURVE SMOOTH",
"803 1171 OFFCURVE",
"464 883 OFFCURVE",
"401 567 CURVE SMOOTH",
"400 563 OFFCURVE",
"395 559 OFFCURVE",
"391 559 CURVE SMOOTH",
"388 559 LINE SMOOTH",
"384 560 OFFCURVE",
"380 564 OFFCURVE",
"380 569 CURVE SMOOTH",
"380 572 LINE",
"448 907 OFFCURVE",
"790 1187 OFFCURVE",
"1131 1471 CURVE SMOOTH",
"1473 1755 OFFCURVE",
"1812 2043 OFFCURVE",
"1875 2358 CURVE SMOOTH",
"1876 2362 OFFCURVE",
"1880 2366 OFFCURVE",
"1884 2367 CURVE SMOOTH"
);
},
{
closed = 1;
nodes = (
"393 579 LINE SMOOTH",
"397 578 OFFCURVE",
"400 574 OFFCURVE",
"401 570 CURVE",
"400 566 LINE SMOOTH",
"371 419 OFFCURVE",
"402 277 OFFCURVE",
"485 174 CURVE SMOOTH",
"568 69 OFFCURVE",
"698 11 OFFCURVE",
"845 11 CURVE SMOOTH",
"851 11 OFFCURVE",
"856 6 OFFCURVE",
"856 0 CURVE SMOOTH",
"856 -5 OFFCURVE",
"851 -10 OFFCURVE",
"845 -10 CURVE SMOOTH",
"691 -10 OFFCURVE",
"556 51 OFFCURVE",
"468 160 CURVE SMOOTH",
"381 270 OFFCURVE",
"349 417 OFFCURVE",
"380 571 CURVE SMOOTH",
"381 575 OFFCURVE",
"385 579 OFFCURVE",
"389 580 CURVE"
);
},
{
closed = 1;
nodes = (
"1888 2367 LINE",
"1892 2365 OFFCURVE",
"1896 2361 OFFCURVE",
"1896 2357 CURVE SMOOTH",
"1896 2354 LINE",
"1538 567 LINE",
"1538 563 OFFCURVE",
"1533 559 OFFCURVE",
"1529 559 CURVE SMOOTH",
"1525 559 LINE SMOOTH",
"1521 560 OFFCURVE",
"1518 564 OFFCURVE",
"1518 569 CURVE SMOOTH",
"1518 572 LINE",
"1875 2358 LINE SMOOTH",
"1876 2362 OFFCURVE",
"1880 2366 OFFCURVE",
"1884 2367 CURVE SMOOTH"
);
}
);
width = 2276;
},
{
layerId = "328E32EA-B50A-4570-BED2-89D75A472110";
paths = (
{
closed = 1;
nodes = (
"1685 3370 OFFCURVE",
"1884 3170 OFFCURVE",
"1884 2925 CURVE SMOOTH",
"1884 2680 OFFCURVE",
"1684 2480 OFFCURVE",
"1440 2480 CURVE SMOOTH",
"1381 2480 OFFCURVE",
"1311 2446 OFFCURVE",
"1251 2380 CURVE SMOOTH",
"1221 2345 OFFCURVE",
"1200 2306 OFFCURVE",
"1193 2269 CURVE SMOOTH",
"1149 2049 OFFCURVE",
"946 1895 OFFCURVE",
"722 1913 CURVE SMOOTH",
"699 1916 LINE SMOOTH",
"466 1946 OFFCURVE",
"296 2155 OFFCURVE",
"313 2390 CURVE SMOOTH",
"316 2421 LINE",
"361 2678 OFFCURVE",
"507 2923 OFFCURVE",
"719 3100 CURVE SMOOTH",
"925 3273 OFFCURVE",
"1185 3370 OFFCURVE",
"1440 3370 CURVE SMOOTH"
);
},
{
closed = 1;
nodes = (
"1590 1011 LINE SMOOTH",
"1825 982 OFFCURVE",
"1998 773 OFFCURVE",
"1981 537 CURVE SMOOTH",
"1978 505 LINE",
"1933 248 OFFCURVE",
"1786 1 OFFCURVE",
"1575 -175 CURVE SMOOTH",
"1369 -347 OFFCURVE",
"1109 -445 OFFCURVE",
"854 -445 CURVE SMOOTH",
"610 -445 OFFCURVE",
"410 -245 OFFCURVE",
"409 0 CURVE SMOOTH",
"410 245 OFFCURVE",
"609 445 OFFCURVE",
"854 445 CURVE SMOOTH",
"901 445 OFFCURVE",
"955 467 OFFCURVE",
"1005 508 CURVE SMOOTH",
"1057 552 OFFCURVE",
"1091 605 OFFCURVE",
"1101 656 CURVE SMOOTH",
"1143 873 OFFCURVE",
"1343 1028 OFFCURVE",
"1566 1013 CURVE SMOOTH"
);
},
{
closed = 1;
nodes = (
"1724 3370 OFFCURVE",
"1986 3248 OFFCURVE",
"2156 3037 CURVE SMOOTH",
"2323 2827 OFFCURVE",
"2387 2547 OFFCURVE",
"2331 2269 CURVE SMOOTH",
"2287 2049 OFFCURVE",
"2084 1895 OFFCURVE",
"1860 1913 CURVE SMOOTH",
"1838 1915 LINE SMOOTH",
"1604 1944 OFFCURVE",
"1434 2153 OFFCURVE",
"1451 2389 CURVE SMOOTH",
"1454 2427 LINE",
"1459 2442 OFFCURVE",
"1460 2473 OFFCURVE",
"1460 2480 CURVE",
"1456 2480 OFFCURVE",
"1442 2480 OFFCURVE",
"1439 2480 CURVE SMOOTH",
"1195 2480 OFFCURVE",
"995 2680 OFFCURVE",
"994 2925 CURVE SMOOTH",
"995 3170 OFFCURVE",
"1194 3370 OFFCURVE",
"1439 3370 CURVE SMOOTH"
);
},
{
closed = 1;
nodes = (
"1942 2799 LINE SMOOTH",
"2180 2774 OFFCURVE",
"2355 2563 OFFCURVE",
"2338 2325 CURVE SMOOTH",
"2335 2293 LINE",
"2248 1793 OFFCURVE",
"1776 1408 OFFCURVE",
"1432 1121 CURVE SMOOTH",
"1008 769 OFFCURVE",
"860 602 OFFCURVE",
"836 482 CURVE SMOOTH",
"792 264 OFFCURVE",
"593 111 OFFCURVE",
"372 125 CURVE SMOOTH",
"349 127 LINE SMOOTH",
"113 154 OFFCURVE",
"-61 364 OFFCURVE",
"-44 601 CURVE SMOOTH",
"-41 633 LINE",
"46 1132 OFFCURVE",
"518 1517 OFFCURVE",
"862 1805 CURVE SMOOTH",
"1286 2157 OFFCURVE",
"1434 2324 OFFCURVE",
"1458 2444 CURVE SMOOTH",
"1502 2658 OFFCURVE",
"1698 2812 OFFCURVE",
"1916 2801 CURVE SMOOTH"
);
},
{
closed = 1;
nodes = (
"453 1011 LINE SMOOTH",
"688 983 OFFCURVE",
"860 773 OFFCURVE",
"843 537 CURVE SMOOTH",
"840 499 LINE",
"834 481 OFFCURVE",
"834 444 OFFCURVE",
"834 444 CURVE",
"834 444 OFFCURVE",
"839 445 OFFCURVE",
"855 445 CURVE SMOOTH",
"1100 445 OFFCURVE",
"1299 245 OFFCURVE",
"1299 0 CURVE SMOOTH",
"1299 -245 OFFCURVE",
"1099 -445 OFFCURVE",
"855 -445 CURVE SMOOTH",
"570 -445 OFFCURVE",
"308 -323 OFFCURVE",
"138 -111 CURVE SMOOTH",
"-29 98 OFFCURVE",
"-93 379 OFFCURVE",
"-37 657 CURVE SMOOTH",
"7 874 OFFCURVE",
"206 1028 OFFCURVE",
"427 1013 CURVE SMOOTH"
);
},
{
closed = 1;
nodes = (
"1942 2799 LINE SMOOTH",
"2180 2774 OFFCURVE",
"2355 2563 OFFCURVE",
"2338 2325 CURVE SMOOTH",
"2335 2290 LINE",
"1973 482 LINE SMOOTH",
"1931 264 OFFCURVE",
"1731 111 OFFCURVE",
"1508 125 CURVE SMOOTH",
"1487 127 LINE SMOOTH",
"1250 154 OFFCURVE",
"1076 365 OFFCURVE",
"1094 601 CURVE SMOOTH",
"1097 636 LINE",
"1458 2444 LINE SMOOTH",
"1502 2658 OFFCURVE",
"1698 2812 OFFCURVE",
"1916 2801 CURVE SMOOTH"
);
}
);
width = 2294;
}
);
unicode = 0032;
},
{
glyphname = b;
lastChange = "2021-02-03 07:47:43 +0000";
layers = (
{
layerId = master01;
paths = (
{
closed = 1;
nodes = (
"1449 5860 LINE SMOOTH",
"1453 5859 OFFCURVE",
"1457 5855 OFFCURVE",
"1457 5851 CURVE SMOOTH",
"1457 5847 LINE",
"1343 5279 LINE SMOOTH",
"1342 5275 OFFCURVE",
"1338 5271 OFFCURVE",
"1333 5271 CURVE SMOOTH",
"1330 5271 LINE SMOOTH",
"1326 5272 OFFCURVE",
"1323 5277 OFFCURVE",
"1322 5281 CURVE",
"1323 5284 LINE",
"1436 5852 LINE SMOOTH",
"1437 5856 OFFCURVE",
"1441 5860 OFFCURVE",
"1445 5861 CURVE"
);
},
{
closed = 1;
nodes = (
"1336 5292 LINE",
"1339 5290 OFFCURVE",
"1343 5286 OFFCURVE",
"1343 5282 CURVE SMOOTH",
"1343 5279 LINE",
"986 3492 LINE SMOOTH",
"985 3488 OFFCURVE",
"980 3484 OFFCURVE",
"976 3484 CURVE SMOOTH",
"973 3484 LINE SMOOTH",
"969 3485 OFFCURVE",
"965 3489 OFFCURVE",
"965 3494 CURVE SMOOTH",
"965 3497 LINE",
"1323 5283 LINE",
"1323 5287 OFFCURVE",
"1328 5291 OFFCURVE",
"1332 5292 CURVE SMOOTH"
);
},
{
closed = 1;
nodes = (
"978 3504 LINE SMOOTH",
"982 3503 OFFCURVE",
"985 3499 OFFCURVE",
"986 3495 CURVE",
"985 3491 LINE",
"872 2923 LINE SMOOTH",
"871 2919 OFFCURVE",
"867 2915 OFFCURVE",
"862 2915 CURVE SMOOTH",
"859 2915 LINE SMOOTH",
"855 2916 OFFCURVE",
"851 2921 OFFCURVE",
"851 2925 CURVE SMOOTH",
"851 2928 LINE",
"965 3496 LINE SMOOTH",
"966 3500 OFFCURVE",
"970 3504 OFFCURVE",
"974 3505 CURVE"
);
},
{
closed = 1;
nodes = (
"864 2935 LINE SMOOTH",
"868 2934 OFFCURVE",
"872 2930 OFFCURVE",
"872 2926 CURVE SMOOTH",
"872 2922 LINE",
"758 2354 LINE SMOOTH",
"757 2350 OFFCURVE",
"753 2346 OFFCURVE",
"748 2346 CURVE SMOOTH",
"745 2346 LINE SMOOTH",
"741 2347 OFFCURVE",
"738 2352 OFFCURVE",
"737 2356 CURVE",
"738 2359 LINE",
"851 2927 LINE SMOOTH",
"852 2931 OFFCURVE",
"856 2935 OFFCURVE",
"860 2936 CURVE"
);
},
{
closed = 1;
nodes = (
"751 2367 LINE",
"754 2365 OFFCURVE",
"758 2361 OFFCURVE",
"758 2357 CURVE SMOOTH",
"758 2354 LINE",
"401 567 LINE SMOOTH",
"400 563 OFFCURVE",
"395 559 OFFCURVE",
"391 559 CURVE SMOOTH",
"388 559 LINE SMOOTH",
"384 560 OFFCURVE",
"380 564 OFFCURVE",
"380 569 CURVE SMOOTH",
"380 572 LINE",
"738 2358 LINE",
"738 2362 OFFCURVE",
"743 2366 OFFCURVE",
"747 2367 CURVE SMOOTH"
);
},
{
closed = 1;
nodes = (
"1436 2936 OFFCURVE",
"1441 2931 OFFCURVE",
"1441 2925 CURVE SMOOTH",
"1441 2920 OFFCURVE",
"1436 2915 OFFCURVE",
"1430 2915 CURVE SMOOTH",
"1283 2915 OFFCURVE",
"1127 2855 OFFCURVE",
"1002 2751 CURVE SMOOTH",
"876 2646 OFFCURVE",
"788 2502 OFFCURVE",
"758 2354 CURVE SMOOTH",
"757 2350 OFFCURVE",
"753 2346 OFFCURVE",
"748 2346 CURVE SMOOTH",
"745 2346 LINE SMOOTH",
"741 2347 OFFCURVE",
"738 2352 OFFCURVE",
"737 2356 CURVE",
"738 2359 LINE SMOOTH",
"769 2513 OFFCURVE",
"858 2658 OFFCURVE",
"988 2767 CURVE SMOOTH",
"1119 2875 OFFCURVE",
"1276 2936 OFFCURVE",
"1430 2936 CURVE SMOOTH"
);
},
{
closed = 1;
nodes = (
"1531 579 LINE SMOOTH",
"1535 578 OFFCURVE",
"1538 574 OFFCURVE",
"1539 570 CURVE",
"1538 566 LINE SMOOTH",
"1507 413 OFFCURVE",
"1418 267 OFFCURVE",
"1288 159 CURVE SMOOTH",
"1157 50 OFFCURVE",
"999 -10 OFFCURVE",
"845 -10 CURVE SMOOTH",
"840 -10 OFFCURVE",
"835 -5 OFFCURVE",
"835 0 CURVE SMOOTH",
"835 6 OFFCURVE",
"840 11 OFFCURVE",
"845 11 CURVE SMOOTH",
"993 11 OFFCURVE",
"1149 70 OFFCURVE",
"1274 175 CURVE SMOOTH",
"1400 280 OFFCURVE",
"1488 423 OFFCURVE",
"1518 571 CURVE SMOOTH",
"1519 575 OFFCURVE",
"1523 579 OFFCURVE",
"1527 580 CURVE"
);
},
{
closed = 1;
nodes = (
"1585 2936 OFFCURVE",
"1720 2874 OFFCURVE",
"1808 2765 CURVE SMOOTH",
"1895 2656 OFFCURVE",
"1927 2509 OFFCURVE",
"1896 2354 CURVE SMOOTH",
"1895 2350 OFFCURVE",
"1891 2346 OFFCURVE",
"1886 2346 CURVE SMOOTH",
"1883 2346 LINE SMOOTH",
"1879 2347 OFFCURVE",
"1875 2352 OFFCURVE",
"1875 2356 CURVE SMOOTH",
"1875 2359 LINE",
"1905 2507 OFFCURVE",
"1874 2648 OFFCURVE",
"1791 2752 CURVE SMOOTH",
"1708 2856 OFFCURVE",
"1578 2915 OFFCURVE",
"1430 2915 CURVE SMOOTH",
"1425 2915 OFFCURVE",
"1420 2920 OFFCURVE",
"1420 2925 CURVE SMOOTH",
"1420 2931 OFFCURVE",
"1425 2936 OFFCURVE",
"1430 2936 CURVE SMOOTH"
);
},
{
closed = 1;
nodes = (
"393 579 LINE SMOOTH",
"397 578 OFFCURVE",
"400 574 OFFCURVE",
"401 570 CURVE",
"400 566 LINE SMOOTH",
"371 419 OFFCURVE",
"402 277 OFFCURVE",
"485 174 CURVE SMOOTH",
"568 69 OFFCURVE",
"698 11 OFFCURVE",
"845 11 CURVE SMOOTH",
"851 11 OFFCURVE",
"856 6 OFFCURVE",
"856 0 CURVE SMOOTH",
"856 -5 OFFCURVE",
"851 -10 OFFCURVE",
"845 -10 CURVE SMOOTH",
"691 -10 OFFCURVE",
"556 51 OFFCURVE",
"468 160 CURVE SMOOTH",
"381 270 OFFCURVE",
"349 417 OFFCURVE",
"380 571 CURVE SMOOTH",
"381 575 OFFCURVE",
"385 579 OFFCURVE",
"389 580 CURVE"
);
},
{
closed = 1;
nodes = (
"1888 2367 LINE",
"1892 2365 OFFCURVE",
"1896 2361 OFFCURVE",
"1896 2357 CURVE SMOOTH",
"1896 2354 LINE",
"1538 567 LINE",
"1538 563 OFFCURVE",
"1533 559 OFFCURVE",
"1529 559 CURVE SMOOTH",
"1525 559 LINE SMOOTH",
"1521 560 OFFCURVE",
"1518 564 OFFCURVE",
"1518 569 CURVE SMOOTH",
"1518 572 LINE",
"1875 2358 LINE SMOOTH",
"1876 2362 OFFCURVE",
"1880 2366 OFFCURVE",
"1884 2367 CURVE SMOOTH"
);
}
);
width = 2276;
},
{
layerId = "328E32EA-B50A-4570-BED2-89D75A472110";
paths = (
{
closed = 1;
nodes = (
"1508 6292 LINE SMOOTH",
"1743 6265 OFFCURVE",
"1917 6054 OFFCURVE",
"1899 5817 CURVE SMOOTH",
"1896 5784 LINE",
"1778 5193 LINE SMOOTH",
"1733 4974 OFFCURVE",
"1531 4820 OFFCURVE",
"1307 4838 CURVE SMOOTH",
"1284 4841 LINE SMOOTH",
"1051 4871 OFFCURVE",
"881 5079 OFFCURVE",
"898 5314 CURVE SMOOTH",
"901 5348 LINE",
"1019 5939 LINE SMOOTH",
"1063 6155 OFFCURVE",
"1263 6309 OFFCURVE",
"1483 6294 CURVE SMOOTH"
);
},
{
closed = 1;
nodes = (
"1389 5724 LINE SMOOTH",
"1627 5699 OFFCURVE",
"1803 5487 OFFCURVE",
"1785 5250 CURVE SMOOTH",
"1782 5215 LINE",
"1421 3407 LINE SMOOTH",
"1377 3189 OFFCURVE",
"1178 3036 OFFCURVE",
"957 3050 CURVE SMOOTH",
"934 3052 LINE SMOOTH",
"698 3079 OFFCURVE",
"524 3289 OFFCURVE",
"541 3526 CURVE SMOOTH",
"544 3561 LINE",
"906 5368 LINE SMOOTH",
"948 5583 OFFCURVE",
"1145 5737 OFFCURVE",
"1365 5726 CURVE SMOOTH"
);
},
{
closed = 1;
nodes = (
"1038 3936 LINE SMOOTH",
"1273 3908 OFFCURVE",
"1445 3698 OFFCURVE",
"1428 3462 CURVE SMOOTH",
"1425 3428 LINE",
"1307 2838 LINE SMOOTH",
"1263 2620 OFFCURVE",
"1064 2467 OFFCURVE",
"843 2481 CURVE SMOOTH",
"820 2483 LINE SMOOTH",
"584 2510 OFFCURVE",
"410 2720 OFFCURVE",
"427 2957 CURVE SMOOTH",
"430 2992 LINE",
"548 3582 LINE SMOOTH",
"592 3799 OFFCURVE",
"791 3953 OFFCURVE",
"1012 3938 CURVE SMOOTH"
);
},
{
closed = 1;
nodes = (
"923 3367 LINE SMOOTH",
"1158 3340 OFFCURVE",
"1332 3129 OFFCURVE",
"1314 2892 CURVE SMOOTH",
"1311 2859 LINE",
"1193 2268 LINE SMOOTH",
"1148 2049 OFFCURVE",
"946 1895 OFFCURVE",
"722 1913 CURVE SMOOTH",
"699 1916 LINE SMOOTH",
"466 1946 OFFCURVE",
"296 2154 OFFCURVE",
"313 2389 CURVE SMOOTH",
"316 2423 LINE",
"434 3014 LINE SMOOTH",
"478 3230 OFFCURVE",
"678 3384 OFFCURVE",
"898 3369 CURVE SMOOTH"
);
},
{
closed = 1;
nodes = (
"804 2799 LINE SMOOTH",
"1042 2774 OFFCURVE",
"1218 2562 OFFCURVE",
"1200 2325 CURVE SMOOTH",
"1197 2290 LINE",
"836 482 LINE SMOOTH",
"792 264 OFFCURVE",
"593 111 OFFCURVE",
"372 125 CURVE SMOOTH",
"349 127 LINE SMOOTH",
"113 154 OFFCURVE",
"-61 364 OFFCURVE",
"-44 601 CURVE SMOOTH",
"-41 636 LINE",
"321 2443 LINE SMOOTH",
"363 2658 OFFCURVE",
"560 2812 OFFCURVE",
"780 2801 CURVE SMOOTH"
);
},
{
closed = 1;
nodes = (
"1685 3370 OFFCURVE",
"1884 3170 OFFCURVE",
"1884 2925 CURVE SMOOTH",
"1884 2680 OFFCURVE",
"1684 2480 OFFCURVE",
"1440 2480 CURVE SMOOTH",
"1381 2480 OFFCURVE",
"1311 2446 OFFCURVE",
"1251 2380 CURVE SMOOTH",
"1221 2345 OFFCURVE",
"1200 2306 OFFCURVE",
"1193 2269 CURVE SMOOTH",
"1149 2049 OFFCURVE",
"946 1895 OFFCURVE",
"722 1913 CURVE SMOOTH",
"699 1916 LINE SMOOTH",
"466 1946 OFFCURVE",
"296 2155 OFFCURVE",
"313 2390 CURVE SMOOTH",
"316 2421 LINE",
"361 2678 OFFCURVE",
"507 2923 OFFCURVE",
"719 3100 CURVE SMOOTH",
"925 3273 OFFCURVE",
"1185 3370 OFFCURVE",
"1440 3370 CURVE SMOOTH"
);
},
{
closed = 1;
nodes = (
"1590 1011 LINE SMOOTH",
"1825 982 OFFCURVE",
"1998 773 OFFCURVE",
"1981 537 CURVE SMOOTH",
"1978 505 LINE",
"1933 248 OFFCURVE",
"1786 1 OFFCURVE",
"1575 -175 CURVE SMOOTH",
"1369 -347 OFFCURVE",
"1109 -445 OFFCURVE",
"854 -445 CURVE SMOOTH",
"610 -445 OFFCURVE",
"410 -245 OFFCURVE",
"409 0 CURVE SMOOTH",
"410 245 OFFCURVE",
"609 445 OFFCURVE",
"854 445 CURVE SMOOTH",
"901 445 OFFCURVE",
"955 467 OFFCURVE",
"1005 508 CURVE SMOOTH",
"1057 552 OFFCURVE",
"1091 605 OFFCURVE",
"1101 656 CURVE SMOOTH",
"1143 873 OFFCURVE",
"1343 1028 OFFCURVE",
"1566 1013 CURVE SMOOTH"
);
},
{
closed = 1;
nodes = (
"1724 3370 OFFCURVE",
"1986 3248 OFFCURVE",
"2156 3037 CURVE SMOOTH",
"2323 2827 OFFCURVE",
"2387 2547 OFFCURVE",
"2331 2269 CURVE SMOOTH",
"2287 2049 OFFCURVE",
"2084 1895 OFFCURVE",
"1860 1913 CURVE SMOOTH",
"1838 1915 LINE SMOOTH",
"1604 1944 OFFCURVE",
"1434 2153 OFFCURVE",
"1451 2389 CURVE SMOOTH",
"1454 2427 LINE",
"1459 2442 OFFCURVE",
"1460 2473 OFFCURVE",
"1460 2480 CURVE",
"1456 2480 OFFCURVE",
"1442 2480 OFFCURVE",
"1439 2480 CURVE SMOOTH",
"1195 2480 OFFCURVE",
"995 2680 OFFCURVE",
"994 2925 CURVE SMOOTH",
"995 3170 OFFCURVE",
"1194 3370 OFFCURVE",
"1439 3370 CURVE SMOOTH"
);
},
{
closed = 1;
nodes = (
"453 1011 LINE SMOOTH",
"688 983 OFFCURVE",
"860 773 OFFCURVE",
"843 537 CURVE SMOOTH",
"840 499 LINE",
"834 481 OFFCURVE",
"834 444 OFFCURVE",
"834 444 CURVE",
"834 444 OFFCURVE",
"839 445 OFFCURVE",
"855 445 CURVE SMOOTH",
"1100 445 OFFCURVE",
"1299 245 OFFCURVE",
"1299 0 CURVE SMOOTH",
"1299 -245 OFFCURVE",
"1099 -445 OFFCURVE",
"855 -445 CURVE SMOOTH",
"570 -445 OFFCURVE",
"308 -323 OFFCURVE",
"138 -111 CURVE SMOOTH",
"-29 98 OFFCURVE",
"-93 379 OFFCURVE",
"-37 657 CURVE SMOOTH",
"7 874 OFFCURVE",
"206 1028 OFFCURVE",
"427 1013 CURVE SMOOTH"
);
},
{
closed = 1;
nodes = (
"1942 2799 LINE SMOOTH",
"2180 2774 OFFCURVE",
"2355 2563 OFFCURVE",
"2338 2325 CURVE SMOOTH",
"2335 2290 LINE",
"1973 482 LINE SMOOTH",
"1931 264 OFFCURVE",
"1731 111 OFFCURVE",
"1508 125 CURVE SMOOTH",
"1487 127 LINE SMOOTH",
"1250 154 OFFCURVE",
"1076 365 OFFCURVE",
"1094 601 CURVE SMOOTH",
"1097 636 LINE",
"1458 2444 LINE SMOOTH",
"1502 2658 OFFCURVE",
"1698 2812 OFFCURVE",
"1916 2801 CURVE SMOOTH"
);
}
);
width = 2294;
}
);
unicode = 0062;
},
{
glyphname = p;
lastChange = "2021-02-03 07:47:43 +0000";
layers = (
{
layerId = master01;
paths = (
{
closed = 1;
nodes = (
"751 2367 LINE",
"754 2365 OFFCURVE",
"758 2361 OFFCURVE",
"758 2357 CURVE SMOOTH",
"758 2354 LINE",
"401 567 LINE SMOOTH",
"400 563 OFFCURVE",
"395 559 OFFCURVE",
"391 559 CURVE SMOOTH",
"388 559 LINE SMOOTH",
"384 560 OFFCURVE",
"380 564 OFFCURVE",
"380 569 CURVE SMOOTH",
"380 572 LINE",
"738 2358 LINE",
"738 2362 OFFCURVE",
"743 2366 OFFCURVE",
"747 2367 CURVE SMOOTH"
);
},
{
closed = 1;
nodes = (
"393 579 LINE SMOOTH",
"397 578 OFFCURVE",
"400 574 OFFCURVE",
"401 570 CURVE",
"400 566 LINE",
"287 -2 LINE SMOOTH",
"286 -6 OFFCURVE",
"282 -10 OFFCURVE",
"277 -10 CURVE SMOOTH",
"274 -10 LINE SMOOTH",
"270 -9 OFFCURVE",
"266 -4 OFFCURVE",
"266 0 CURVE SMOOTH",
"266 3 LINE",
"380 571 LINE SMOOTH",
"381 575 OFFCURVE",
"385 579 OFFCURVE",
"389 580 CURVE"
);
},
{
closed = 1;
nodes = (
"279 10 LINE SMOOTH",
"283 9 OFFCURVE",
"287 5 OFFCURVE",
"287 1 CURVE SMOOTH",
"287 -3 LINE",
"173 -571 LINE SMOOTH",
"172 -575 OFFCURVE",
"168 -579 OFFCURVE",
"163 -579 CURVE SMOOTH",
"160 -579 LINE SMOOTH",
"156 -578 OFFCURVE",
"153 -573 OFFCURVE",
"152 -569 CURVE",
"153 -566 LINE",
"266 2 LINE SMOOTH",
"267 6 OFFCURVE",
"271 10 OFFCURVE",
"275 11 CURVE"
);
},
{
closed = 1;
nodes = (
"166 -558 LINE",
"169 -560 OFFCURVE",
"173 -564 OFFCURVE",
"173 -568 CURVE SMOOTH",
"173 -571 LINE",
"-184 -2358 LINE SMOOTH",
"-185 -2362 OFFCURVE",
"-190 -2366 OFFCURVE",
"-194 -2366 CURVE SMOOTH",
"-197 -2366 LINE SMOOTH",
"-201 -2365 OFFCURVE",
"-205 -2361 OFFCURVE",
"-205 -2356 CURVE SMOOTH",
"-205 -2353 LINE",
"153 -567 LINE",
"153 -563 OFFCURVE",
"158 -559 OFFCURVE",
"162 -558 CURVE SMOOTH"
);
},
{
closed = 1;
nodes = (
"-192 -2346 LINE SMOOTH",
"-188 -2347 OFFCURVE",
"-185 -2351 OFFCURVE",
"-184 -2355 CURVE",
"-185 -2359 LINE",
"-298 -2927 LINE SMOOTH",
"-299 -2931 OFFCURVE",
"-303 -2935 OFFCURVE",
"-308 -2935 CURVE SMOOTH",
"-311 -2935 LINE SMOOTH",
"-315 -2934 OFFCURVE",
"-319 -2929 OFFCURVE",
"-319 -2925 CURVE SMOOTH",
"-319 -2922 LINE",
"-205 -2354 LINE SMOOTH",
"-204 -2350 OFFCURVE",
"-200 -2346 OFFCURVE",
"-196 -2345 CURVE"
);
},
{
closed = 1;
nodes = (
"1436 2936 OFFCURVE",
"1441 2931 OFFCURVE",
"1441 2925 CURVE SMOOTH",
"1441 2920 OFFCURVE",
"1436 2915 OFFCURVE",
"1430 2915 CURVE SMOOTH",
"1283 2915 OFFCURVE",
"1127 2855 OFFCURVE",
"1002 2751 CURVE SMOOTH",
"876 2646 OFFCURVE",
"788 2502 OFFCURVE",
"758 2354 CURVE SMOOTH",
"757 2350 OFFCURVE",
"753 2346 OFFCURVE",
"748 2346 CURVE SMOOTH",
"745 2346 LINE SMOOTH",
"741 2347 OFFCURVE",
"738 2352 OFFCURVE",
"737 2356 CURVE",
"738 2359 LINE SMOOTH",
"769 2513 OFFCURVE",
"858 2658 OFFCURVE",
"988 2767 CURVE SMOOTH",
"1119 2875 OFFCURVE",
"1276 2936 OFFCURVE",
"1430 2936 CURVE SMOOTH"
);
},
{
closed = 1;
nodes = (
"1531 579 LINE SMOOTH",
"1535 578 OFFCURVE",
"1538 574 OFFCURVE",
"1539 570 CURVE",
"1538 566 LINE SMOOTH",
"1507 413 OFFCURVE",
"1418 267 OFFCURVE",
"1288 159 CURVE SMOOTH",
"1157 50 OFFCURVE",
"999 -10 OFFCURVE",
"845 -10 CURVE SMOOTH",
"840 -10 OFFCURVE",
"835 -5 OFFCURVE",
"835 0 CURVE SMOOTH",
"835 6 OFFCURVE",
"840 11 OFFCURVE",
"845 11 CURVE SMOOTH",
"993 11 OFFCURVE",
"1149 70 OFFCURVE",
"1274 175 CURVE SMOOTH",
"1400 280 OFFCURVE",
"1488 423 OFFCURVE",
"1518 571 CURVE SMOOTH",
"1519 575 OFFCURVE",
"1523 579 OFFCURVE",
"1527 580 CURVE"
);
},
{
closed = 1;
nodes = (
"1585 2936 OFFCURVE",
"1720 2874 OFFCURVE",
"1808 2765 CURVE SMOOTH",
"1895 2656 OFFCURVE",
"1927 2509 OFFCURVE",
"1896 2354 CURVE SMOOTH",
"1895 2350 OFFCURVE",
"1891 2346 OFFCURVE",
"1886 2346 CURVE SMOOTH",
"1883 2346 LINE SMOOTH",
"1879 2347 OFFCURVE",
"1875 2352 OFFCURVE",
"1875 2356 CURVE SMOOTH",
"1875 2359 LINE",
"1905 2507 OFFCURVE",
"1874 2648 OFFCURVE",
"1791 2752 CURVE SMOOTH",
"1708 2856 OFFCURVE",
"1578 2915 OFFCURVE",
"1430 2915 CURVE SMOOTH",
"1425 2915 OFFCURVE",
"1420 2920 OFFCURVE",
"1420 2925 CURVE SMOOTH",
"1420 2931 OFFCURVE",
"1425 2936 OFFCURVE",
"1430 2936 CURVE SMOOTH"
);
},
{
closed = 1;
nodes = (
"393 579 LINE SMOOTH",
"397 578 OFFCURVE",
"400 574 OFFCURVE",
"401 570 CURVE",
"400 566 LINE SMOOTH",
"371 419 OFFCURVE",
"402 277 OFFCURVE",
"485 174 CURVE SMOOTH",
"568 69 OFFCURVE",
"698 11 OFFCURVE",
"845 11 CURVE SMOOTH",
"851 11 OFFCURVE",
"856 6 OFFCURVE",
"856 0 CURVE SMOOTH",
"856 -5 OFFCURVE",
"851 -10 OFFCURVE",
"845 -10 CURVE SMOOTH",
"691 -10 OFFCURVE",
"556 51 OFFCURVE",
"468 160 CURVE SMOOTH",
"381 270 OFFCURVE",
"349 417 OFFCURVE",
"380 571 CURVE SMOOTH",
"381 575 OFFCURVE",
"385 579 OFFCURVE",
"389 580 CURVE"
);
},
{
closed = 1;
nodes = (
"1888 2367 LINE",
"1892 2365 OFFCURVE",
"1896 2361 OFFCURVE",
"1896 2357 CURVE SMOOTH",
"1896 2354 LINE",
"1538 567 LINE",
"1538 563 OFFCURVE",
"1533 559 OFFCURVE",
"1529 559 CURVE SMOOTH",
"1525 559 LINE SMOOTH",
"1521 560 OFFCURVE",
"1518 564 OFFCURVE",
"1518 569 CURVE SMOOTH",
"1518 572 LINE",
"1875 2358 LINE SMOOTH",
"1876 2362 OFFCURVE",
"1880 2366 OFFCURVE",
"1884 2367 CURVE SMOOTH"
);
}
);
width = 2276;
},
{
layerId = "328E32EA-B50A-4570-BED2-89D75A472110";
paths = (
{
closed = 1;
nodes = (
"804 2799 LINE SMOOTH",
"1042 2774 OFFCURVE",
"1218 2562 OFFCURVE",
"1200 2325 CURVE SMOOTH",
"1197 2290 LINE",
"836 482 LINE SMOOTH",
"792 264 OFFCURVE",
"593 111 OFFCURVE",
"372 125 CURVE SMOOTH",
"349 127 LINE SMOOTH",
"113 154 OFFCURVE",
"-61 364 OFFCURVE",
"-44 601 CURVE SMOOTH",
"-41 636 LINE",
"321 2443 LINE SMOOTH",
"363 2658 OFFCURVE",
"560 2812 OFFCURVE",
"780 2801 CURVE SMOOTH"
);
},
{
closed = 1;
nodes = (
"453 1011 LINE SMOOTH",
"688 983 OFFCURVE",
"860 773 OFFCURVE",
"843 537 CURVE SMOOTH",
"840 503 LINE",
"722 -87 LINE SMOOTH",
"678 -305 OFFCURVE",
"479 -458 OFFCURVE",
"258 -444 CURVE SMOOTH",
"235 -442 LINE SMOOTH",
"-1 -415 OFFCURVE",
"-175 -205 OFFCURVE",
"-158 32 CURVE SMOOTH",
"-155 67 LINE",
"-37 657 LINE SMOOTH",
"7 874 OFFCURVE",
"206 1028 OFFCURVE",
"427 1013 CURVE SMOOTH"
);
},
{
closed = 1;
nodes = (
"338 442 LINE SMOOTH",
"573 415 OFFCURVE",
"747 204 OFFCURVE",
"729 -33 CURVE SMOOTH",
"726 -66 LINE",
"608 -657 LINE SMOOTH",
"563 -876 OFFCURVE",
"361 -1030 OFFCURVE",
"137 -1012 CURVE SMOOTH",
"115 -1010 LINE SMOOTH",
"-118 -980 OFFCURVE",
"-289 -771 OFFCURVE",
"-272 -536 CURVE SMOOTH",
"-269 -502 LINE",
"-151 89 LINE SMOOTH",
"-107 305 OFFCURVE",
"93 459 OFFCURVE",
"313 444 CURVE SMOOTH"
);
},
{
closed = 1;
nodes = (
"219 -126 LINE SMOOTH",
"457 -151 OFFCURVE",
"633 -363 OFFCURVE",
"615 -600 CURVE SMOOTH",
"612 -635 LINE",
"251 -2443 LINE SMOOTH",
"207 -2661 OFFCURVE",
"8 -2814 OFFCURVE",
"-213 -2800 CURVE SMOOTH",
"-236 -2798 LINE SMOOTH",
"-472 -2771 OFFCURVE",
"-646 -2561 OFFCURVE",
"-629 -2324 CURVE SMOOTH",
"-626 -2289 LINE",
"-264 -482 LINE SMOOTH",
"-222 -267 OFFCURVE",
"-25 -113 OFFCURVE",
"195 -124 CURVE SMOOTH"
);
},
{
closed = 1;
nodes = (
"-133 -1914 LINE SMOOTH",
"102 -1941 OFFCURVE",
"275 -2152 OFFCURVE",
"258 -2388 CURVE SMOOTH",
"255 -2422 LINE",
"137 -3012 LINE SMOOTH",
"93 -3230 OFFCURVE",
"-106 -3383 OFFCURVE",
"-327 -3369 CURVE SMOOTH",
"-350 -3367 LINE SMOOTH",
"-586 -3340 OFFCURVE",
"-760 -3130 OFFCURVE",
"-743 -2893 CURVE SMOOTH",
"-740 -2858 LINE",
"-622 -2268 LINE SMOOTH",
"-577 -2051 OFFCURVE",
"-379 -1897 OFFCURVE",
"-157 -1912 CURVE SMOOTH"
);
},
{
closed = 1;
nodes = (
"1685 3370 OFFCURVE",
"1884 3170 OFFCURVE",
"1884 2925 CURVE SMOOTH",
"1884 2680 OFFCURVE",
"1684 2480 OFFCURVE",
"1440 2480 CURVE SMOOTH",
"1381 2480 OFFCURVE",
"1311 2446 OFFCURVE",
"1251 2380 CURVE SMOOTH",
"1221 2345 OFFCURVE",
"1200 2306 OFFCURVE",
"1193 2269 CURVE SMOOTH",
"1149 2049 OFFCURVE",
"946 1895 OFFCURVE",
"722 1913 CURVE SMOOTH",
"699 1916 LINE SMOOTH",
"466 1946 OFFCURVE",
"296 2155 OFFCURVE",
"313 2390 CURVE SMOOTH",
"316 2421 LINE",
"361 2678 OFFCURVE",
"507 2923 OFFCURVE",
"719 3100 CURVE SMOOTH",
"925 3273 OFFCURVE",
"1185 3370 OFFCURVE",
"1440 3370 CURVE SMOOTH"
);
},
{
closed = 1;
nodes = (
"1590 1011 LINE SMOOTH",
"1825 982 OFFCURVE",
"1998 773 OFFCURVE",
"1981 537 CURVE SMOOTH",
"1978 505 LINE",
"1933 248 OFFCURVE",
"1786 1 OFFCURVE",
"1575 -175 CURVE SMOOTH",
"1369 -347 OFFCURVE",
"1109 -445 OFFCURVE",
"854 -445 CURVE SMOOTH",
"610 -445 OFFCURVE",
"410 -245 OFFCURVE",
"409 0 CURVE SMOOTH",
"410 245 OFFCURVE",
"609 445 OFFCURVE",
"854 445 CURVE SMOOTH",
"901 445 OFFCURVE",
"955 467 OFFCURVE",
"1005 508 CURVE SMOOTH",
"1057 552 OFFCURVE",
"1091 605 OFFCURVE",
"1101 656 CURVE SMOOTH",
"1143 873 OFFCURVE",
"1343 1028 OFFCURVE",
"1566 1013 CURVE SMOOTH"
);
},
{
closed = 1;
nodes = (
"1724 3370 OFFCURVE",
"1986 3248 OFFCURVE",
"2156 3037 CURVE SMOOTH",
"2323 2827 OFFCURVE",
"2387 2547 OFFCURVE",
"2331 2269 CURVE SMOOTH",
"2287 2049 OFFCURVE",
"2084 1895 OFFCURVE",
"1860 1913 CURVE SMOOTH",
"1838 1915 LINE SMOOTH",
"1604 1944 OFFCURVE",
"1434 2153 OFFCURVE",
"1451 2389 CURVE SMOOTH",
"1454 2427 LINE",
"1459 2442 OFFCURVE",
"1460 2473 OFFCURVE",
"1460 2480 CURVE",
"1456 2480 OFFCURVE",
"1442 2480 OFFCURVE",
"1439 2480 CURVE SMOOTH",
"1195 2480 OFFCURVE",
"995 2680 OFFCURVE",
"994 2925 CURVE SMOOTH",
"995 3170 OFFCURVE",
"1194 3370 OFFCURVE",
"1439 3370 CURVE SMOOTH"
);
},
{
closed = 1;
nodes = (
"453 1011 LINE SMOOTH",
"688 983 OFFCURVE",
"860 773 OFFCURVE",
"843 537 CURVE SMOOTH",
"840 499 LINE",
"834 481 OFFCURVE",
"834 444 OFFCURVE",
"834 444 CURVE",
"834 444 OFFCURVE",
"839 445 OFFCURVE",
"855 445 CURVE SMOOTH",
"1100 445 OFFCURVE",
"1299 245 OFFCURVE",
"1299 0 CURVE SMOOTH",
"1299 -245 OFFCURVE",
"1099 -445 OFFCURVE",
"855 -445 CURVE SMOOTH",
"570 -445 OFFCURVE",
"308 -323 OFFCURVE",
"138 -111 CURVE SMOOTH",
"-29 98 OFFCURVE",
"-93 379 OFFCURVE",
"-37 657 CURVE SMOOTH",
"7 874 OFFCURVE",
"206 1028 OFFCURVE",
"427 1013 CURVE SMOOTH"
);
},
{
closed = 1;
nodes = (
"1942 2799 LINE SMOOTH",
"2180 2774 OFFCURVE",
"2355 2563 OFFCURVE",
"2338 2325 CURVE SMOOTH",
"2335 2290 LINE",
"1973 482 LINE SMOOTH",
"1931 264 OFFCURVE",
"1731 111 OFFCURVE",
"1508 125 CURVE SMOOTH",
"1487 127 LINE SMOOTH",
"1250 154 OFFCURVE",
"1076 365 OFFCURVE",
"1094 601 CURVE SMOOTH",
"1097 636 LINE",
"1458 2444 LINE SMOOTH",
"1502 2658 OFFCURVE",
"1698 2812 OFFCURVE",
"1916 2801 CURVE SMOOTH"
);
}
);
width = 2294;
}
);
unicode = 0070;
},
{
glyphname = m;
lastChange = "2021-02-03 07:47:43 +0000";
layers = (
{
layerId = master01;
paths = (
{
closed = 1;
nodes = (
"751 2367 LINE",
"754 2365 OFFCURVE",
"758 2361 OFFCURVE",
"758 2357 CURVE SMOOTH",
"758 2354 LINE",
"401 567 LINE SMOOTH",
"400 563 OFFCURVE",
"395 559 OFFCURVE",
"391 559 CURVE SMOOTH",
"388 559 LINE SMOOTH",
"384 560 OFFCURVE",
"380 564 OFFCURVE",
"380 569 CURVE SMOOTH",
"380 572 LINE",
"738 2358 LINE",
"738 2362 OFFCURVE",
"743 2366 OFFCURVE",
"747 2367 CURVE SMOOTH"
);
},
{
closed = 1;
nodes = (
"393 579 LINE SMOOTH",
"397 578 OFFCURVE",
"400 574 OFFCURVE",
"401 570 CURVE",
"400 566 LINE",
"287 -2 LINE SMOOTH",
"286 -6 OFFCURVE",
"282 -10 OFFCURVE",
"277 -10 CURVE SMOOTH",
"274 -10 LINE SMOOTH",
"270 -9 OFFCURVE",
"266 -4 OFFCURVE",
"266 0 CURVE SMOOTH",
"266 3 LINE",
"380 571 LINE SMOOTH",
"381 575 OFFCURVE",
"385 579 OFFCURVE",
"389 580 CURVE"
);
},
{
closed = 1;
nodes = (
"1436 2936 OFFCURVE",
"1441 2931 OFFCURVE",
"1441 2925 CURVE SMOOTH",
"1441 2920 OFFCURVE",
"1436 2915 OFFCURVE",
"1430 2915 CURVE SMOOTH",
"1283 2915 OFFCURVE",
"1127 2855 OFFCURVE",
"1002 2751 CURVE SMOOTH",
"876 2646 OFFCURVE",
"788 2502 OFFCURVE",
"758 2354 CURVE SMOOTH",
"757 2350 OFFCURVE",
"753 2346 OFFCURVE",
"748 2346 CURVE SMOOTH",
"745 2346 LINE SMOOTH",
"741 2347 OFFCURVE",
"738 2352 OFFCURVE",
"737 2356 CURVE",
"738 2359 LINE SMOOTH",
"769 2513 OFFCURVE",
"858 2658 OFFCURVE",
"988 2767 CURVE SMOOTH",
"1119 2875 OFFCURVE",
"1276 2936 OFFCURVE",
"1430 2936 CURVE SMOOTH"
);
},
{
closed = 1;
nodes = (
"1585 2936 OFFCURVE",
"1720 2874 OFFCURVE",
"1808 2765 CURVE SMOOTH",
"1895 2656 OFFCURVE",
"1927 2509 OFFCURVE",
"1896 2354 CURVE SMOOTH",
"1895 2350 OFFCURVE",
"1891 2346 OFFCURVE",
"1886 2346 CURVE SMOOTH",
"1883 2346 LINE SMOOTH",
"1879 2347 OFFCURVE",
"1875 2352 OFFCURVE",
"1875 2356 CURVE SMOOTH",
"1875 2359 LINE",
"1905 2507 OFFCURVE",
"1874 2648 OFFCURVE",
"1791 2752 CURVE SMOOTH",
"1708 2856 OFFCURVE",
"1578 2915 OFFCURVE",
"1430 2915 CURVE SMOOTH",
"1425 2915 OFFCURVE",
"1420 2920 OFFCURVE",
"1420 2925 CURVE SMOOTH",
"1420 2931 OFFCURVE",
"1425 2936 OFFCURVE",
"1430 2936 CURVE SMOOTH"
);
},
{
closed = 1;
nodes = (
"1888 2367 LINE",
"1892 2365 OFFCURVE",
"1896 2361 OFFCURVE",
"1896 2357 CURVE SMOOTH",
"1896 2354 LINE",
"1538 567 LINE",
"1538 563 OFFCURVE",
"1533 559 OFFCURVE",
"1529 559 CURVE SMOOTH",
"1525 559 LINE SMOOTH",
"1521 560 OFFCURVE",
"1518 564 OFFCURVE",
"1518 569 CURVE SMOOTH",
"1518 572 LINE",
"1875 2358 LINE SMOOTH",
"1876 2362 OFFCURVE",
"1880 2366 OFFCURVE",
"1884 2367 CURVE SMOOTH"
);
},
{
closed = 1;
nodes = (
"1531 579 LINE SMOOTH",
"1535 578 OFFCURVE",
"1538 574 OFFCURVE",
"1539 570 CURVE",
"1538 566 LINE",
"1425 -2 LINE SMOOTH",
"1424 -6 OFFCURVE",
"1419 -10 OFFCURVE",
"1415 -10 CURVE SMOOTH",
"1412 -10 LINE SMOOTH",
"1408 -9 OFFCURVE",
"1404 -4 OFFCURVE",
"1404 0 CURVE SMOOTH",
"1404 3 LINE",
"1518 571 LINE SMOOTH",
"1519 575 OFFCURVE",
"1523 579 OFFCURVE",
"1527 580 CURVE"
);
},
{
closed = 1;
nodes = (
"2574 2936 OFFCURVE",
"2579 2931 OFFCURVE",
"2579 2925 CURVE SMOOTH",
"2579 2920 OFFCURVE",
"2574 2915 OFFCURVE",
"2568 2915 CURVE SMOOTH",
"2420 2915 OFFCURVE",
"2265 2855 OFFCURVE",
"2139 2751 CURVE SMOOTH",
"2014 2646 OFFCURVE",
"1925 2502 OFFCURVE",
"1896 2354 CURVE SMOOTH",
"1895 2350 OFFCURVE",
"1891 2346 OFFCURVE",
"1886 2346 CURVE SMOOTH",
"1883 2346 LINE SMOOTH",
"1879 2347 OFFCURVE",
"1875 2352 OFFCURVE",
"1875 2356 CURVE SMOOTH",
"1875 2359 LINE",
"1906 2513 OFFCURVE",
"1996 2658 OFFCURVE",
"2126 2767 CURVE SMOOTH",
"2256 2875 OFFCURVE",
"2414 2936 OFFCURVE",
"2568 2936 CURVE SMOOTH"
);
},
{
closed = 1;
nodes = (
"2723 2936 OFFCURVE",
"2858 2874 OFFCURVE",
"2945 2765 CURVE SMOOTH",
"3033 2656 OFFCURVE",
"3065 2509 OFFCURVE",
"3034 2354 CURVE SMOOTH",
"3033 2350 OFFCURVE",
"3028 2346 OFFCURVE",
"3024 2346 CURVE SMOOTH",
"3021 2346 LINE SMOOTH",
"3017 2347 OFFCURVE",
"3013 2352 OFFCURVE",
"3013 2356 CURVE SMOOTH",
"3013 2359 LINE",
"3042 2507 OFFCURVE",
"3012 2648 OFFCURVE",
"2929 2752 CURVE SMOOTH",
"2846 2856 OFFCURVE",
"2716 2915 OFFCURVE",
"2568 2915 CURVE SMOOTH",
"2562 2915 OFFCURVE",
"2558 2920 OFFCURVE",
"2558 2925 CURVE SMOOTH",
"2558 2931 OFFCURVE",
"2562 2936 OFFCURVE",
"2568 2936 CURVE SMOOTH"
);
},
{
closed = 1;
nodes = (
"3026 2367 LINE",
"3030 2365 OFFCURVE",
"3033 2361 OFFCURVE",
"3034 2357 CURVE",
"3033 2354 LINE",
"2676 567 LINE SMOOTH",
"2675 563 OFFCURVE",
"2671 559 OFFCURVE",
"2667 559 CURVE SMOOTH",
"2663 559 LINE SMOOTH",
"2659 560 OFFCURVE",
"2656 564 OFFCURVE",
"2655 569 CURVE",
"2656 572 LINE",
"3013 2358 LINE SMOOTH",
"3014 2362 OFFCURVE",
"3018 2366 OFFCURVE",
"3022 2367 CURVE SMOOTH"
);
},
{
closed = 1;
nodes = (
"2669 579 LINE SMOOTH",
"2673 578 OFFCURVE",
"2676 574 OFFCURVE",
"2676 570 CURVE SMOOTH",
"2676 566 LINE",
"2562 -2 LINE",
"2562 -6 OFFCURVE",
"2557 -10 OFFCURVE",
"2553 -10 CURVE SMOOTH",
"2549 -10 LINE SMOOTH",
"2545 -9 OFFCURVE",
"2542 -4 OFFCURVE",
"2542 0 CURVE SMOOTH",
"2542 3 LINE",
"2656 571 LINE",
"2656 575 OFFCURVE",
"2661 579 OFFCURVE",
"2665 580 CURVE"
);
}
);
width = 3414;
},
{
layerId = "328E32EA-B50A-4570-BED2-89D75A472110";
paths = (
{
closed = 1;
nodes = (
"804 2799 LINE SMOOTH",
"1042 2774 OFFCURVE",
"1218 2562 OFFCURVE",
"1200 2325 CURVE SMOOTH",
"1197 2290 LINE",
"836 482 LINE SMOOTH",
"792 264 OFFCURVE",
"593 111 OFFCURVE",
"372 125 CURVE SMOOTH",
"349 127 LINE SMOOTH",
"113 154 OFFCURVE",
"-61 364 OFFCURVE",
"-44 601 CURVE SMOOTH",
"-41 636 LINE",
"321 2443 LINE SMOOTH",
"363 2658 OFFCURVE",
"560 2812 OFFCURVE",
"780 2801 CURVE SMOOTH"
);
},
{
closed = 1;
nodes = (
"453 1011 LINE SMOOTH",
"688 983 OFFCURVE",
"860 773 OFFCURVE",
"843 537 CURVE SMOOTH",
"840 503 LINE",
"722 -87 LINE SMOOTH",
"678 -305 OFFCURVE",
"479 -458 OFFCURVE",
"258 -444 CURVE SMOOTH",
"235 -442 LINE SMOOTH",
"-1 -415 OFFCURVE",
"-175 -205 OFFCURVE",
"-158 32 CURVE SMOOTH",
"-155 67 LINE",
"-37 657 LINE SMOOTH",
"7 874 OFFCURVE",
"206 1028 OFFCURVE",
"427 1013 CURVE SMOOTH"
);
},
{
closed = 1;
nodes = (
"1685 3370 OFFCURVE",
"1884 3170 OFFCURVE",
"1884 2925 CURVE SMOOTH",
"1884 2680 OFFCURVE",
"1684 2480 OFFCURVE",
"1440 2480 CURVE SMOOTH",
"1381 2480 OFFCURVE",
"1311 2446 OFFCURVE",
"1251 2380 CURVE SMOOTH",
"1221 2345 OFFCURVE",
"1200 2306 OFFCURVE",
"1193 2269 CURVE SMOOTH",
"1149 2049 OFFCURVE",
"946 1895 OFFCURVE",
"722 1913 CURVE SMOOTH",
"699 1916 LINE SMOOTH",
"466 1946 OFFCURVE",
"296 2155 OFFCURVE",
"313 2390 CURVE SMOOTH",
"316 2421 LINE",
"361 2678 OFFCURVE",
"507 2923 OFFCURVE",
"719 3100 CURVE SMOOTH",
"925 3273 OFFCURVE",
"1185 3370 OFFCURVE",
"1440 3370 CURVE SMOOTH"
);
},
{
closed = 1;
nodes = (
"1724 3370 OFFCURVE",
"1986 3248 OFFCURVE",
"2156 3037 CURVE SMOOTH",
"2323 2827 OFFCURVE",
"2387 2547 OFFCURVE",
"2331 2269 CURVE SMOOTH",
"2287 2049 OFFCURVE",
"2084 1895 OFFCURVE",
"1860 1913 CURVE SMOOTH",
"1838 1915 LINE SMOOTH",
"1604 1944 OFFCURVE",
"1434 2153 OFFCURVE",
"1451 2389 CURVE SMOOTH",
"1454 2427 LINE",
"1459 2442 OFFCURVE",
"1460 2473 OFFCURVE",
"1460 2480 CURVE",
"1456 2480 OFFCURVE",
"1442 2480 OFFCURVE",
"1439 2480 CURVE SMOOTH",
"1195 2480 OFFCURVE",
"995 2680 OFFCURVE",
"994 2925 CURVE SMOOTH",
"995 3170 OFFCURVE",
"1194 3370 OFFCURVE",
"1439 3370 CURVE SMOOTH"
);
},
{
closed = 1;
nodes = (
"1942 2799 LINE SMOOTH",
"2180 2774 OFFCURVE",
"2355 2563 OFFCURVE",
"2338 2325 CURVE SMOOTH",
"2335 2290 LINE",
"1973 482 LINE SMOOTH",
"1931 264 OFFCURVE",
"1731 111 OFFCURVE",
"1508 125 CURVE SMOOTH",
"1487 127 LINE SMOOTH",
"1250 154 OFFCURVE",
"1076 365 OFFCURVE",
"1094 601 CURVE SMOOTH",
"1097 636 LINE",
"1458 2444 LINE SMOOTH",
"1502 2658 OFFCURVE",
"1698 2812 OFFCURVE",
"1916 2801 CURVE SMOOTH"
);
},
{
closed = 1;
nodes = (
"1590 1011 LINE SMOOTH",
"1827 982 OFFCURVE",
"2001 770 OFFCURVE",
"1981 531 CURVE",
"1976 498 LINE",
"1860 -88 LINE SMOOTH",
"1815 -305 OFFCURVE",
"1615 -458 OFFCURVE",
"1394 -444 CURVE SMOOTH",
"1373 -442 LINE SMOOTH",
"1137 -415 OFFCURVE",
"963 -204 OFFCURVE",
"980 32 CURVE SMOOTH",
"983 67 LINE",
"1101 656 LINE SMOOTH",
"1143 873 OFFCURVE",
"1343 1028 OFFCURVE",
"1566 1013 CURVE SMOOTH"
);
},
{
closed = 1;
nodes = (
"2823 3370 OFFCURVE",
"3022 3170 OFFCURVE",
"3022 2925 CURVE SMOOTH",
"3022 2680 OFFCURVE",
"2822 2480 OFFCURVE",
"2577 2480 CURVE SMOOTH",
"2531 2480 OFFCURVE",
"2476 2458 OFFCURVE",
"2425 2416 CURVE SMOOTH",
"2375 2374 OFFCURVE",
"2341 2321 OFFCURVE",
"2331 2269 CURVE SMOOTH",
"2287 2049 OFFCURVE",
"2084 1895 OFFCURVE",
"1860 1913 CURVE SMOOTH",
"1838 1915 LINE SMOOTH",
"1604 1944 OFFCURVE",
"1434 2153 OFFCURVE",
"1451 2390 CURVE SMOOTH",
"1454 2421 LINE",
"1499 2679 OFFCURVE",
"1645 2924 OFFCURVE",
"1857 3101 CURVE SMOOTH",
"2063 3273 OFFCURVE",
"2322 3370 OFFCURVE",
"2577 3370 CURVE SMOOTH"
);
},
{
closed = 1;
nodes = (
"2861 3370 OFFCURVE",
"3125 3248 OFFCURVE",
"3293 3037 CURVE SMOOTH",
"3461 2827 OFFCURVE",
"3525 2547 OFFCURVE",
"3469 2268 CURVE SMOOTH",
"3423 2049 OFFCURVE",
"3220 1895 OFFCURVE",
"2996 1913 CURVE SMOOTH",
"2974 1916 LINE SMOOTH",
"2742 1946 OFFCURVE",
"2571 2155 OFFCURVE",
"2589 2388 CURVE SMOOTH",
"2592 2426 LINE",
"2597 2442 OFFCURVE",
"2598 2473 OFFCURVE",
"2598 2480 CURVE",
"2594 2480 OFFCURVE",
"2580 2480 OFFCURVE",
"2577 2480 CURVE SMOOTH",
"2331 2480 OFFCURVE",
"2132 2680 OFFCURVE",
"2132 2925 CURVE SMOOTH",
"2132 3171 OFFCURVE",
"2332 3370 OFFCURVE",
"2577 3370 CURVE SMOOTH"
);
},
{
closed = 1;
nodes = (
"3079 2799 LINE SMOOTH",
"3317 2774 OFFCURVE",
"3493 2563 OFFCURVE",
"3476 2324 CURVE SMOOTH",
"3473 2290 LINE",
"3111 482 LINE SMOOTH",
"3067 264 OFFCURVE",
"2868 111 OFFCURVE",
"2646 125 CURVE SMOOTH",
"2625 127 LINE SMOOTH",
"2387 154 OFFCURVE",
"2212 367 OFFCURVE",
"2231 606 CURVE",
"2236 640 LINE",
"2596 2443 LINE SMOOTH",
"2638 2658 OFFCURVE",
"2836 2812 OFFCURVE",
"3055 2801 CURVE SMOOTH"
);
},
{
closed = 1;
nodes = (
"2728 1011 LINE SMOOTH",
"2964 982 OFFCURVE",
"3136 773 OFFCURVE",
"3118 536 CURVE SMOOTH",
"3115 503 LINE",
"2997 -87 LINE SMOOTH",
"2953 -305 OFFCURVE",
"2754 -458 OFFCURVE",
"2532 -444 CURVE SMOOTH",
"2511 -442 LINE SMOOTH",
"2273 -415 OFFCURVE",
"2100 -204 OFFCURVE",
"2118 32 CURVE SMOOTH",
"2121 67 LINE",
"2239 656 LINE SMOOTH",
"2281 873 OFFCURVE",
"2481 1028 OFFCURVE",
"2704 1013 CURVE SMOOTH"
);
}
);
width = 3432;
}
);
unicode = 006D;
},
{
glyphname = w;
lastChange = "2021-02-03 07:47:43 +0000";
layers = (
{
layerId = master01;
paths = (
{
closed = 1;
nodes = (
"864 2935 LINE SMOOTH",
"868 2934 OFFCURVE",
"872 2930 OFFCURVE",
"872 2926 CURVE SMOOTH",
"872 2922 LINE",
"758 2354 LINE SMOOTH",
"757 2350 OFFCURVE",
"753 2346 OFFCURVE",
"748 2346 CURVE SMOOTH",
"745 2346 LINE SMOOTH",
"741 2347 OFFCURVE",
"738 2352 OFFCURVE",
"737 2356 CURVE",
"738 2359 LINE",
"851 2927 LINE SMOOTH",
"852 2931 OFFCURVE",
"856 2935 OFFCURVE",
"860 2936 CURVE"
);
},
{
closed = 1;
nodes = (
"751 2367 LINE",
"754 2365 OFFCURVE",
"758 2361 OFFCURVE",
"758 2357 CURVE SMOOTH",
"758 2354 LINE",
"401 567 LINE SMOOTH",
"400 563 OFFCURVE",
"395 559 OFFCURVE",
"391 559 CURVE SMOOTH",
"388 559 LINE SMOOTH",
"384 560 OFFCURVE",
"380 564 OFFCURVE",
"380 569 CURVE SMOOTH",
"380 572 LINE",
"738 2358 LINE",
"738 2362 OFFCURVE",
"743 2366 OFFCURVE",
"747 2367 CURVE SMOOTH"
);
},
{
closed = 1;
nodes = (
"1531 579 LINE SMOOTH",
"1535 578 OFFCURVE",
"1538 574 OFFCURVE",
"1539 570 CURVE",
"1538 566 LINE SMOOTH",
"1507 413 OFFCURVE",
"1418 267 OFFCURVE",
"1288 159 CURVE SMOOTH",
"1157 50 OFFCURVE",
"999 -10 OFFCURVE",
"845 -10 CURVE SMOOTH",
"840 -10 OFFCURVE",
"835 -5 OFFCURVE",
"835 0 CURVE SMOOTH",
"835 6 OFFCURVE",
"840 11 OFFCURVE",
"845 11 CURVE SMOOTH",
"993 11 OFFCURVE",
"1149 70 OFFCURVE",
"1274 175 CURVE SMOOTH",
"1400 280 OFFCURVE",
"1488 423 OFFCURVE",
"1518 571 CURVE SMOOTH",
"1519 575 OFFCURVE",
"1523 579 OFFCURVE",
"1527 580 CURVE"
);
},
{
closed = 1;
nodes = (
"393 579 LINE SMOOTH",
"397 578 OFFCURVE",
"400 574 OFFCURVE",
"401 570 CURVE",
"400 566 LINE SMOOTH",
"371 419 OFFCURVE",
"402 277 OFFCURVE",
"485 174 CURVE SMOOTH",
"568 69 OFFCURVE",
"698 11 OFFCURVE",
"845 11 CURVE SMOOTH",
"851 11 OFFCURVE",
"856 6 OFFCURVE",
"856 0 CURVE SMOOTH",
"856 -5 OFFCURVE",
"851 -10 OFFCURVE",
"845 -10 CURVE SMOOTH",
"691 -10 OFFCURVE",
"556 51 OFFCURVE",
"468 160 CURVE SMOOTH",
"381 270 OFFCURVE",
"349 417 OFFCURVE",
"380 571 CURVE SMOOTH",
"381 575 OFFCURVE",
"385 579 OFFCURVE",
"389 580 CURVE"
);
},
{
closed = 1;
nodes = (
"2002 2935 LINE SMOOTH",
"2006 2934 OFFCURVE",
"2009 2930 OFFCURVE",
"2010 2926 CURVE",
"2009 2922 LINE",
"1896 2354 LINE SMOOTH",
"1895 2350 OFFCURVE",
"1891 2346 OFFCURVE",
"1886 2346 CURVE SMOOTH",
"1883 2346 LINE SMOOTH",
"1879 2347 OFFCURVE",
"1875 2352 OFFCURVE",
"1875 2356 CURVE SMOOTH",
"1875 2359 LINE",
"1989 2927 LINE SMOOTH",
"1990 2931 OFFCURVE",
"1994 2935 OFFCURVE",
"1998 2936 CURVE"
);
},
{
closed = 1;
nodes = (
"1888 2367 LINE",
"1892 2365 OFFCURVE",
"1896 2361 OFFCURVE",
"1896 2357 CURVE SMOOTH",
"1896 2354 LINE",
"1538 567 LINE",
"1538 563 OFFCURVE",
"1533 559 OFFCURVE",
"1529 559 CURVE SMOOTH",
"1525 559 LINE SMOOTH",
"1521 560 OFFCURVE",
"1518 564 OFFCURVE",
"1518 569 CURVE SMOOTH",
"1518 572 LINE",
"1875 2358 LINE SMOOTH",
"1876 2362 OFFCURVE",
"1880 2366 OFFCURVE",
"1884 2367 CURVE SMOOTH"
);
},
{
closed = 1;
nodes = (
"2669 579 LINE SMOOTH",
"2673 578 OFFCURVE",
"2676 574 OFFCURVE",
"2676 570 CURVE SMOOTH",
"2676 566 LINE",
"2645 413 OFFCURVE",
"2556 267 OFFCURVE",
"2425 159 CURVE SMOOTH",
"2295 50 OFFCURVE",
"2137 -10 OFFCURVE",
"1983 -10 CURVE SMOOTH",
"1977 -10 OFFCURVE",
"1973 -5 OFFCURVE",
"1973 0 CURVE SMOOTH",
"1973 6 OFFCURVE",
"1977 11 OFFCURVE",
"1983 11 CURVE SMOOTH",
"2131 11 OFFCURVE",
"2287 70 OFFCURVE",
"2412 175 CURVE SMOOTH",
"2538 280 OFFCURVE",
"2626 423 OFFCURVE",
"2656 571 CURVE",
"2656 575 OFFCURVE",
"2661 579 OFFCURVE",
"2665 580 CURVE"
);
},
{
closed = 1;
nodes = (
"1531 579 LINE SMOOTH",
"1535 578 OFFCURVE",
"1538 574 OFFCURVE",
"1539 570 CURVE",
"1538 566 LINE SMOOTH",
"1509 419 OFFCURVE",
"1539 277 OFFCURVE",
"1622 174 CURVE SMOOTH",
"1706 69 OFFCURVE",
"1836 11 OFFCURVE",
"1983 11 CURVE SMOOTH",
"1989 11 OFFCURVE",
"1994 6 OFFCURVE",
"1994 0 CURVE SMOOTH",
"1994 -5 OFFCURVE",
"1989 -10 OFFCURVE",
"1983 -10 CURVE SMOOTH",
"1829 -10 OFFCURVE",
"1693 51 OFFCURVE",
"1606 160 CURVE SMOOTH",
"1519 270 OFFCURVE",
"1487 417 OFFCURVE",
"1518 571 CURVE SMOOTH",
"1519 575 OFFCURVE",
"1523 579 OFFCURVE",
"1527 580 CURVE"
);
},
{
closed = 1;
nodes = (
"3140 2935 LINE SMOOTH",
"3144 2934 OFFCURVE",
"3147 2930 OFFCURVE",
"3148 2926 CURVE",
"3147 2922 LINE",
"3034 2354 LINE SMOOTH",
"3033 2350 OFFCURVE",
"3028 2346 OFFCURVE",
"3024 2346 CURVE SMOOTH",
"3021 2346 LINE SMOOTH",
"3017 2347 OFFCURVE",
"3013 2352 OFFCURVE",
"3013 2356 CURVE SMOOTH",
"3013 2359 LINE",
"3127 2927 LINE SMOOTH",
"3128 2931 OFFCURVE",
"3132 2935 OFFCURVE",
"3136 2936 CURVE"
);
},
{
closed = 1;
nodes = (
"3026 2367 LINE",
"3030 2365 OFFCURVE",
"3033 2361 OFFCURVE",
"3034 2357 CURVE",
"3033 2354 LINE",
"2676 567 LINE SMOOTH",
"2675 563 OFFCURVE",
"2671 559 OFFCURVE",
"2667 559 CURVE SMOOTH",
"2663 559 LINE SMOOTH",
"2659 560 OFFCURVE",
"2656 564 OFFCURVE",
"2655 569 CURVE",
"2656 572 LINE",
"3013 2358 LINE SMOOTH",
"3014 2362 OFFCURVE",
"3018 2366 OFFCURVE",
"3022 2367 CURVE SMOOTH"
);
}
);
width = 3414;
},
{
layerId = "328E32EA-B50A-4570-BED2-89D75A472110";
paths = (
{
closed = 1;
nodes = (
"923 3367 LINE SMOOTH",
"1158 3340 OFFCURVE",
"1332 3129 OFFCURVE",
"1314 2892 CURVE SMOOTH",
"1311 2859 LINE",
"1193 2268 LINE SMOOTH",
"1148 2049 OFFCURVE",
"946 1895 OFFCURVE",
"722 1913 CURVE SMOOTH",
"699 1916 LINE SMOOTH",
"466 1946 OFFCURVE",
"296 2154 OFFCURVE",
"313 2389 CURVE SMOOTH",
"316 2423 LINE",
"434 3014 LINE SMOOTH",
"478 3230 OFFCURVE",
"678 3384 OFFCURVE",
"898 3369 CURVE SMOOTH"
);
},
{
closed = 1;
nodes = (
"804 2799 LINE SMOOTH",
"1042 2774 OFFCURVE",
"1218 2562 OFFCURVE",
"1200 2325 CURVE SMOOTH",
"1197 2290 LINE",
"836 482 LINE SMOOTH",
"792 264 OFFCURVE",
"593 111 OFFCURVE",
"372 125 CURVE SMOOTH",
"349 127 LINE SMOOTH",
"113 154 OFFCURVE",
"-61 364 OFFCURVE",
"-44 601 CURVE SMOOTH",
"-41 636 LINE",
"321 2443 LINE SMOOTH",
"363 2658 OFFCURVE",
"560 2812 OFFCURVE",
"780 2801 CURVE SMOOTH"
);
},
{
closed = 1;
nodes = (
"1590 1011 LINE SMOOTH",
"1825 982 OFFCURVE",
"1998 773 OFFCURVE",
"1981 537 CURVE SMOOTH",
"1978 505 LINE",
"1933 248 OFFCURVE",
"1786 1 OFFCURVE",
"1575 -175 CURVE SMOOTH",
"1369 -347 OFFCURVE",
"1109 -445 OFFCURVE",
"854 -445 CURVE SMOOTH",
"610 -445 OFFCURVE",
"410 -245 OFFCURVE",
"409 0 CURVE SMOOTH",
"410 245 OFFCURVE",
"609 445 OFFCURVE",
"854 445 CURVE SMOOTH",
"901 445 OFFCURVE",
"955 467 OFFCURVE",
"1005 508 CURVE SMOOTH",
"1057 552 OFFCURVE",
"1091 605 OFFCURVE",
"1101 656 CURVE SMOOTH",
"1143 873 OFFCURVE",
"1343 1028 OFFCURVE",
"1566 1013 CURVE SMOOTH"
);
},
{
closed = 1;
nodes = (
"453 1011 LINE SMOOTH",
"688 983 OFFCURVE",
"860 773 OFFCURVE",
"843 537 CURVE SMOOTH",
"840 499 LINE",
"834 481 OFFCURVE",
"834 444 OFFCURVE",
"834 444 CURVE",
"834 444 OFFCURVE",
"839 445 OFFCURVE",
"855 445 CURVE SMOOTH",
"1100 445 OFFCURVE",
"1299 245 OFFCURVE",
"1299 0 CURVE SMOOTH",
"1299 -245 OFFCURVE",
"1099 -445 OFFCURVE",
"855 -445 CURVE SMOOTH",
"570 -445 OFFCURVE",
"308 -323 OFFCURVE",
"138 -111 CURVE SMOOTH",
"-29 98 OFFCURVE",
"-93 379 OFFCURVE",
"-37 657 CURVE SMOOTH",
"7 874 OFFCURVE",
"206 1028 OFFCURVE",
"427 1013 CURVE SMOOTH"
);
},
{
closed = 1;
nodes = (
"2062 3367 LINE SMOOTH",
"2297 3339 OFFCURVE",
"2469 3129 OFFCURVE",
"2452 2893 CURVE SMOOTH",
"2449 2859 LINE",
"2331 2269 LINE SMOOTH",
"2287 2049 OFFCURVE",
"2084 1895 OFFCURVE",
"1860 1913 CURVE SMOOTH",
"1838 1915 LINE SMOOTH",
"1604 1944 OFFCURVE",
"1434 2153 OFFCURVE",
"1451 2389 CURVE SMOOTH",
"1454 2423 LINE",
"1572 3014 LINE SMOOTH",
"1616 3230 OFFCURVE",
"1815 3384 OFFCURVE",
"2036 3369 CURVE SMOOTH"
);
},
{
closed = 1;
nodes = (
"1942 2799 LINE SMOOTH",
"2180 2774 OFFCURVE",
"2355 2563 OFFCURVE",
"2338 2325 CURVE SMOOTH",
"2335 2290 LINE",
"1973 482 LINE SMOOTH",
"1931 264 OFFCURVE",
"1731 111 OFFCURVE",
"1508 125 CURVE SMOOTH",
"1487 127 LINE SMOOTH",
"1250 154 OFFCURVE",
"1076 365 OFFCURVE",
"1094 601 CURVE SMOOTH",
"1097 636 LINE",
"1458 2444 LINE SMOOTH",
"1502 2658 OFFCURVE",
"1698 2812 OFFCURVE",
"1916 2801 CURVE SMOOTH"
);
},
{
closed = 1;
nodes = (
"2728 1011 LINE SMOOTH",
"2964 982 OFFCURVE",
"3136 773 OFFCURVE",
"3118 536 CURVE SMOOTH",
"3115 505 LINE",
"3070 247 OFFCURVE",
"2923 0 OFFCURVE",
"2713 -175 CURVE SMOOTH",
"2505 -348 OFFCURVE",
"2246 -445 OFFCURVE",
"1992 -445 CURVE SMOOTH",
"1746 -445 OFFCURVE",
"1547 -245 OFFCURVE",
"1547 0 CURVE SMOOTH",
"1547 246 OFFCURVE",
"1747 445 OFFCURVE",
"1992 445 CURVE SMOOTH",
"2039 445 OFFCURVE",
"2093 467 OFFCURVE",
"2143 508 CURVE SMOOTH",
"2195 552 OFFCURVE",
"2229 605 OFFCURVE",
"2239 656 CURVE SMOOTH",
"2281 873 OFFCURVE",
"2481 1028 OFFCURVE",
"2704 1013 CURVE SMOOTH"
);
},
{
closed = 1;
nodes = (
"1590 1011 LINE SMOOTH",
"1827 982 OFFCURVE",
"2001 770 OFFCURVE",
"1981 531 CURVE",
"1976 497 LINE SMOOTH",
"1974 489 OFFCURVE",
"1970 447 OFFCURVE",
"1971 445 CURVE SMOOTH",
"1972 444 OFFCURVE",
"1976 445 OFFCURVE",
"1992 445 CURVE SMOOTH",
"2238 445 OFFCURVE",
"2437 245 OFFCURVE",
"2437 0 CURVE SMOOTH",
"2437 -245 OFFCURVE",
"2237 -445 OFFCURVE",
"1992 -445 CURVE SMOOTH",
"1708 -445 OFFCURVE",
"1445 -323 OFFCURVE",
"1276 -111 CURVE SMOOTH",
"1109 97 OFFCURVE",
"1045 378 OFFCURVE",
"1101 656 CURVE SMOOTH",
"1143 873 OFFCURVE",
"1343 1028 OFFCURVE",
"1566 1013 CURVE SMOOTH"
);
},
{
closed = 1;
nodes = (
"3199 3367 LINE SMOOTH",
"3436 3338 OFFCURVE",
"3610 3127 OFFCURVE",
"3590 2887 CURVE",
"3585 2854 LINE",
"3469 2268 LINE SMOOTH",
"3424 2049 OFFCURVE",
"3220 1895 OFFCURVE",
"2996 1913 CURVE SMOOTH",
"2974 1916 LINE SMOOTH",
"2742 1946 OFFCURVE",
"2571 2155 OFFCURVE",
"2589 2388 CURVE SMOOTH",
"2592 2423 LINE",
"2710 3013 LINE SMOOTH",
"2753 3230 OFFCURVE",
"2953 3384 OFFCURVE",
"3175 3369 CURVE SMOOTH"
);
},
{
closed = 1;
nodes = (
"3079 2799 LINE SMOOTH",
"3317 2774 OFFCURVE",
"3493 2563 OFFCURVE",
"3476 2324 CURVE SMOOTH",
"3473 2290 LINE",
"3111 482 LINE SMOOTH",
"3067 264 OFFCURVE",
"2868 111 OFFCURVE",
"2646 125 CURVE SMOOTH",
"2625 127 LINE SMOOTH",
"2387 154 OFFCURVE",
"2212 367 OFFCURVE",
"2231 606 CURVE",
"2236 640 LINE",
"2596 2443 LINE SMOOTH",
"2638 2658 OFFCURVE",
"2836 2812 OFFCURVE",
"3055 2801 CURVE SMOOTH"
);
}
);
width = 3432;
}
);
unicode = 0077;
},
{
glyphname = j;
lastChange = "2021-02-03 07:47:43 +0000";
layers = (
{
layerId = master01;
paths = (
{
closed = 1;
nodes = (
"-191 -2346 LINE SMOOTH",
"-187 -2347 OFFCURVE",
"-184 -2351 OFFCURVE",
"-183 -2355 CURVE",
"-184 -2359 LINE SMOOTH",
"-215 -2512 OFFCURVE",
"-304 -2658 OFFCURVE",
"-434 -2766 CURVE SMOOTH",
"-564 -2875 OFFCURVE",
"-722 -2935 OFFCURVE",
"-876 -2935 CURVE SMOOTH",
"-882 -2935 OFFCURVE",
"-887 -2930 OFFCURVE",
"-887 -2925 CURVE SMOOTH",
"-887 -2919 OFFCURVE",
"-882 -2914 OFFCURVE",
"-876 -2914 CURVE SMOOTH",
"-729 -2914 OFFCURVE",
"-573 -2855 OFFCURVE",
"-448 -2750 CURVE SMOOTH",
"-322 -2645 OFFCURVE",
"-234 -2502 OFFCURVE",
"-204 -2354 CURVE SMOOTH",
"-203 -2350 OFFCURVE",
"-199 -2346 OFFCURVE",
"-195 -2345 CURVE"
);
},
{
closed = 1;
nodes = (
"1174 4386 OFFCURVE",
"1172 4381 OFFCURVE",
"1168 4377 CURVE SMOOTH",
"1163 4372 OFFCURVE",
"1159 4370 OFFCURVE",
"1152 4370 CURVE SMOOTH",
"1146 4370 OFFCURVE",
"1141 4372 OFFCURVE",
"1136 4377 CURVE SMOOTH",
"1132 4381 OFFCURVE",
"1130 4386 OFFCURVE",
"1130 4393 CURVE SMOOTH",
"1130 4399 OFFCURVE",
"1132 4404 OFFCURVE",
"1136 4408 CURVE SMOOTH",
"1141 4413 OFFCURVE",
"1146 4415 OFFCURVE",
"1152 4415 CURVE SMOOTH",
"1159 4415 OFFCURVE",
"1163 4413 OFFCURVE",
"1168 4408 CURVE SMOOTH",
"1172 4404 OFFCURVE",
"1174 4399 OFFCURVE",
"1174 4393 CURVE SMOOTH"
);
},
{
closed = 1;
nodes = (
"865 2935 LINE SMOOTH",
"869 2934 OFFCURVE",
"873 2930 OFFCURVE",
"873 2926 CURVE SMOOTH",
"873 2922 LINE",
"759 2354 LINE SMOOTH",
"758 2350 OFFCURVE",
"754 2346 OFFCURVE",
"749 2346 CURVE SMOOTH",
"746 2346 LINE SMOOTH",
"742 2347 OFFCURVE",
"739 2352 OFFCURVE",
"738 2356 CURVE",
"739 2359 LINE",
"852 2927 LINE SMOOTH",
"853 2931 OFFCURVE",
"857 2935 OFFCURVE",
"861 2936 CURVE"
);
},
{
closed = 1;
nodes = (
"751 2367 LINE",
"755 2365 OFFCURVE",
"759 2361 OFFCURVE",
"759 2357 CURVE SMOOTH",
"759 2354 LINE",
"402 567 LINE SMOOTH",
"401 563 OFFCURVE",
"396 559 OFFCURVE",
"392 559 CURVE SMOOTH",
"389 559 LINE SMOOTH",
"385 560 OFFCURVE",
"381 564 OFFCURVE",
"381 569 CURVE SMOOTH",
"381 572 LINE",
"738 2358 LINE SMOOTH",
"739 2362 OFFCURVE",
"743 2366 OFFCURVE",
"748 2367 CURVE SMOOTH"
);
},
{
closed = 1;
nodes = (
"394 579 LINE SMOOTH",
"398 578 OFFCURVE",
"401 574 OFFCURVE",
"402 570 CURVE",
"401 566 LINE",
"288 -2 LINE SMOOTH",
"287 -6 OFFCURVE",
"282 -10 OFFCURVE",
"278 -10 CURVE SMOOTH",
"275 -10 LINE SMOOTH",
"271 -9 OFFCURVE",
"267 -4 OFFCURVE",
"267 0 CURVE SMOOTH",
"267 3 LINE",
"381 571 LINE SMOOTH",
"382 575 OFFCURVE",
"386 579 OFFCURVE",
"390 580 CURVE"
);
},
{
closed = 1;
nodes = (
"280 10 LINE SMOOTH",
"284 9 OFFCURVE",
"288 5 OFFCURVE",
"288 1 CURVE SMOOTH",
"288 -3 LINE",
"174 -571 LINE SMOOTH",
"173 -575 OFFCURVE",
"169 -579 OFFCURVE",
"164 -579 CURVE SMOOTH",
"161 -579 LINE SMOOTH",
"157 -578 OFFCURVE",
"154 -573 OFFCURVE",
"153 -569 CURVE",
"154 -566 LINE",
"267 2 LINE SMOOTH",
"268 6 OFFCURVE",
"272 10 OFFCURVE",
"276 11 CURVE"
);
},
{
closed = 1;
nodes = (
"166 -558 LINE",
"170 -560 OFFCURVE",
"174 -564 OFFCURVE",
"174 -568 CURVE SMOOTH",
"174 -571 LINE",
"-183 -2358 LINE SMOOTH",
"-184 -2362 OFFCURVE",
"-189 -2366 OFFCURVE",
"-193 -2366 CURVE SMOOTH",
"-196 -2366 LINE SMOOTH",
"-200 -2365 OFFCURVE",
"-204 -2361 OFFCURVE",
"-204 -2356 CURVE SMOOTH",
"-204 -2353 LINE",
"153 -567 LINE SMOOTH",
"154 -563 OFFCURVE",
"158 -559 OFFCURVE",
"163 -558 CURVE SMOOTH"
);
}
);
width = 1147;
},
{
layerId = "328E32EA-B50A-4570-BED2-89D75A472110";
paths = (
{
closed = 1;
nodes = (
"-133 -1914 LINE SMOOTH",
"102 -1943 OFFCURVE",
"275 -2152 OFFCURVE",
"258 -2388 CURVE SMOOTH",
"255 -2420 LINE",
"210 -2677 OFFCURVE",
"63 -2924 OFFCURVE",
"-148 -3100 CURVE SMOOTH",
"-354 -3272 OFFCURVE",
"-614 -3370 OFFCURVE",
"-868 -3370 CURVE SMOOTH",
"-1113 -3370 OFFCURVE",
"-1313 -3170 OFFCURVE",
"-1313 -2925 CURVE SMOOTH",
"-1313 -2679 OFFCURVE",
"-1113 -2480 OFFCURVE",
"-868 -2480 CURVE SMOOTH",
"-822 -2480 OFFCURVE",
"-768 -2458 OFFCURVE",
"-718 -2417 CURVE SMOOTH",
"-666 -2372 OFFCURVE",
"-632 -2319 OFFCURVE",
"-622 -2269 CURVE SMOOTH",
"-578 -2051 OFFCURVE",
"-379 -1897 OFFCURVE",
"-157 -1912 CURVE SMOOTH"
);
},
{
closed = 1;
nodes = (
"1617 4272 OFFCURVE",
"1569 4155 OFFCURVE",
"1483 4070 CURVE SMOOTH",
"1398 3984 OFFCURVE",
"1281 3936 OFFCURVE",
"1160 3936 CURVE SMOOTH",
"1006 3936 OFFCURVE",
"857 4015 OFFCURVE",
"774 4149 CURVE SMOOTH",
"728 4221 OFFCURVE",
"703 4306 OFFCURVE",
"703 4393 CURVE SMOOTH",
"703 4570 OFFCURVE",
"807 4738 OFFCURVE",
"978 4811 CURVE SMOOTH",
"1035 4836 OFFCURVE",
"1097 4849 OFFCURVE",
"1160 4849 CURVE SMOOTH",
"1281 4849 OFFCURVE",
"1397 4801 OFFCURVE",
"1482 4716 CURVE SMOOTH",
"1568 4631 OFFCURVE",
"1617 4514 OFFCURVE",
"1617 4393 CURVE SMOOTH"
);
},
{
closed = 1;
nodes = (
"924 3367 LINE SMOOTH",
"1159 3339 OFFCURVE",
"1331 3129 OFFCURVE",
"1314 2893 CURVE SMOOTH",
"1311 2859 LINE",
"1193 2269 LINE SMOOTH",
"1149 2049 OFFCURVE",
"946 1895 OFFCURVE",
"722 1913 CURVE SMOOTH",
"700 1915 LINE SMOOTH",
"467 1945 OFFCURVE",
"296 2154 OFFCURVE",
"313 2389 CURVE SMOOTH",
"316 2423 LINE",
"434 3014 LINE SMOOTH",
"478 3230 OFFCURVE",
"678 3384 OFFCURVE",
"898 3369 CURVE SMOOTH"
);
},
{
closed = 1;
nodes = (
"804 2799 LINE SMOOTH",
"1042 2774 OFFCURVE",
"1217 2563 OFFCURVE",
"1200 2325 CURVE SMOOTH",
"1197 2290 LINE",
"835 482 LINE SMOOTH",
"793 264 OFFCURVE",
"593 111 OFFCURVE",
"370 125 CURVE SMOOTH",
"349 127 LINE SMOOTH",
"112 154 OFFCURVE",
"-62 365 OFFCURVE",
"-44 601 CURVE SMOOTH",
"-41 636 LINE",
"320 2444 LINE SMOOTH",
"364 2658 OFFCURVE",
"560 2812 OFFCURVE",
"780 2801 CURVE SMOOTH"
);
},
{
closed = 1;
nodes = (
"453 1011 LINE SMOOTH",
"688 983 OFFCURVE",
"860 773 OFFCURVE",
"843 537 CURVE SMOOTH",
"840 503 LINE",
"722 -87 LINE SMOOTH",
"678 -305 OFFCURVE",
"478 -458 OFFCURVE",
"256 -444 CURVE SMOOTH",
"235 -442 LINE SMOOTH",
"-1 -415 OFFCURVE",
"-175 -204 OFFCURVE",
"-158 32 CURVE SMOOTH",
"-155 67 LINE",
"-37 657 LINE SMOOTH",
"7 874 OFFCURVE",
"206 1028 OFFCURVE",
"427 1013 CURVE SMOOTH"
);
},
{
closed = 1;
nodes = (
"339 442 LINE SMOOTH",
"574 414 OFFCURVE",
"746 204 OFFCURVE",
"729 -32 CURVE SMOOTH",
"726 -66 LINE",
"608 -656 LINE SMOOTH",
"564 -876 OFFCURVE",
"361 -1030 OFFCURVE",
"137 -1012 CURVE SMOOTH",
"115 -1010 LINE SMOOTH",
"-118 -980 OFFCURVE",
"-289 -771 OFFCURVE",
"-272 -536 CURVE SMOOTH",
"-269 -502 LINE",
"-151 89 LINE SMOOTH",
"-107 305 OFFCURVE",
"93 459 OFFCURVE",
"313 444 CURVE SMOOTH"
);
},
{
closed = 1;
nodes = (
"219 -126 LINE SMOOTH",
"457 -151 OFFCURVE",
"632 -362 OFFCURVE",
"615 -600 CURVE SMOOTH",
"612 -635 LINE",
"250 -2443 LINE SMOOTH",
"208 -2661 OFFCURVE",
"8 -2814 OFFCURVE",
"-215 -2800 CURVE SMOOTH",
"-236 -2798 LINE SMOOTH",
"-473 -2771 OFFCURVE",
"-647 -2560 OFFCURVE",
"-629 -2324 CURVE SMOOTH",
"-626 -2289 LINE",
"-265 -481 LINE SMOOTH",
"-221 -267 OFFCURVE",
"-25 -113 OFFCURVE",
"193 -124 CURVE SMOOTH"
);
}
);
width = 1164;
}
);
unicode = 006A;
},
{
glyphname = q;
lastChange = "2021-02-03 07:47:43 +0000";
layers = (
{
layerId = master01;
paths = (
{
closed = 1;
nodes = (
"751 2367 LINE",
"754 2365 OFFCURVE",
"758 2361 OFFCURVE",
"758 2357 CURVE SMOOTH",
"758 2354 LINE",
"401 567 LINE SMOOTH",
"400 563 OFFCURVE",
"395 559 OFFCURVE",
"391 559 CURVE SMOOTH",
"388 559 LINE SMOOTH",
"384 560 OFFCURVE",
"380 564 OFFCURVE",
"380 569 CURVE SMOOTH",
"380 572 LINE",
"738 2358 LINE",
"738 2362 OFFCURVE",
"743 2366 OFFCURVE",
"747 2367 CURVE SMOOTH"
);
},
{
closed = 1;
nodes = (
"1436 2936 OFFCURVE",
"1441 2931 OFFCURVE",
"1441 2925 CURVE SMOOTH",
"1441 2920 OFFCURVE",
"1436 2915 OFFCURVE",
"1430 2915 CURVE SMOOTH",
"1283 2915 OFFCURVE",
"1127 2855 OFFCURVE",
"1002 2751 CURVE SMOOTH",
"876 2646 OFFCURVE",
"788 2502 OFFCURVE",
"758 2354 CURVE SMOOTH",
"757 2350 OFFCURVE",
"753 2346 OFFCURVE",
"748 2346 CURVE SMOOTH",
"745 2346 LINE SMOOTH",
"741 2347 OFFCURVE",
"738 2352 OFFCURVE",
"737 2356 CURVE",
"738 2359 LINE SMOOTH",
"769 2513 OFFCURVE",
"858 2658 OFFCURVE",
"988 2767 CURVE SMOOTH",
"1119 2875 OFFCURVE",
"1276 2936 OFFCURVE",
"1430 2936 CURVE SMOOTH"
);
},
{
closed = 1;
nodes = (
"1531 579 LINE SMOOTH",
"1535 578 OFFCURVE",
"1538 574 OFFCURVE",
"1539 570 CURVE",
"1538 566 LINE SMOOTH",
"1507 413 OFFCURVE",
"1418 267 OFFCURVE",
"1288 159 CURVE SMOOTH",
"1157 50 OFFCURVE",
"999 -10 OFFCURVE",
"845 -10 CURVE SMOOTH",
"840 -10 OFFCURVE",
"835 -5 OFFCURVE",
"835 0 CURVE SMOOTH",
"835 6 OFFCURVE",
"840 11 OFFCURVE",
"845 11 CURVE SMOOTH",
"993 11 OFFCURVE",
"1149 70 OFFCURVE",
"1274 175 CURVE SMOOTH",
"1400 280 OFFCURVE",
"1488 423 OFFCURVE",
"1518 571 CURVE SMOOTH",
"1519 575 OFFCURVE",
"1523 579 OFFCURVE",
"1527 580 CURVE"
);
},
{
closed = 1;
nodes = (
"1585 2936 OFFCURVE",
"1720 2874 OFFCURVE",
"1808 2765 CURVE SMOOTH",
"1895 2656 OFFCURVE",
"1927 2509 OFFCURVE",
"1896 2354 CURVE SMOOTH",
"1895 2350 OFFCURVE",
"1891 2346 OFFCURVE",
"1886 2346 CURVE SMOOTH",
"1883 2346 LINE SMOOTH",
"1879 2347 OFFCURVE",
"1875 2352 OFFCURVE",
"1875 2356 CURVE SMOOTH",
"1875 2359 LINE",
"1905 2507 OFFCURVE",
"1874 2648 OFFCURVE",
"1791 2752 CURVE SMOOTH",
"1708 2856 OFFCURVE",
"1578 2915 OFFCURVE",
"1430 2915 CURVE SMOOTH",
"1425 2915 OFFCURVE",
"1420 2920 OFFCURVE",
"1420 2925 CURVE SMOOTH",
"1420 2931 OFFCURVE",
"1425 2936 OFFCURVE",
"1430 2936 CURVE SMOOTH"
);
},
{
closed = 1;
nodes = (
"393 579 LINE SMOOTH",
"397 578 OFFCURVE",
"400 574 OFFCURVE",
"401 570 CURVE",
"400 566 LINE SMOOTH",
"371 419 OFFCURVE",
"402 277 OFFCURVE",
"485 174 CURVE SMOOTH",
"568 69 OFFCURVE",
"698 11 OFFCURVE",
"845 11 CURVE SMOOTH",
"851 11 OFFCURVE",
"856 6 OFFCURVE",
"856 0 CURVE SMOOTH",
"856 -5 OFFCURVE",
"851 -10 OFFCURVE",
"845 -10 CURVE SMOOTH",
"691 -10 OFFCURVE",
"556 51 OFFCURVE",
"468 160 CURVE SMOOTH",
"381 270 OFFCURVE",
"349 417 OFFCURVE",
"380 571 CURVE SMOOTH",
"381 575 OFFCURVE",
"385 579 OFFCURVE",
"389 580 CURVE"
);
},
{
closed = 1;
nodes = (
"1888 2367 LINE",
"1892 2365 OFFCURVE",
"1896 2361 OFFCURVE",
"1896 2357 CURVE SMOOTH",
"1896 2354 LINE",
"1538 567 LINE",
"1538 563 OFFCURVE",
"1533 559 OFFCURVE",
"1529 559 CURVE SMOOTH",
"1525 559 LINE SMOOTH",
"1521 560 OFFCURVE",
"1518 564 OFFCURVE",
"1518 569 CURVE SMOOTH",
"1518 572 LINE",
"1875 2358 LINE SMOOTH",
"1876 2362 OFFCURVE",
"1880 2366 OFFCURVE",
"1884 2367 CURVE SMOOTH"
);
},
{
closed = 1;
nodes = (
"1531 579 LINE SMOOTH",
"1535 578 OFFCURVE",
"1538 574 OFFCURVE",
"1539 570 CURVE",
"1538 566 LINE",
"1425 -2 LINE SMOOTH",
"1424 -6 OFFCURVE",
"1419 -10 OFFCURVE",
"1415 -10 CURVE SMOOTH",
"1412 -10 LINE SMOOTH",
"1408 -9 OFFCURVE",
"1404 -4 OFFCURVE",
"1404 0 CURVE SMOOTH",
"1404 3 LINE",
"1518 571 LINE SMOOTH",
"1519 575 OFFCURVE",
"1523 579 OFFCURVE",
"1527 580 CURVE"
);
},
{
closed = 1;
nodes = (
"1417 10 LINE SMOOTH",
"1421 9 OFFCURVE",
"1424 5 OFFCURVE",
"1425 1 CURVE",
"1424 -3 LINE",
"1311 -571 LINE SMOOTH",
"1310 -575 OFFCURVE",
"1306 -579 OFFCURVE",
"1301 -579 CURVE SMOOTH",
"1298 -579 LINE SMOOTH",
"1294 -578 OFFCURVE",
"1290 -573 OFFCURVE",
"1290 -569 CURVE SMOOTH",
"1290 -566 LINE",
"1404 2 LINE SMOOTH",
"1405 6 OFFCURVE",
"1409 10 OFFCURVE",
"1413 11 CURVE"
);
},
{
closed = 1;
nodes = (
"1303 -558 LINE",
"1307 -560 OFFCURVE",
"1311 -564 OFFCURVE",
"1311 -568 CURVE SMOOTH",
"1311 -571 LINE",
"953 -2358 LINE",
"953 -2362 OFFCURVE",
"948 -2366 OFFCURVE",
"944 -2366 CURVE SMOOTH",
"940 -2366 LINE SMOOTH",
"936 -2365 OFFCURVE",
"933 -2361 OFFCURVE",
"933 -2356 CURVE SMOOTH",
"933 -2353 LINE",
"1290 -567 LINE SMOOTH",
"1291 -563 OFFCURVE",
"1295 -559 OFFCURVE",
"1299 -558 CURVE SMOOTH"
);
},
{
closed = 1;
nodes = (
"946 -2346 LINE SMOOTH",
"950 -2347 OFFCURVE",
"953 -2351 OFFCURVE",
"954 -2355 CURVE",
"953 -2359 LINE",
"840 -2927 LINE SMOOTH",
"839 -2931 OFFCURVE",
"834 -2935 OFFCURVE",
"830 -2935 CURVE SMOOTH",
"827 -2935 LINE SMOOTH",
"823 -2934 OFFCURVE",
"819 -2929 OFFCURVE",
"819 -2925 CURVE SMOOTH",
"819 -2922 LINE",
"933 -2354 LINE SMOOTH",
"934 -2350 OFFCURVE",
"938 -2346 OFFCURVE",
"942 -2345 CURVE"
);
}
);
width = 2276;
},
{
layerId = "328E32EA-B50A-4570-BED2-89D75A472110";
paths = (
{
closed = 1;
nodes = (
"804 2799 LINE SMOOTH",
"1042 2774 OFFCURVE",
"1218 2562 OFFCURVE",
"1200 2325 CURVE SMOOTH",
"1197 2290 LINE",
"836 482 LINE SMOOTH",
"792 264 OFFCURVE",
"593 111 OFFCURVE",
"372 125 CURVE SMOOTH",
"349 127 LINE SMOOTH",
"113 154 OFFCURVE",
"-61 364 OFFCURVE",
"-44 601 CURVE SMOOTH",
"-41 636 LINE",
"321 2443 LINE SMOOTH",
"363 2658 OFFCURVE",
"560 2812 OFFCURVE",
"780 2801 CURVE SMOOTH"
);
},
{
closed = 1;
nodes = (
"1685 3370 OFFCURVE",
"1884 3170 OFFCURVE",
"1884 2925 CURVE SMOOTH",
"1884 2680 OFFCURVE",
"1684 2480 OFFCURVE",
"1440 2480 CURVE SMOOTH",
"1381 2480 OFFCURVE",
"1311 2446 OFFCURVE",
"1251 2380 CURVE SMOOTH",
"1221 2345 OFFCURVE",
"1200 2306 OFFCURVE",
"1193 2269 CURVE SMOOTH",
"1149 2049 OFFCURVE",
"946 1895 OFFCURVE",
"722 1913 CURVE SMOOTH",
"699 1916 LINE SMOOTH",
"466 1946 OFFCURVE",
"296 2155 OFFCURVE",
"313 2390 CURVE SMOOTH",
"316 2421 LINE",
"361 2678 OFFCURVE",
"507 2923 OFFCURVE",
"719 3100 CURVE SMOOTH",
"925 3273 OFFCURVE",
"1185 3370 OFFCURVE",
"1440 3370 CURVE SMOOTH"
);
},
{
closed = 1;
nodes = (
"1590 1011 LINE SMOOTH",
"1825 982 OFFCURVE",
"1998 773 OFFCURVE",
"1981 537 CURVE SMOOTH",
"1978 505 LINE",
"1933 248 OFFCURVE",
"1786 1 OFFCURVE",
"1575 -175 CURVE SMOOTH",
"1369 -347 OFFCURVE",
"1109 -445 OFFCURVE",
"854 -445 CURVE SMOOTH",
"610 -445 OFFCURVE",
"410 -245 OFFCURVE",
"409 0 CURVE SMOOTH",
"410 245 OFFCURVE",
"609 445 OFFCURVE",
"854 445 CURVE SMOOTH",
"901 445 OFFCURVE",
"955 467 OFFCURVE",
"1005 508 CURVE SMOOTH",
"1057 552 OFFCURVE",
"1091 605 OFFCURVE",
"1101 656 CURVE SMOOTH",
"1143 873 OFFCURVE",
"1343 1028 OFFCURVE",
"1566 1013 CURVE SMOOTH"
);
},
{
closed = 1;
nodes = (
"1724 3370 OFFCURVE",
"1986 3248 OFFCURVE",
"2156 3037 CURVE SMOOTH",
"2323 2827 OFFCURVE",
"2387 2547 OFFCURVE",
"2331 2269 CURVE SMOOTH",
"2287 2049 OFFCURVE",
"2084 1895 OFFCURVE",
"1860 1913 CURVE SMOOTH",
"1838 1915 LINE SMOOTH",
"1604 1944 OFFCURVE",
"1434 2153 OFFCURVE",
"1451 2389 CURVE SMOOTH",
"1454 2427 LINE",
"1459 2442 OFFCURVE",
"1460 2473 OFFCURVE",
"1460 2480 CURVE",
"1456 2480 OFFCURVE",
"1442 2480 OFFCURVE",
"1439 2480 CURVE SMOOTH",
"1195 2480 OFFCURVE",
"995 2680 OFFCURVE",
"994 2925 CURVE SMOOTH",
"995 3170 OFFCURVE",
"1194 3370 OFFCURVE",
"1439 3370 CURVE SMOOTH"
);
},
{
closed = 1;
nodes = (
"453 1011 LINE SMOOTH",
"688 983 OFFCURVE",
"860 773 OFFCURVE",
"843 537 CURVE SMOOTH",
"840 499 LINE",
"834 481 OFFCURVE",
"834 444 OFFCURVE",
"834 444 CURVE",
"834 444 OFFCURVE",
"839 445 OFFCURVE",
"855 445 CURVE SMOOTH",
"1100 445 OFFCURVE",
"1299 245 OFFCURVE",
"1299 0 CURVE SMOOTH",
"1299 -245 OFFCURVE",
"1099 -445 OFFCURVE",
"855 -445 CURVE SMOOTH",
"570 -445 OFFCURVE",
"308 -323 OFFCURVE",
"138 -111 CURVE SMOOTH",
"-29 98 OFFCURVE",
"-93 379 OFFCURVE",
"-37 657 CURVE SMOOTH",
"7 874 OFFCURVE",
"206 1028 OFFCURVE",
"427 1013 CURVE SMOOTH"
);
},
{
closed = 1;
nodes = (
"1942 2799 LINE SMOOTH",
"2180 2774 OFFCURVE",
"2355 2563 OFFCURVE",
"2338 2325 CURVE SMOOTH",
"2335 2290 LINE",
"1973 482 LINE SMOOTH",
"1931 264 OFFCURVE",
"1731 111 OFFCURVE",
"1508 125 CURVE SMOOTH",
"1487 127 LINE SMOOTH",
"1250 154 OFFCURVE",
"1076 365 OFFCURVE",
"1094 601 CURVE SMOOTH",
"1097 636 LINE",
"1458 2444 LINE SMOOTH",
"1502 2658 OFFCURVE",
"1698 2812 OFFCURVE",
"1916 2801 CURVE SMOOTH"
);
},
{
closed = 1;
nodes = (
"1590 1011 LINE SMOOTH",
"1827 982 OFFCURVE",
"2001 770 OFFCURVE",
"1981 531 CURVE",
"1976 498 LINE",
"1860 -88 LINE SMOOTH",
"1815 -305 OFFCURVE",
"1615 -458 OFFCURVE",
"1394 -444 CURVE SMOOTH",
"1373 -442 LINE SMOOTH",
"1137 -415 OFFCURVE",
"963 -204 OFFCURVE",
"980 32 CURVE SMOOTH",
"983 67 LINE",
"1101 656 LINE SMOOTH",
"1143 873 OFFCURVE",
"1343 1028 OFFCURVE",
"1566 1013 CURVE SMOOTH"
);
},
{
closed = 1;
nodes = (
"1477 442 LINE SMOOTH",
"1712 414 OFFCURVE",
"1884 204 OFFCURVE",
"1867 -32 CURVE SMOOTH",
"1864 -66 LINE",
"1746 -656 LINE SMOOTH",
"1702 -876 OFFCURVE",
"1498 -1030 OFFCURVE",
"1273 -1012 CURVE",
"1252 -1009 LINE SMOOTH",
"1019 -980 OFFCURVE",
"849 -772 OFFCURVE",
"866 -536 CURVE SMOOTH",
"869 -502 LINE",
"987 89 LINE SMOOTH",
"1031 305 OFFCURVE",
"1230 459 OFFCURVE",
"1451 444 CURVE SMOOTH"
);
},
{
closed = 1;
nodes = (
"1357 -126 LINE SMOOTH",
"1595 -151 OFFCURVE",
"1770 -362 OFFCURVE",
"1753 -600 CURVE SMOOTH",
"1750 -635 LINE",
"1388 -2443 LINE SMOOTH",
"1344 -2661 OFFCURVE",
"1145 -2814 OFFCURVE",
"923 -2800 CURVE SMOOTH",
"902 -2798 LINE SMOOTH",
"665 -2771 OFFCURVE",
"491 -2560 OFFCURVE",
"509 -2324 CURVE SMOOTH",
"512 -2289 LINE",
"873 -481 LINE SMOOTH",
"917 -267 OFFCURVE",
"1113 -113 OFFCURVE",
"1331 -124 CURVE SMOOTH"
);
},
{
closed = 1;
nodes = (
"1005 -1914 LINE SMOOTH",
"1242 -1943 OFFCURVE",
"1416 -2155 OFFCURVE",
"1396 -2394 CURVE",
"1391 -2427 LINE",
"1275 -3013 LINE SMOOTH",
"1230 -3230 OFFCURVE",
"1030 -3383 OFFCURVE",
"809 -3369 CURVE SMOOTH",
"788 -3367 LINE SMOOTH",
"551 -3340 OFFCURVE",
"378 -3130 OFFCURVE",
"395 -2893 CURVE SMOOTH",
"398 -2858 LINE",
"516 -2269 LINE SMOOTH",
"558 -2052 OFFCURVE",
"758 -1897 OFFCURVE",
"981 -1912 CURVE SMOOTH"
);
}
);
width = 2294;
}
);
unicode = 0071;
},
{
glyphname = x;
lastChange = "2021-02-03 07:47:43 +0000";
layers = (
{
layerId = master01;
paths = (
{
closed = 1;
nodes = (
"1436 2936 OFFCURVE",
"1441 2931 OFFCURVE",
"1441 2925 CURVE SMOOTH",
"1441 2920 OFFCURVE",
"1436 2915 OFFCURVE",
"1430 2915 CURVE SMOOTH",
"1283 2915 OFFCURVE",
"1127 2855 OFFCURVE",
"1002 2751 CURVE SMOOTH",
"876 2646 OFFCURVE",
"788 2502 OFFCURVE",
"758 2354 CURVE SMOOTH",
"757 2350 OFFCURVE",
"753 2346 OFFCURVE",
"748 2346 CURVE SMOOTH",
"745 2346 LINE SMOOTH",
"741 2347 OFFCURVE",
"738 2352 OFFCURVE",
"737 2356 CURVE",
"738 2359 LINE SMOOTH",
"769 2513 OFFCURVE",
"858 2658 OFFCURVE",
"988 2767 CURVE SMOOTH",
"1119 2875 OFFCURVE",
"1276 2936 OFFCURVE",
"1430 2936 CURVE SMOOTH"
);
},
{
closed = 1;
nodes = (
"1531 579 LINE SMOOTH",
"1535 578 OFFCURVE",
"1538 574 OFFCURVE",
"1539 570 CURVE",
"1538 566 LINE SMOOTH",
"1507 413 OFFCURVE",
"1418 267 OFFCURVE",
"1288 159 CURVE SMOOTH",
"1157 50 OFFCURVE",
"999 -10 OFFCURVE",
"845 -10 CURVE SMOOTH",
"840 -10 OFFCURVE",
"835 -5 OFFCURVE",
"835 0 CURVE SMOOTH",
"835 6 OFFCURVE",
"840 11 OFFCURVE",
"845 11 CURVE SMOOTH",
"993 11 OFFCURVE",
"1149 70 OFFCURVE",
"1274 175 CURVE SMOOTH",
"1400 280 OFFCURVE",
"1488 423 OFFCURVE",
"1518 571 CURVE SMOOTH",
"1519 575 OFFCURVE",
"1523 579 OFFCURVE",
"1527 580 CURVE"
);
},
{
closed = 1;
nodes = (
"1585 2936 OFFCURVE",
"1720 2874 OFFCURVE",
"1808 2765 CURVE SMOOTH",
"1895 2656 OFFCURVE",
"1927 2509 OFFCURVE",
"1896 2354 CURVE SMOOTH",
"1895 2350 OFFCURVE",
"1891 2346 OFFCURVE",
"1886 2346 CURVE SMOOTH",
"1883 2346 LINE SMOOTH",
"1879 2347 OFFCURVE",
"1875 2352 OFFCURVE",
"1875 2356 CURVE SMOOTH",
"1875 2359 LINE",
"1905 2507 OFFCURVE",
"1874 2648 OFFCURVE",
"1791 2752 CURVE SMOOTH",
"1708 2856 OFFCURVE",
"1578 2915 OFFCURVE",
"1430 2915 CURVE SMOOTH",
"1425 2915 OFFCURVE",
"1420 2920 OFFCURVE",
"1420 2925 CURVE SMOOTH",
"1420 2931 OFFCURVE",
"1425 2936 OFFCURVE",
"1430 2936 CURVE SMOOTH"
);
},
{
closed = 1;
nodes = (
"393 579 LINE SMOOTH",
"397 578 OFFCURVE",
"400 574 OFFCURVE",
"401 570 CURVE",
"400 566 LINE SMOOTH",
"371 419 OFFCURVE",
"402 277 OFFCURVE",
"485 174 CURVE SMOOTH",
"568 69 OFFCURVE",
"698 11 OFFCURVE",
"845 11 CURVE SMOOTH",
"851 11 OFFCURVE",
"856 6 OFFCURVE",
"856 0 CURVE SMOOTH",
"856 -5 OFFCURVE",
"851 -10 OFFCURVE",
"845 -10 CURVE SMOOTH",
"691 -10 OFFCURVE",
"556 51 OFFCURVE",
"468 160 CURVE SMOOTH",
"381 270 OFFCURVE",
"349 417 OFFCURVE",
"380 571 CURVE SMOOTH",
"381 575 OFFCURVE",
"385 579 OFFCURVE",
"389 580 CURVE"
);
},
{
closed = 1;
nodes = (
"1888 2367 LINE",
"1892 2365 OFFCURVE",
"1896 2361 OFFCURVE",
"1896 2357 CURVE SMOOTH",
"1896 2354 LINE",
"1538 567 LINE",
"1538 563 OFFCURVE",
"1533 559 OFFCURVE",
"1529 559 CURVE SMOOTH",
"1525 559 LINE SMOOTH",
"1521 560 OFFCURVE",
"1518 564 OFFCURVE",
"1518 569 CURVE SMOOTH",
"1518 572 LINE",
"1875 2358 LINE SMOOTH",
"1876 2362 OFFCURVE",
"1880 2366 OFFCURVE",
"1884 2367 CURVE SMOOTH"
);
},
{
closed = 1;
nodes = (
"2574 2936 OFFCURVE",
"2579 2931 OFFCURVE",
"2579 2925 CURVE SMOOTH",
"2579 2920 OFFCURVE",
"2574 2915 OFFCURVE",
"2568 2915 CURVE SMOOTH",
"2420 2915 OFFCURVE",
"2265 2855 OFFCURVE",
"2139 2751 CURVE SMOOTH",
"2014 2646 OFFCURVE",
"1925 2502 OFFCURVE",
"1896 2354 CURVE SMOOTH",
"1895 2350 OFFCURVE",
"1891 2346 OFFCURVE",
"1886 2346 CURVE SMOOTH",
"1883 2346 LINE SMOOTH",
"1879 2347 OFFCURVE",
"1875 2352 OFFCURVE",
"1875 2356 CURVE SMOOTH",
"1875 2359 LINE",
"1906 2513 OFFCURVE",
"1996 2658 OFFCURVE",
"2126 2767 CURVE SMOOTH",
"2256 2875 OFFCURVE",
"2414 2936 OFFCURVE",
"2568 2936 CURVE SMOOTH"
);
},
{
closed = 1;
nodes = (
"2669 579 LINE SMOOTH",
"2673 578 OFFCURVE",
"2676 574 OFFCURVE",
"2676 570 CURVE SMOOTH",
"2676 566 LINE",
"2645 413 OFFCURVE",
"2556 267 OFFCURVE",
"2425 159 CURVE SMOOTH",
"2295 50 OFFCURVE",
"2137 -10 OFFCURVE",
"1983 -10 CURVE SMOOTH",
"1977 -10 OFFCURVE",
"1973 -5 OFFCURVE",
"1973 0 CURVE SMOOTH",
"1973 6 OFFCURVE",
"1977 11 OFFCURVE",
"1983 11 CURVE SMOOTH",
"2131 11 OFFCURVE",
"2287 70 OFFCURVE",
"2412 175 CURVE SMOOTH",
"2538 280 OFFCURVE",
"2626 423 OFFCURVE",
"2656 571 CURVE",
"2656 575 OFFCURVE",
"2661 579 OFFCURVE",
"2665 580 CURVE"
);
},
{
closed = 1;
nodes = (
"2723 2936 OFFCURVE",
"2858 2874 OFFCURVE",
"2945 2765 CURVE SMOOTH",
"3033 2656 OFFCURVE",
"3065 2509 OFFCURVE",
"3034 2354 CURVE SMOOTH",
"3033 2350 OFFCURVE",
"3028 2346 OFFCURVE",
"3024 2346 CURVE SMOOTH",
"3021 2346 LINE SMOOTH",
"3017 2347 OFFCURVE",
"3013 2352 OFFCURVE",
"3013 2356 CURVE SMOOTH",
"3013 2359 LINE",
"3042 2507 OFFCURVE",
"3012 2648 OFFCURVE",
"2929 2752 CURVE SMOOTH",
"2846 2856 OFFCURVE",
"2716 2915 OFFCURVE",
"2568 2915 CURVE SMOOTH",
"2562 2915 OFFCURVE",
"2558 2920 OFFCURVE",
"2558 2925 CURVE SMOOTH",
"2558 2931 OFFCURVE",
"2562 2936 OFFCURVE",
"2568 2936 CURVE SMOOTH"
);
},
{
closed = 1;
nodes = (
"1531 579 LINE SMOOTH",
"1535 578 OFFCURVE",
"1538 574 OFFCURVE",
"1539 570 CURVE",
"1538 566 LINE SMOOTH",
"1509 419 OFFCURVE",
"1539 277 OFFCURVE",
"1622 174 CURVE SMOOTH",
"1706 69 OFFCURVE",
"1836 11 OFFCURVE",
"1983 11 CURVE SMOOTH",
"1989 11 OFFCURVE",
"1994 6 OFFCURVE",
"1994 0 CURVE SMOOTH",
"1994 -5 OFFCURVE",
"1989 -10 OFFCURVE",
"1983 -10 CURVE SMOOTH",
"1829 -10 OFFCURVE",
"1693 51 OFFCURVE",
"1606 160 CURVE SMOOTH",
"1519 270 OFFCURVE",
"1487 417 OFFCURVE",
"1518 571 CURVE SMOOTH",
"1519 575 OFFCURVE",
"1523 579 OFFCURVE",
"1527 580 CURVE"
);
}
);
width = 3414;
},
{
layerId = "328E32EA-B50A-4570-BED2-89D75A472110";
paths = (
{
closed = 1;
nodes = (
"1685 3370 OFFCURVE",
"1884 3170 OFFCURVE",
"1884 2925 CURVE SMOOTH",
"1884 2680 OFFCURVE",
"1684 2480 OFFCURVE",
"1440 2480 CURVE SMOOTH",
"1381 2480 OFFCURVE",
"1311 2446 OFFCURVE",
"1251 2380 CURVE SMOOTH",
"1221 2345 OFFCURVE",
"1200 2306 OFFCURVE",
"1193 2269 CURVE SMOOTH",
"1149 2049 OFFCURVE",
"946 1895 OFFCURVE",
"722 1913 CURVE SMOOTH",
"699 1916 LINE SMOOTH",
"466 1946 OFFCURVE",
"296 2155 OFFCURVE",
"313 2390 CURVE SMOOTH",
"316 2421 LINE",
"361 2678 OFFCURVE",
"507 2923 OFFCURVE",
"719 3100 CURVE SMOOTH",
"925 3273 OFFCURVE",
"1185 3370 OFFCURVE",
"1440 3370 CURVE SMOOTH"
);
},
{
closed = 1;
nodes = (
"1590 1011 LINE SMOOTH",
"1825 982 OFFCURVE",
"1998 773 OFFCURVE",
"1981 537 CURVE SMOOTH",
"1978 505 LINE",
"1933 248 OFFCURVE",
"1786 1 OFFCURVE",
"1575 -175 CURVE SMOOTH",
"1369 -347 OFFCURVE",
"1109 -445 OFFCURVE",
"854 -445 CURVE SMOOTH",
"610 -445 OFFCURVE",
"410 -245 OFFCURVE",
"409 0 CURVE SMOOTH",
"410 245 OFFCURVE",
"609 445 OFFCURVE",
"854 445 CURVE SMOOTH",
"901 445 OFFCURVE",
"955 467 OFFCURVE",
"1005 508 CURVE SMOOTH",
"1057 552 OFFCURVE",
"1091 605 OFFCURVE",
"1101 656 CURVE SMOOTH",
"1143 873 OFFCURVE",
"1343 1028 OFFCURVE",
"1566 1013 CURVE SMOOTH"
);
},
{
closed = 1;
nodes = (
"1724 3370 OFFCURVE",
"1986 3248 OFFCURVE",
"2156 3037 CURVE SMOOTH",
"2323 2827 OFFCURVE",
"2387 2547 OFFCURVE",
"2331 2269 CURVE SMOOTH",
"2287 2049 OFFCURVE",
"2084 1895 OFFCURVE",
"1860 1913 CURVE SMOOTH",
"1838 1915 LINE SMOOTH",
"1604 1944 OFFCURVE",
"1434 2153 OFFCURVE",
"1451 2389 CURVE SMOOTH",
"1454 2427 LINE",
"1459 2442 OFFCURVE",
"1460 2473 OFFCURVE",
"1460 2480 CURVE",
"1456 2480 OFFCURVE",
"1442 2480 OFFCURVE",
"1439 2480 CURVE SMOOTH",
"1195 2480 OFFCURVE",
"995 2680 OFFCURVE",
"994 2925 CURVE SMOOTH",
"995 3170 OFFCURVE",
"1194 3370 OFFCURVE",
"1439 3370 CURVE SMOOTH"
);
},
{
closed = 1;
nodes = (
"453 1011 LINE SMOOTH",
"688 983 OFFCURVE",
"860 773 OFFCURVE",
"843 537 CURVE SMOOTH",
"840 499 LINE",
"834 481 OFFCURVE",
"834 444 OFFCURVE",
"834 444 CURVE",
"834 444 OFFCURVE",
"839 445 OFFCURVE",
"855 445 CURVE SMOOTH",
"1100 445 OFFCURVE",
"1299 245 OFFCURVE",
"1299 0 CURVE SMOOTH",
"1299 -245 OFFCURVE",
"1099 -445 OFFCURVE",
"855 -445 CURVE SMOOTH",
"570 -445 OFFCURVE",
"308 -323 OFFCURVE",
"138 -111 CURVE SMOOTH",
"-29 98 OFFCURVE",
"-93 379 OFFCURVE",
"-37 657 CURVE SMOOTH",
"7 874 OFFCURVE",
"206 1028 OFFCURVE",
"427 1013 CURVE SMOOTH"
);
},
{
closed = 1;
nodes = (
"1942 2799 LINE SMOOTH",
"2180 2774 OFFCURVE",
"2355 2563 OFFCURVE",
"2338 2325 CURVE SMOOTH",
"2335 2290 LINE",
"1973 482 LINE SMOOTH",
"1931 264 OFFCURVE",
"1731 111 OFFCURVE",
"1508 125 CURVE SMOOTH",
"1487 127 LINE SMOOTH",
"1250 154 OFFCURVE",
"1076 365 OFFCURVE",
"1094 601 CURVE SMOOTH",
"1097 636 LINE",
"1458 2444 LINE SMOOTH",
"1502 2658 OFFCURVE",
"1698 2812 OFFCURVE",
"1916 2801 CURVE SMOOTH"
);
},
{
closed = 1;
nodes = (
"2823 3370 OFFCURVE",
"3022 3170 OFFCURVE",
"3022 2925 CURVE SMOOTH",
"3022 2680 OFFCURVE",
"2822 2480 OFFCURVE",
"2577 2480 CURVE SMOOTH",
"2531 2480 OFFCURVE",
"2476 2458 OFFCURVE",
"2425 2416 CURVE SMOOTH",
"2375 2374 OFFCURVE",
"2341 2321 OFFCURVE",
"2331 2269 CURVE SMOOTH",
"2287 2049 OFFCURVE",
"2084 1895 OFFCURVE",
"1860 1913 CURVE SMOOTH",
"1838 1915 LINE SMOOTH",
"1604 1944 OFFCURVE",
"1434 2153 OFFCURVE",
"1451 2390 CURVE SMOOTH",
"1454 2421 LINE",
"1499 2679 OFFCURVE",
"1645 2924 OFFCURVE",
"1857 3101 CURVE SMOOTH",
"2063 3273 OFFCURVE",
"2322 3370 OFFCURVE",
"2577 3370 CURVE SMOOTH"
);
},
{
closed = 1;
nodes = (
"2728 1011 LINE SMOOTH",
"2964 982 OFFCURVE",
"3136 773 OFFCURVE",
"3118 536 CURVE SMOOTH",
"3115 505 LINE",
"3070 247 OFFCURVE",
"2923 0 OFFCURVE",
"2713 -175 CURVE SMOOTH",
"2505 -348 OFFCURVE",
"2246 -445 OFFCURVE",
"1992 -445 CURVE SMOOTH",
"1746 -445 OFFCURVE",
"1547 -245 OFFCURVE",
"1547 0 CURVE SMOOTH",
"1547 246 OFFCURVE",
"1747 445 OFFCURVE",
"1992 445 CURVE SMOOTH",
"2039 445 OFFCURVE",
"2093 467 OFFCURVE",
"2143 508 CURVE SMOOTH",
"2195 552 OFFCURVE",
"2229 605 OFFCURVE",
"2239 656 CURVE SMOOTH",
"2281 873 OFFCURVE",
"2481 1028 OFFCURVE",
"2704 1013 CURVE SMOOTH"
);
},
{
closed = 1;
nodes = (
"2861 3370 OFFCURVE",
"3125 3248 OFFCURVE",
"3293 3037 CURVE SMOOTH",
"3461 2827 OFFCURVE",
"3525 2547 OFFCURVE",
"3469 2268 CURVE SMOOTH",
"3423 2049 OFFCURVE",
"3220 1895 OFFCURVE",
"2996 1913 CURVE SMOOTH",
"2974 1916 LINE SMOOTH",
"2742 1946 OFFCURVE",
"2571 2155 OFFCURVE",
"2589 2388 CURVE SMOOTH",
"2592 2426 LINE",
"2597 2442 OFFCURVE",
"2598 2473 OFFCURVE",
"2598 2480 CURVE",
"2594 2480 OFFCURVE",
"2580 2480 OFFCURVE",
"2577 2480 CURVE SMOOTH",
"2331 2480 OFFCURVE",
"2132 2680 OFFCURVE",
"2132 2925 CURVE SMOOTH",
"2132 3171 OFFCURVE",
"2332 3370 OFFCURVE",
"2577 3370 CURVE SMOOTH"
);
},
{
closed = 1;
nodes = (
"1590 1011 LINE SMOOTH",
"1827 982 OFFCURVE",
"2001 770 OFFCURVE",
"1981 531 CURVE",
"1976 497 LINE SMOOTH",
"1974 489 OFFCURVE",
"1970 447 OFFCURVE",
"1971 445 CURVE SMOOTH",
"1972 444 OFFCURVE",
"1976 445 OFFCURVE",
"1992 445 CURVE SMOOTH",
"2238 445 OFFCURVE",
"2437 245 OFFCURVE",
"2437 0 CURVE SMOOTH",
"2437 -245 OFFCURVE",
"2237 -445 OFFCURVE",
"1992 -445 CURVE SMOOTH",
"1708 -445 OFFCURVE",
"1445 -323 OFFCURVE",
"1276 -111 CURVE SMOOTH",
"1109 97 OFFCURVE",
"1045 378 OFFCURVE",
"1101 656 CURVE SMOOTH",
"1143 873 OFFCURVE",
"1343 1028 OFFCURVE",
"1566 1013 CURVE SMOOTH"
);
}
);
width = 3432;
}
);
unicode = 0078;
},
{
glyphname = y;
lastChange = "2021-02-03 07:47:43 +0000";
layers = (
{
layerId = master01;
paths = (
{
closed = 1;
nodes = (
"864 2935 LINE SMOOTH",
"868 2934 OFFCURVE",
"872 2930 OFFCURVE",
"872 2926 CURVE SMOOTH",
"872 2922 LINE",
"758 2354 LINE SMOOTH",
"757 2350 OFFCURVE",
"753 2346 OFFCURVE",
"748 2346 CURVE SMOOTH",
"745 2346 LINE SMOOTH",
"741 2347 OFFCURVE",
"738 2352 OFFCURVE",
"737 2356 CURVE",
"738 2359 LINE",
"851 2927 LINE SMOOTH",
"852 2931 OFFCURVE",
"856 2935 OFFCURVE",
"860 2936 CURVE"
);
},
{
closed = 1;
nodes = (
"751 2367 LINE",
"754 2365 OFFCURVE",
"758 2361 OFFCURVE",
"758 2357 CURVE SMOOTH",
"758 2354 LINE",
"401 567 LINE SMOOTH",
"400 563 OFFCURVE",
"395 559 OFFCURVE",
"391 559 CURVE SMOOTH",
"388 559 LINE SMOOTH",
"384 560 OFFCURVE",
"380 564 OFFCURVE",
"380 569 CURVE SMOOTH",
"380 572 LINE",
"738 2358 LINE",
"738 2362 OFFCURVE",
"743 2366 OFFCURVE",
"747 2367 CURVE SMOOTH"
);
},
{
closed = 1;
nodes = (
"1531 579 LINE SMOOTH",
"1535 578 OFFCURVE",
"1538 574 OFFCURVE",
"1539 570 CURVE",
"1538 566 LINE SMOOTH",
"1507 413 OFFCURVE",
"1418 267 OFFCURVE",
"1288 159 CURVE SMOOTH",
"1157 50 OFFCURVE",
"999 -10 OFFCURVE",
"845 -10 CURVE SMOOTH",
"840 -10 OFFCURVE",
"835 -5 OFFCURVE",
"835 0 CURVE SMOOTH",
"835 6 OFFCURVE",
"840 11 OFFCURVE",
"845 11 CURVE SMOOTH",
"993 11 OFFCURVE",
"1149 70 OFFCURVE",
"1274 175 CURVE SMOOTH",
"1400 280 OFFCURVE",
"1488 423 OFFCURVE",
"1518 571 CURVE SMOOTH",
"1519 575 OFFCURVE",
"1523 579 OFFCURVE",
"1527 580 CURVE"
);
},
{
closed = 1;
nodes = (
"946 -2346 LINE SMOOTH",
"950 -2347 OFFCURVE",
"953 -2351 OFFCURVE",
"954 -2355 CURVE",
"953 -2359 LINE SMOOTH",
"922 -2512 OFFCURVE",
"833 -2658 OFFCURVE",
"703 -2766 CURVE SMOOTH",
"572 -2875 OFFCURVE",
"414 -2935 OFFCURVE",
"260 -2935 CURVE SMOOTH",
"255 -2935 OFFCURVE",
"250 -2930 OFFCURVE",
"250 -2925 CURVE SMOOTH",
"250 -2919 OFFCURVE",
"255 -2914 OFFCURVE",
"260 -2914 CURVE SMOOTH",
"408 -2914 OFFCURVE",
"564 -2855 OFFCURVE",
"689 -2750 CURVE SMOOTH",
"815 -2645 OFFCURVE",
"903 -2502 OFFCURVE",
"933 -2354 CURVE SMOOTH",
"934 -2350 OFFCURVE",
"938 -2346 OFFCURVE",
"942 -2345 CURVE"
);
},
{
closed = 1;
nodes = (
"393 579 LINE SMOOTH",
"397 578 OFFCURVE",
"400 574 OFFCURVE",
"401 570 CURVE",
"400 566 LINE SMOOTH",
"371 419 OFFCURVE",
"402 277 OFFCURVE",
"485 174 CURVE SMOOTH",
"568 69 OFFCURVE",
"698 11 OFFCURVE",
"845 11 CURVE SMOOTH",
"851 11 OFFCURVE",
"856 6 OFFCURVE",
"856 0 CURVE SMOOTH",
"856 -5 OFFCURVE",
"851 -10 OFFCURVE",
"845 -10 CURVE SMOOTH",
"691 -10 OFFCURVE",
"556 51 OFFCURVE",
"468 160 CURVE SMOOTH",
"381 270 OFFCURVE",
"349 417 OFFCURVE",
"380 571 CURVE SMOOTH",
"381 575 OFFCURVE",
"385 579 OFFCURVE",
"389 580 CURVE"
);
},
{
closed = 1;
nodes = (
"-192 -2346 LINE SMOOTH",
"-188 -2347 OFFCURVE",
"-185 -2351 OFFCURVE",
"-184 -2355 CURVE",
"-185 -2359 LINE SMOOTH",
"-214 -2506 OFFCURVE",
"-183 -2648 OFFCURVE",
"-100 -2751 CURVE SMOOTH",
"-17 -2856 OFFCURVE",
"113 -2914 OFFCURVE",
"260 -2914 CURVE SMOOTH",
"266 -2914 OFFCURVE",
"271 -2919 OFFCURVE",
"271 -2925 CURVE SMOOTH",
"271 -2930 OFFCURVE",
"266 -2935 OFFCURVE",
"260 -2935 CURVE SMOOTH",
"106 -2935 OFFCURVE",
"-29 -2874 OFFCURVE",
"-117 -2765 CURVE SMOOTH",
"-204 -2655 OFFCURVE",
"-236 -2508 OFFCURVE",
"-205 -2354 CURVE SMOOTH",
"-204 -2350 OFFCURVE",
"-200 -2346 OFFCURVE",
"-196 -2345 CURVE"
);
},
{
closed = 1;
nodes = (
"2002 2935 LINE SMOOTH",
"2006 2934 OFFCURVE",
"2009 2930 OFFCURVE",
"2010 2926 CURVE",
"2009 2922 LINE",
"1896 2354 LINE SMOOTH",
"1895 2350 OFFCURVE",
"1891 2346 OFFCURVE",
"1886 2346 CURVE SMOOTH",
"1883 2346 LINE SMOOTH",
"1879 2347 OFFCURVE",
"1875 2352 OFFCURVE",
"1875 2356 CURVE SMOOTH",
"1875 2359 LINE",
"1989 2927 LINE SMOOTH",
"1990 2931 OFFCURVE",
"1994 2935 OFFCURVE",
"1998 2936 CURVE"
);
},
{
closed = 1;
nodes = (
"1888 2367 LINE",
"1892 2365 OFFCURVE",
"1896 2361 OFFCURVE",
"1896 2357 CURVE SMOOTH",
"1896 2354 LINE",
"1538 567 LINE",
"1538 563 OFFCURVE",
"1533 559 OFFCURVE",
"1529 559 CURVE SMOOTH",
"1525 559 LINE SMOOTH",
"1521 560 OFFCURVE",
"1518 564 OFFCURVE",
"1518 569 CURVE SMOOTH",
"1518 572 LINE",
"1875 2358 LINE SMOOTH",
"1876 2362 OFFCURVE",
"1880 2366 OFFCURVE",
"1884 2367 CURVE SMOOTH"
);
},
{
closed = 1;
nodes = (
"1531 579 LINE SMOOTH",
"1535 578 OFFCURVE",
"1538 574 OFFCURVE",
"1539 570 CURVE",
"1538 566 LINE",
"1425 -2 LINE SMOOTH",
"1424 -6 OFFCURVE",
"1419 -10 OFFCURVE",
"1415 -10 CURVE SMOOTH",
"1412 -10 LINE SMOOTH",
"1408 -9 OFFCURVE",
"1404 -4 OFFCURVE",
"1404 0 CURVE SMOOTH",
"1404 3 LINE",
"1518 571 LINE SMOOTH",
"1519 575 OFFCURVE",
"1523 579 OFFCURVE",
"1527 580 CURVE"
);
},
{
closed = 1;
nodes = (
"1417 10 LINE SMOOTH",
"1421 9 OFFCURVE",
"1424 5 OFFCURVE",
"1425 1 CURVE",
"1424 -3 LINE",
"1311 -571 LINE SMOOTH",
"1310 -575 OFFCURVE",
"1306 -579 OFFCURVE",
"1301 -579 CURVE SMOOTH",
"1298 -579 LINE SMOOTH",
"1294 -578 OFFCURVE",
"1290 -573 OFFCURVE",
"1290 -569 CURVE SMOOTH",
"1290 -566 LINE",
"1404 2 LINE SMOOTH",
"1405 6 OFFCURVE",
"1409 10 OFFCURVE",
"1413 11 CURVE"
);
},
{
closed = 1;
nodes = (
"1303 -558 LINE",
"1307 -560 OFFCURVE",
"1311 -564 OFFCURVE",
"1311 -568 CURVE SMOOTH",
"1311 -571 LINE",
"953 -2358 LINE",
"953 -2362 OFFCURVE",
"948 -2366 OFFCURVE",
"944 -2366 CURVE SMOOTH",
"940 -2366 LINE SMOOTH",
"936 -2365 OFFCURVE",
"933 -2361 OFFCURVE",
"933 -2356 CURVE SMOOTH",
"933 -2353 LINE",
"1290 -567 LINE SMOOTH",
"1291 -563 OFFCURVE",
"1295 -559 OFFCURVE",
"1299 -558 CURVE SMOOTH"
);
}
);
width = 2276;
},
{
layerId = "328E32EA-B50A-4570-BED2-89D75A472110";
paths = (
{
closed = 1;
nodes = (
"923 3367 LINE SMOOTH",
"1158 3340 OFFCURVE",
"1332 3129 OFFCURVE",
"1314 2892 CURVE SMOOTH",
"1311 2859 LINE",
"1193 2268 LINE SMOOTH",
"1148 2049 OFFCURVE",
"946 1895 OFFCURVE",
"722 1913 CURVE SMOOTH",
"699 1916 LINE SMOOTH",
"466 1946 OFFCURVE",
"296 2154 OFFCURVE",
"313 2389 CURVE SMOOTH",
"316 2423 LINE",
"434 3014 LINE SMOOTH",
"478 3230 OFFCURVE",
"678 3384 OFFCURVE",
"898 3369 CURVE SMOOTH"
);
},
{
closed = 1;
nodes = (
"804 2799 LINE SMOOTH",
"1042 2774 OFFCURVE",
"1218 2562 OFFCURVE",
"1200 2325 CURVE SMOOTH",
"1197 2290 LINE",
"836 482 LINE SMOOTH",
"792 264 OFFCURVE",
"593 111 OFFCURVE",
"372 125 CURVE SMOOTH",
"349 127 LINE SMOOTH",
"113 154 OFFCURVE",
"-61 364 OFFCURVE",
"-44 601 CURVE SMOOTH",
"-41 636 LINE",
"321 2443 LINE SMOOTH",
"363 2658 OFFCURVE",
"560 2812 OFFCURVE",
"780 2801 CURVE SMOOTH"
);
},
{
closed = 1;
nodes = (
"1590 1011 LINE SMOOTH",
"1825 982 OFFCURVE",
"1998 773 OFFCURVE",
"1981 537 CURVE SMOOTH",
"1978 505 LINE",
"1933 248 OFFCURVE",
"1786 1 OFFCURVE",
"1575 -175 CURVE SMOOTH",
"1369 -347 OFFCURVE",
"1109 -445 OFFCURVE",
"854 -445 CURVE SMOOTH",
"610 -445 OFFCURVE",
"410 -245 OFFCURVE",
"409 0 CURVE SMOOTH",
"410 245 OFFCURVE",
"609 445 OFFCURVE",
"854 445 CURVE SMOOTH",
"901 445 OFFCURVE",
"955 467 OFFCURVE",
"1005 508 CURVE SMOOTH",
"1057 552 OFFCURVE",
"1091 605 OFFCURVE",
"1101 656 CURVE SMOOTH",
"1143 873 OFFCURVE",
"1343 1028 OFFCURVE",
"1566 1013 CURVE SMOOTH"
);
},
{
closed = 1;
nodes = (
"1005 -1914 LINE SMOOTH",
"1240 -1943 OFFCURVE",
"1413 -2152 OFFCURVE",
"1396 -2388 CURVE SMOOTH",
"1393 -2420 LINE",
"1348 -2677 OFFCURVE",
"1201 -2924 OFFCURVE",
"990 -3100 CURVE SMOOTH",
"784 -3272 OFFCURVE",
"524 -3370 OFFCURVE",
"269 -3370 CURVE SMOOTH",
"25 -3370 OFFCURVE",
"-175 -3170 OFFCURVE",
"-176 -2925 CURVE SMOOTH",
"-175 -2680 OFFCURVE",
"24 -2480 OFFCURVE",
"269 -2480 CURVE SMOOTH",
"316 -2480 OFFCURVE",
"370 -2458 OFFCURVE",
"420 -2417 CURVE SMOOTH",
"472 -2373 OFFCURVE",
"506 -2320 OFFCURVE",
"516 -2269 CURVE SMOOTH",
"558 -2052 OFFCURVE",
"758 -1897 OFFCURVE",
"981 -1912 CURVE SMOOTH"
);
},
{
closed = 1;
nodes = (
"453 1011 LINE SMOOTH",
"688 983 OFFCURVE",
"860 773 OFFCURVE",
"843 537 CURVE SMOOTH",
"840 499 LINE",
"834 481 OFFCURVE",
"834 444 OFFCURVE",
"834 444 CURVE",
"834 444 OFFCURVE",
"839 445 OFFCURVE",
"855 445 CURVE SMOOTH",
"1100 445 OFFCURVE",
"1299 245 OFFCURVE",
"1299 0 CURVE SMOOTH",
"1299 -245 OFFCURVE",
"1099 -445 OFFCURVE",
"855 -445 CURVE SMOOTH",
"570 -445 OFFCURVE",
"308 -323 OFFCURVE",
"138 -111 CURVE SMOOTH",
"-29 98 OFFCURVE",
"-93 379 OFFCURVE",
"-37 657 CURVE SMOOTH",
"7 874 OFFCURVE",
"206 1028 OFFCURVE",
"427 1013 CURVE SMOOTH"
);
},
{
closed = 1;
nodes = (
"-133 -1914 LINE SMOOTH",
"102 -1941 OFFCURVE",
"275 -2152 OFFCURVE",
"258 -2388 CURVE SMOOTH",
"255 -2426 LINE",
"249 -2444 OFFCURVE",
"249 -2481 OFFCURVE",
"249 -2481 CURVE",
"249 -2481 OFFCURVE",
"254 -2480 OFFCURVE",
"270 -2480 CURVE SMOOTH",
"515 -2480 OFFCURVE",
"714 -2680 OFFCURVE",
"714 -2925 CURVE SMOOTH",
"714 -3170 OFFCURVE",
"514 -3370 OFFCURVE",
"270 -3370 CURVE SMOOTH",
"-15 -3370 OFFCURVE",
"-277 -3248 OFFCURVE",
"-447 -3036 CURVE SMOOTH",
"-614 -2827 OFFCURVE",
"-678 -2546 OFFCURVE",
"-622 -2268 CURVE SMOOTH",
"-577 -2051 OFFCURVE",
"-379 -1897 OFFCURVE",
"-157 -1912 CURVE SMOOTH"
);
},
{
closed = 1;
nodes = (
"2062 3367 LINE SMOOTH",
"2297 3339 OFFCURVE",
"2469 3129 OFFCURVE",
"2452 2893 CURVE SMOOTH",
"2449 2859 LINE",
"2331 2269 LINE SMOOTH",
"2287 2049 OFFCURVE",
"2084 1895 OFFCURVE",
"1860 1913 CURVE SMOOTH",
"1838 1915 LINE SMOOTH",
"1604 1944 OFFCURVE",
"1434 2153 OFFCURVE",
"1451 2389 CURVE SMOOTH",
"1454 2423 LINE",
"1572 3014 LINE SMOOTH",
"1616 3230 OFFCURVE",
"1815 3384 OFFCURVE",
"2036 3369 CURVE SMOOTH"
);
},
{
closed = 1;
nodes = (
"1942 2799 LINE SMOOTH",
"2180 2774 OFFCURVE",
"2355 2563 OFFCURVE",
"2338 2325 CURVE SMOOTH",
"2335 2290 LINE",
"1973 482 LINE SMOOTH",
"1931 264 OFFCURVE",
"1731 111 OFFCURVE",
"1508 125 CURVE SMOOTH",
"1487 127 LINE SMOOTH",
"1250 154 OFFCURVE",
"1076 365 OFFCURVE",
"1094 601 CURVE SMOOTH",
"1097 636 LINE",
"1458 2444 LINE SMOOTH",
"1502 2658 OFFCURVE",
"1698 2812 OFFCURVE",
"1916 2801 CURVE SMOOTH"
);
},
{
closed = 1;
nodes = (
"1590 1011 LINE SMOOTH",
"1827 982 OFFCURVE",
"2001 770 OFFCURVE",
"1981 531 CURVE",
"1976 498 LINE",
"1860 -88 LINE SMOOTH",
"1815 -305 OFFCURVE",
"1615 -458 OFFCURVE",
"1394 -444 CURVE SMOOTH",
"1373 -442 LINE SMOOTH",
"1137 -415 OFFCURVE",
"963 -204 OFFCURVE",
"980 32 CURVE SMOOTH",
"983 67 LINE",
"1101 656 LINE SMOOTH",
"1143 873 OFFCURVE",
"1343 1028 OFFCURVE",
"1566 1013 CURVE SMOOTH"
);
},
{
closed = 1;
nodes = (
"1477 442 LINE SMOOTH",
"1712 414 OFFCURVE",
"1884 204 OFFCURVE",
"1867 -32 CURVE SMOOTH",
"1864 -66 LINE",
"1746 -656 LINE SMOOTH",
"1702 -876 OFFCURVE",
"1498 -1030 OFFCURVE",
"1273 -1012 CURVE",
"1252 -1009 LINE SMOOTH",
"1019 -980 OFFCURVE",
"849 -772 OFFCURVE",
"866 -536 CURVE SMOOTH",
"869 -502 LINE",
"987 89 LINE SMOOTH",
"1031 305 OFFCURVE",
"1230 459 OFFCURVE",
"1451 444 CURVE SMOOTH"
);
},
{
closed = 1;
nodes = (
"1357 -126 LINE SMOOTH",
"1595 -151 OFFCURVE",
"1770 -362 OFFCURVE",
"1753 -600 CURVE SMOOTH",
"1750 -635 LINE",
"1388 -2443 LINE SMOOTH",
"1344 -2661 OFFCURVE",
"1145 -2814 OFFCURVE",
"923 -2800 CURVE SMOOTH",
"902 -2798 LINE SMOOTH",
"665 -2771 OFFCURVE",
"491 -2560 OFFCURVE",
"509 -2324 CURVE SMOOTH",
"512 -2289 LINE",
"873 -481 LINE SMOOTH",
"917 -267 OFFCURVE",
"1113 -113 OFFCURVE",
"1331 -124 CURVE SMOOTH"
);
}
);
width = 2294;
}
);
unicode = 0079;
},
{
glyphname = n;
lastChange = "2021-02-03 07:47:43 +0000";
layers = (
{
layerId = master01;
paths = (
{
closed = 1;
nodes = (
"751 2367 LINE",
"754 2365 OFFCURVE",
"758 2361 OFFCURVE",
"758 2357 CURVE SMOOTH",
"758 2354 LINE",
"401 567 LINE SMOOTH",
"400 563 OFFCURVE",
"395 559 OFFCURVE",
"391 559 CURVE SMOOTH",
"388 559 LINE SMOOTH",
"384 560 OFFCURVE",
"380 564 OFFCURVE",
"380 569 CURVE SMOOTH",
"380 572 LINE",
"738 2358 LINE",
"738 2362 OFFCURVE",
"743 2366 OFFCURVE",
"747 2367 CURVE SMOOTH"
);
},
{
closed = 1;
nodes = (
"393 579 LINE SMOOTH",
"397 578 OFFCURVE",
"400 574 OFFCURVE",
"401 570 CURVE",
"400 566 LINE",
"287 -2 LINE SMOOTH",
"286 -6 OFFCURVE",
"282 -10 OFFCURVE",
"277 -10 CURVE SMOOTH",
"274 -10 LINE SMOOTH",
"270 -9 OFFCURVE",
"266 -4 OFFCURVE",
"266 0 CURVE SMOOTH",
"266 3 LINE",
"380 571 LINE SMOOTH",
"381 575 OFFCURVE",
"385 579 OFFCURVE",
"389 580 CURVE"
);
},
{
closed = 1;
nodes = (
"1436 2936 OFFCURVE",
"1441 2931 OFFCURVE",
"1441 2925 CURVE SMOOTH",
"1441 2920 OFFCURVE",
"1436 2915 OFFCURVE",
"1430 2915 CURVE SMOOTH",
"1283 2915 OFFCURVE",
"1127 2855 OFFCURVE",
"1002 2751 CURVE SMOOTH",
"876 2646 OFFCURVE",
"788 2502 OFFCURVE",
"758 2354 CURVE SMOOTH",
"757 2350 OFFCURVE",
"753 2346 OFFCURVE",
"748 2346 CURVE SMOOTH",
"745 2346 LINE SMOOTH",
"741 2347 OFFCURVE",
"738 2352 OFFCURVE",
"737 2356 CURVE",
"738 2359 LINE SMOOTH",
"769 2513 OFFCURVE",
"858 2658 OFFCURVE",
"988 2767 CURVE SMOOTH",
"1119 2875 OFFCURVE",
"1276 2936 OFFCURVE",
"1430 2936 CURVE SMOOTH"
);
},
{
closed = 1;
nodes = (
"1585 2936 OFFCURVE",
"1720 2874 OFFCURVE",
"1808 2765 CURVE SMOOTH",
"1895 2656 OFFCURVE",
"1927 2509 OFFCURVE",
"1896 2354 CURVE SMOOTH",
"1895 2350 OFFCURVE",
"1891 2346 OFFCURVE",
"1886 2346 CURVE SMOOTH",
"1883 2346 LINE SMOOTH",
"1879 2347 OFFCURVE",
"1875 2352 OFFCURVE",
"1875 2356 CURVE SMOOTH",
"1875 2359 LINE",
"1905 2507 OFFCURVE",
"1874 2648 OFFCURVE",
"1791 2752 CURVE SMOOTH",
"1708 2856 OFFCURVE",
"1578 2915 OFFCURVE",
"1430 2915 CURVE SMOOTH",
"1425 2915 OFFCURVE",
"1420 2920 OFFCURVE",
"1420 2925 CURVE SMOOTH",
"1420 2931 OFFCURVE",
"1425 2936 OFFCURVE",
"1430 2936 CURVE SMOOTH"
);
},
{
closed = 1;
nodes = (
"1888 2367 LINE",
"1892 2365 OFFCURVE",
"1896 2361 OFFCURVE",
"1896 2357 CURVE SMOOTH",
"1896 2354 LINE",
"1538 567 LINE",
"1538 563 OFFCURVE",
"1533 559 OFFCURVE",
"1529 559 CURVE SMOOTH",
"1525 559 LINE SMOOTH",
"1521 560 OFFCURVE",
"1518 564 OFFCURVE",
"1518 569 CURVE SMOOTH",
"1518 572 LINE",
"1875 2358 LINE SMOOTH",
"1876 2362 OFFCURVE",
"1880 2366 OFFCURVE",
"1884 2367 CURVE SMOOTH"
);
},
{
closed = 1;
nodes = (
"1531 579 LINE SMOOTH",
"1535 578 OFFCURVE",
"1538 574 OFFCURVE",
"1539 570 CURVE",
"1538 566 LINE",
"1425 -2 LINE SMOOTH",
"1424 -6 OFFCURVE",
"1419 -10 OFFCURVE",
"1415 -10 CURVE SMOOTH",
"1412 -10 LINE SMOOTH",
"1408 -9 OFFCURVE",
"1404 -4 OFFCURVE",
"1404 0 CURVE SMOOTH",
"1404 3 LINE",
"1518 571 LINE SMOOTH",
"1519 575 OFFCURVE",
"1523 579 OFFCURVE",
"1527 580 CURVE"
);
}
);
width = 2276;
},
{
layerId = "328E32EA-B50A-4570-BED2-89D75A472110";
paths = (
{
closed = 1;
nodes = (
"804 2799 LINE SMOOTH",
"1042 2774 OFFCURVE",
"1218 2562 OFFCURVE",
"1200 2325 CURVE SMOOTH",
"1197 2290 LINE",
"836 482 LINE SMOOTH",
"792 264 OFFCURVE",
"593 111 OFFCURVE",
"372 125 CURVE SMOOTH",
"349 127 LINE SMOOTH",
"113 154 OFFCURVE",
"-61 364 OFFCURVE",
"-44 601 CURVE SMOOTH",
"-41 636 LINE",
"321 2443 LINE SMOOTH",
"363 2658 OFFCURVE",
"560 2812 OFFCURVE",
"780 2801 CURVE SMOOTH"
);
},
{
closed = 1;
nodes = (
"453 1011 LINE SMOOTH",
"688 983 OFFCURVE",
"860 773 OFFCURVE",
"843 537 CURVE SMOOTH",
"840 503 LINE",
"722 -87 LINE SMOOTH",
"678 -305 OFFCURVE",
"479 -458 OFFCURVE",
"258 -444 CURVE SMOOTH",
"235 -442 LINE SMOOTH",
"-1 -415 OFFCURVE",
"-175 -205 OFFCURVE",
"-158 32 CURVE SMOOTH",
"-155 67 LINE",
"-37 657 LINE SMOOTH",
"7 874 OFFCURVE",
"206 1028 OFFCURVE",
"427 1013 CURVE SMOOTH"
);
},
{
closed = 1;
nodes = (
"1685 3370 OFFCURVE",
"1884 3170 OFFCURVE",
"1884 2925 CURVE SMOOTH",
"1884 2680 OFFCURVE",
"1684 2480 OFFCURVE",
"1440 2480 CURVE SMOOTH",
"1381 2480 OFFCURVE",
"1311 2446 OFFCURVE",
"1251 2380 CURVE SMOOTH",
"1221 2345 OFFCURVE",
"1200 2306 OFFCURVE",
"1193 2269 CURVE SMOOTH",
"1149 2049 OFFCURVE",
"946 1895 OFFCURVE",
"722 1913 CURVE SMOOTH",
"699 1916 LINE SMOOTH",
"466 1946 OFFCURVE",
"296 2155 OFFCURVE",
"313 2390 CURVE SMOOTH",
"316 2421 LINE",
"361 2678 OFFCURVE",
"507 2923 OFFCURVE",
"719 3100 CURVE SMOOTH",
"925 3273 OFFCURVE",
"1185 3370 OFFCURVE",
"1440 3370 CURVE SMOOTH"
);
},
{
closed = 1;
nodes = (
"1724 3370 OFFCURVE",
"1986 3248 OFFCURVE",
"2156 3037 CURVE SMOOTH",
"2323 2827 OFFCURVE",
"2387 2547 OFFCURVE",
"2331 2269 CURVE SMOOTH",
"2287 2049 OFFCURVE",
"2084 1895 OFFCURVE",
"1860 1913 CURVE SMOOTH",
"1838 1915 LINE SMOOTH",
"1604 1944 OFFCURVE",
"1434 2153 OFFCURVE",
"1451 2389 CURVE SMOOTH",
"1454 2427 LINE",
"1459 2442 OFFCURVE",
"1460 2473 OFFCURVE",
"1460 2480 CURVE",
"1456 2480 OFFCURVE",
"1442 2480 OFFCURVE",
"1439 2480 CURVE SMOOTH",
"1195 2480 OFFCURVE",
"995 2680 OFFCURVE",
"994 2925 CURVE SMOOTH",
"995 3170 OFFCURVE",
"1194 3370 OFFCURVE",
"1439 3370 CURVE SMOOTH"
);
},
{
closed = 1;
nodes = (
"1942 2799 LINE SMOOTH",
"2180 2774 OFFCURVE",
"2355 2563 OFFCURVE",
"2338 2325 CURVE SMOOTH",
"2335 2290 LINE",
"1973 482 LINE SMOOTH",
"1931 264 OFFCURVE",
"1731 111 OFFCURVE",
"1508 125 CURVE SMOOTH",
"1487 127 LINE SMOOTH",
"1250 154 OFFCURVE",
"1076 365 OFFCURVE",
"1094 601 CURVE SMOOTH",
"1097 636 LINE",
"1458 2444 LINE SMOOTH",
"1502 2658 OFFCURVE",
"1698 2812 OFFCURVE",
"1916 2801 CURVE SMOOTH"
);
},
{
closed = 1;
nodes = (
"1590 1011 LINE SMOOTH",
"1827 982 OFFCURVE",
"2001 770 OFFCURVE",
"1981 531 CURVE",
"1976 498 LINE",
"1860 -88 LINE SMOOTH",
"1815 -305 OFFCURVE",
"1615 -458 OFFCURVE",
"1394 -444 CURVE SMOOTH",
"1373 -442 LINE SMOOTH",
"1137 -415 OFFCURVE",
"963 -204 OFFCURVE",
"980 32 CURVE SMOOTH",
"983 67 LINE",
"1101 656 LINE SMOOTH",
"1143 873 OFFCURVE",
"1343 1028 OFFCURVE",
"1566 1013 CURVE SMOOTH"
);
}
);
width = 2294;
}
);
unicode = 006E;
},
{
glyphname = z;
lastChange = "2021-02-03 07:47:43 +0000";
layers = (
{
layerId = master01;
paths = (
{
closed = 1;
nodes = (
"1436 2936 OFFCURVE",
"1441 2931 OFFCURVE",
"1441 2925 CURVE SMOOTH",
"1441 2920 OFFCURVE",
"1436 2915 OFFCURVE",
"1430 2915 CURVE SMOOTH",
"1283 2915 OFFCURVE",
"1127 2855 OFFCURVE",
"1002 2751 CURVE SMOOTH",
"876 2646 OFFCURVE",
"788 2502 OFFCURVE",
"758 2354 CURVE SMOOTH",
"757 2350 OFFCURVE",
"753 2346 OFFCURVE",
"748 2346 CURVE SMOOTH",
"745 2346 LINE SMOOTH",
"741 2347 OFFCURVE",
"738 2352 OFFCURVE",
"737 2356 CURVE",
"738 2359 LINE SMOOTH",
"769 2513 OFFCURVE",
"858 2658 OFFCURVE",
"988 2767 CURVE SMOOTH",
"1119 2875 OFFCURVE",
"1276 2936 OFFCURVE",
"1430 2936 CURVE SMOOTH"
);
},
{
closed = 1;
nodes = (
"1531 579 LINE SMOOTH",
"1535 578 OFFCURVE",
"1538 574 OFFCURVE",
"1539 570 CURVE",
"1538 566 LINE SMOOTH",
"1507 413 OFFCURVE",
"1418 267 OFFCURVE",
"1288 159 CURVE SMOOTH",
"1157 50 OFFCURVE",
"999 -10 OFFCURVE",
"845 -10 CURVE SMOOTH",
"840 -10 OFFCURVE",
"835 -5 OFFCURVE",
"835 0 CURVE SMOOTH",
"835 6 OFFCURVE",
"840 11 OFFCURVE",
"845 11 CURVE SMOOTH",
"993 11 OFFCURVE",
"1149 70 OFFCURVE",
"1274 175 CURVE SMOOTH",
"1400 280 OFFCURVE",
"1488 423 OFFCURVE",
"1518 571 CURVE SMOOTH",
"1519 575 OFFCURVE",
"1523 579 OFFCURVE",
"1527 580 CURVE"
);
},
{
closed = 1;
nodes = (
"1585 2936 OFFCURVE",
"1720 2874 OFFCURVE",
"1808 2765 CURVE SMOOTH",
"1895 2656 OFFCURVE",
"1927 2509 OFFCURVE",
"1896 2354 CURVE SMOOTH",
"1895 2350 OFFCURVE",
"1891 2346 OFFCURVE",
"1886 2346 CURVE SMOOTH",
"1883 2346 LINE SMOOTH",
"1879 2347 OFFCURVE",
"1875 2352 OFFCURVE",
"1875 2356 CURVE SMOOTH",
"1875 2359 LINE",
"1905 2507 OFFCURVE",
"1874 2648 OFFCURVE",
"1791 2752 CURVE SMOOTH",
"1708 2856 OFFCURVE",
"1578 2915 OFFCURVE",
"1430 2915 CURVE SMOOTH",
"1425 2915 OFFCURVE",
"1420 2920 OFFCURVE",
"1420 2925 CURVE SMOOTH",
"1420 2931 OFFCURVE",
"1425 2936 OFFCURVE",
"1430 2936 CURVE SMOOTH"
);
},
{
closed = 1;
nodes = (
"1888 2367 LINE",
"1892 2365 OFFCURVE",
"1896 2361 OFFCURVE",
"1896 2357 CURVE SMOOTH",
"1896 2354 LINE",
"1828 2019 OFFCURVE",
"1486 1739 OFFCURVE",
"1145 1455 CURVE SMOOTH",
"803 1171 OFFCURVE",
"464 883 OFFCURVE",
"401 567 CURVE SMOOTH",
"400 563 OFFCURVE",
"395 559 OFFCURVE",
"391 559 CURVE SMOOTH",
"388 559 LINE SMOOTH",
"384 560 OFFCURVE",
"380 564 OFFCURVE",
"380 569 CURVE SMOOTH",
"380 572 LINE",
"448 907 OFFCURVE",
"790 1187 OFFCURVE",
"1131 1471 CURVE SMOOTH",
"1473 1755 OFFCURVE",
"1812 2043 OFFCURVE",
"1875 2358 CURVE SMOOTH",
"1876 2362 OFFCURVE",
"1880 2366 OFFCURVE",
"1884 2367 CURVE SMOOTH"
);
},
{
closed = 1;
nodes = (
"393 579 LINE SMOOTH",
"397 578 OFFCURVE",
"400 574 OFFCURVE",
"401 570 CURVE",
"400 566 LINE SMOOTH",
"371 419 OFFCURVE",
"402 277 OFFCURVE",
"485 174 CURVE SMOOTH",
"568 69 OFFCURVE",
"698 11 OFFCURVE",
"845 11 CURVE SMOOTH",
"851 11 OFFCURVE",
"856 6 OFFCURVE",
"856 0 CURVE SMOOTH",
"856 -5 OFFCURVE",
"851 -10 OFFCURVE",
"845 -10 CURVE SMOOTH",
"691 -10 OFFCURVE",
"556 51 OFFCURVE",
"468 160 CURVE SMOOTH",
"381 270 OFFCURVE",
"349 417 OFFCURVE",
"380 571 CURVE SMOOTH",
"381 575 OFFCURVE",
"385 579 OFFCURVE",
"389 580 CURVE"
);
}
);
width = 2276;
},
{
layerId = "328E32EA-B50A-4570-BED2-89D75A472110";
paths = (
{
closed = 1;
nodes = (
"1685 3370 OFFCURVE",
"1884 3170 OFFCURVE",
"1884 2925 CURVE SMOOTH",
"1884 2680 OFFCURVE",
"1684 2480 OFFCURVE",
"1440 2480 CURVE SMOOTH",
"1381 2480 OFFCURVE",
"1311 2446 OFFCURVE",
"1251 2380 CURVE SMOOTH",
"1221 2345 OFFCURVE",
"1200 2306 OFFCURVE",
"1193 2269 CURVE SMOOTH",
"1149 2049 OFFCURVE",
"946 1895 OFFCURVE",
"722 1913 CURVE SMOOTH",
"699 1916 LINE SMOOTH",
"466 1946 OFFCURVE",
"296 2155 OFFCURVE",
"313 2390 CURVE SMOOTH",
"316 2421 LINE",
"361 2678 OFFCURVE",
"507 2923 OFFCURVE",
"719 3100 CURVE SMOOTH",
"925 3273 OFFCURVE",
"1185 3370 OFFCURVE",
"1440 3370 CURVE SMOOTH"
);
},
{
closed = 1;
nodes = (
"1590 1011 LINE SMOOTH",
"1825 982 OFFCURVE",
"1998 773 OFFCURVE",
"1981 537 CURVE SMOOTH",
"1978 505 LINE",
"1933 248 OFFCURVE",
"1786 1 OFFCURVE",
"1575 -175 CURVE SMOOTH",
"1369 -347 OFFCURVE",
"1109 -445 OFFCURVE",
"854 -445 CURVE SMOOTH",
"610 -445 OFFCURVE",
"410 -245 OFFCURVE",
"409 0 CURVE SMOOTH",
"410 245 OFFCURVE",
"609 445 OFFCURVE",
"854 445 CURVE SMOOTH",
"901 445 OFFCURVE",
"955 467 OFFCURVE",
"1005 508 CURVE SMOOTH",
"1057 552 OFFCURVE",
"1091 605 OFFCURVE",
"1101 656 CURVE SMOOTH",
"1143 873 OFFCURVE",
"1343 1028 OFFCURVE",
"1566 1013 CURVE SMOOTH"
);
},
{
closed = 1;
nodes = (
"1724 3370 OFFCURVE",
"1986 3248 OFFCURVE",
"2156 3037 CURVE SMOOTH",
"2323 2827 OFFCURVE",
"2387 2547 OFFCURVE",
"2331 2269 CURVE SMOOTH",
"2287 2049 OFFCURVE",
"2084 1895 OFFCURVE",
"1860 1913 CURVE SMOOTH",
"1838 1915 LINE SMOOTH",
"1604 1944 OFFCURVE",
"1434 2153 OFFCURVE",
"1451 2389 CURVE SMOOTH",
"1454 2427 LINE",
"1459 2442 OFFCURVE",
"1460 2473 OFFCURVE",
"1460 2480 CURVE",
"1456 2480 OFFCURVE",
"1442 2480 OFFCURVE",
"1439 2480 CURVE SMOOTH",
"1195 2480 OFFCURVE",
"995 2680 OFFCURVE",
"994 2925 CURVE SMOOTH",
"995 3170 OFFCURVE",
"1194 3370 OFFCURVE",
"1439 3370 CURVE SMOOTH"
);
},
{
closed = 1;
nodes = (
"1942 2799 LINE SMOOTH",
"2180 2774 OFFCURVE",
"2355 2563 OFFCURVE",
"2338 2325 CURVE SMOOTH",
"2335 2293 LINE",
"2248 1793 OFFCURVE",
"1776 1408 OFFCURVE",
"1432 1121 CURVE SMOOTH",
"1008 769 OFFCURVE",
"860 602 OFFCURVE",
"836 482 CURVE SMOOTH",
"792 264 OFFCURVE",
"593 111 OFFCURVE",
"372 125 CURVE SMOOTH",
"349 127 LINE SMOOTH",
"113 154 OFFCURVE",
"-61 364 OFFCURVE",
"-44 601 CURVE SMOOTH",
"-41 633 LINE",
"46 1132 OFFCURVE",
"518 1517 OFFCURVE",
"862 1805 CURVE SMOOTH",
"1286 2157 OFFCURVE",
"1434 2324 OFFCURVE",
"1458 2444 CURVE SMOOTH",
"1502 2658 OFFCURVE",
"1698 2812 OFFCURVE",
"1916 2801 CURVE SMOOTH"
);
},
{
closed = 1;
nodes = (
"453 1011 LINE SMOOTH",
"688 983 OFFCURVE",
"860 773 OFFCURVE",
"843 537 CURVE SMOOTH",
"840 499 LINE",
"834 481 OFFCURVE",
"834 444 OFFCURVE",
"834 444 CURVE",
"834 444 OFFCURVE",
"839 445 OFFCURVE",
"855 445 CURVE SMOOTH",
"1100 445 OFFCURVE",
"1299 245 OFFCURVE",
"1299 0 CURVE SMOOTH",
"1299 -245 OFFCURVE",
"1099 -445 OFFCURVE",
"855 -445 CURVE SMOOTH",
"570 -445 OFFCURVE",
"308 -323 OFFCURVE",
"138 -111 CURVE SMOOTH",
"-29 98 OFFCURVE",
"-93 379 OFFCURVE",
"-37 657 CURVE SMOOTH",
"7 874 OFFCURVE",
"206 1028 OFFCURVE",
"427 1013 CURVE SMOOTH"
);
}
);
width = 2294;
}
);
unicode = 007A;
},
{
glyphname = D;
lastChange = "2021-02-03 07:47:43 +0000";
layers = (
{
layerId = master01;
paths = (
{
closed = 1;
nodes = (
"751 2367 LINE",
"754 2365 OFFCURVE",
"758 2361 OFFCURVE",
"758 2357 CURVE SMOOTH",
"758 2354 LINE",
"401 567 LINE SMOOTH",
"400 563 OFFCURVE",
"395 559 OFFCURVE",
"391 559 CURVE SMOOTH",
"388 559 LINE SMOOTH",
"384 560 OFFCURVE",
"380 564 OFFCURVE",
"380 569 CURVE SMOOTH",
"380 572 LINE",
"738 2358 LINE",
"738 2362 OFFCURVE",
"743 2366 OFFCURVE",
"747 2367 CURVE SMOOTH"
);
},
{
closed = 1;
nodes = (
"1436 2936 OFFCURVE",
"1441 2931 OFFCURVE",
"1441 2925 CURVE SMOOTH",
"1441 2920 OFFCURVE",
"1436 2915 OFFCURVE",
"1430 2915 CURVE SMOOTH",
"1283 2915 OFFCURVE",
"1127 2855 OFFCURVE",
"1002 2751 CURVE SMOOTH",
"876 2646 OFFCURVE",
"788 2502 OFFCURVE",
"758 2354 CURVE SMOOTH",
"757 2350 OFFCURVE",
"753 2346 OFFCURVE",
"748 2346 CURVE SMOOTH",
"745 2346 LINE SMOOTH",
"741 2347 OFFCURVE",
"738 2352 OFFCURVE",
"737 2356 CURVE",
"738 2359 LINE SMOOTH",
"769 2513 OFFCURVE",
"858 2658 OFFCURVE",
"988 2767 CURVE SMOOTH",
"1119 2875 OFFCURVE",
"1276 2936 OFFCURVE",
"1430 2936 CURVE SMOOTH"
);
},
{
closed = 1;
nodes = (
"1531 579 LINE SMOOTH",
"1535 578 OFFCURVE",
"1538 574 OFFCURVE",
"1539 570 CURVE",
"1538 566 LINE SMOOTH",
"1507 413 OFFCURVE",
"1418 267 OFFCURVE",
"1288 159 CURVE SMOOTH",
"1157 50 OFFCURVE",
"999 -10 OFFCURVE",
"845 -10 CURVE SMOOTH",
"840 -10 OFFCURVE",
"835 -5 OFFCURVE",
"835 0 CURVE SMOOTH",
"835 6 OFFCURVE",
"840 11 OFFCURVE",
"845 11 CURVE SMOOTH",
"993 11 OFFCURVE",
"1149 70 OFFCURVE",
"1274 175 CURVE SMOOTH",
"1400 280 OFFCURVE",
"1488 423 OFFCURVE",
"1518 571 CURVE SMOOTH",
"1519 575 OFFCURVE",
"1523 579 OFFCURVE",
"1527 580 CURVE"
);
},
{
closed = 1;
nodes = (
"393 579 LINE SMOOTH",
"397 578 OFFCURVE",
"400 574 OFFCURVE",
"401 570 CURVE",
"400 566 LINE SMOOTH",
"371 419 OFFCURVE",
"402 277 OFFCURVE",
"485 174 CURVE SMOOTH",
"568 69 OFFCURVE",
"698 11 OFFCURVE",
"845 11 CURVE SMOOTH",
"851 11 OFFCURVE",
"856 6 OFFCURVE",
"856 0 CURVE SMOOTH",
"856 -5 OFFCURVE",
"851 -10 OFFCURVE",
"845 -10 CURVE SMOOTH",
"691 -10 OFFCURVE",
"556 51 OFFCURVE",
"468 160 CURVE SMOOTH",
"381 270 OFFCURVE",
"349 417 OFFCURVE",
"380 571 CURVE SMOOTH",
"381 575 OFFCURVE",
"385 579 OFFCURVE",
"389 580 CURVE"
);
},
{
closed = 1;
nodes = (
"2587 5860 LINE SMOOTH",
"2591 5859 OFFCURVE",
"2594 5855 OFFCURVE",
"2595 5851 CURVE",
"2594 5847 LINE",
"2481 5279 LINE SMOOTH",
"2480 5275 OFFCURVE",
"2476 5271 OFFCURVE",
"2471 5271 CURVE SMOOTH",
"2468 5271 LINE SMOOTH",
"2464 5272 OFFCURVE",
"2460 5277 OFFCURVE",
"2460 5281 CURVE SMOOTH",
"2460 5284 LINE",
"2574 5852 LINE SMOOTH",
"2575 5856 OFFCURVE",
"2579 5860 OFFCURVE",
"2583 5861 CURVE"
);
},
{
closed = 1;
nodes = (
"2473 5292 LINE",
"2477 5290 OFFCURVE",
"2481 5286 OFFCURVE",
"2481 5282 CURVE SMOOTH",
"2481 5279 LINE",
"2123 3492 LINE",
"2123 3488 OFFCURVE",
"2118 3484 OFFCURVE",
"2114 3484 CURVE SMOOTH",
"2110 3484 LINE SMOOTH",
"2106 3485 OFFCURVE",
"2103 3489 OFFCURVE",
"2103 3494 CURVE SMOOTH",
"2103 3497 LINE",
"2460 5283 LINE SMOOTH",
"2461 5287 OFFCURVE",
"2465 5291 OFFCURVE",
"2469 5292 CURVE SMOOTH"
);
},
{
closed = 1;
nodes = (
"2116 3504 LINE SMOOTH",
"2120 3503 OFFCURVE",
"2123 3499 OFFCURVE",
"2124 3495 CURVE",
"2123 3491 LINE",
"2010 2923 LINE SMOOTH",
"2009 2919 OFFCURVE",
"2004 2915 OFFCURVE",
"2000 2915 CURVE SMOOTH",
"1997 2915 LINE SMOOTH",
"1993 2916 OFFCURVE",
"1989 2921 OFFCURVE",
"1989 2925 CURVE SMOOTH",
"1989 2928 LINE",
"2103 3496 LINE SMOOTH",
"2104 3500 OFFCURVE",
"2108 3504 OFFCURVE",
"2112 3505 CURVE"
);
},
{
closed = 1;
nodes = (
"1723 4398 LINE SMOOTH",
"1729 4398 OFFCURVE",
"1733 4394 OFFCURVE",
"1733 4388 CURVE SMOOTH",
"1733 4382 OFFCURVE",
"1729 4377 OFFCURVE",
"1723 4377 CURVE SMOOTH",
"1154 4377 LINE SMOOTH",
"1148 4377 OFFCURVE",
"1144 4382 OFFCURVE",
"1144 4388 CURVE SMOOTH",
"1144 4394 OFFCURVE",
"1148 4398 OFFCURVE",
"1154 4398 CURVE SMOOTH"
);
},
{
closed = 1;
nodes = (
"2292 4398 LINE SMOOTH",
"2298 4398 OFFCURVE",
"2302 4394 OFFCURVE",
"2302 4388 CURVE SMOOTH",
"2302 4382 OFFCURVE",
"2298 4377 OFFCURVE",
"2292 4377 CURVE SMOOTH",
"1723 4377 LINE SMOOTH",
"1717 4377 OFFCURVE",
"1712 4382 OFFCURVE",
"1712 4388 CURVE SMOOTH",
"1712 4394 OFFCURVE",
"1717 4398 OFFCURVE",
"1723 4398 CURVE SMOOTH"
);
},
{
closed = 1;
nodes = (
"1999 2936 LINE SMOOTH",
"2005 2936 OFFCURVE",
"2010 2931 OFFCURVE",
"2010 2925 CURVE SMOOTH",
"2010 2920 OFFCURVE",
"2005 2915 OFFCURVE",
"1999 2915 CURVE SMOOTH",
"1430 2915 LINE SMOOTH",
"1425 2915 OFFCURVE",
"1420 2920 OFFCURVE",
"1420 2925 CURVE SMOOTH",
"1420 2931 OFFCURVE",
"1425 2936 OFFCURVE",
"1430 2936 CURVE SMOOTH"
);
}
);
width = 2276;
},
{
layerId = "328E32EA-B50A-4570-BED2-89D75A472110";
paths = (
{
closed = 1;
nodes = (
"804 2799 LINE SMOOTH",
"1042 2774 OFFCURVE",
"1218 2562 OFFCURVE",
"1200 2325 CURVE SMOOTH",
"1197 2290 LINE",
"836 482 LINE SMOOTH",
"792 264 OFFCURVE",
"593 111 OFFCURVE",
"372 125 CURVE SMOOTH",
"349 127 LINE SMOOTH",
"113 154 OFFCURVE",
"-61 364 OFFCURVE",
"-44 601 CURVE SMOOTH",
"-41 636 LINE",
"321 2443 LINE SMOOTH",
"363 2658 OFFCURVE",
"560 2812 OFFCURVE",
"780 2801 CURVE SMOOTH"
);
},
{
closed = 1;
nodes = (
"1685 3370 OFFCURVE",
"1884 3170 OFFCURVE",
"1884 2925 CURVE SMOOTH",
"1884 2680 OFFCURVE",
"1684 2480 OFFCURVE",
"1440 2480 CURVE SMOOTH",
"1381 2480 OFFCURVE",
"1311 2446 OFFCURVE",
"1251 2380 CURVE SMOOTH",
"1221 2345 OFFCURVE",
"1200 2306 OFFCURVE",
"1193 2269 CURVE SMOOTH",
"1149 2049 OFFCURVE",
"946 1895 OFFCURVE",
"722 1913 CURVE SMOOTH",
"699 1916 LINE SMOOTH",
"466 1946 OFFCURVE",
"296 2155 OFFCURVE",
"313 2390 CURVE SMOOTH",
"316 2421 LINE",
"361 2678 OFFCURVE",
"507 2923 OFFCURVE",
"719 3100 CURVE SMOOTH",
"925 3273 OFFCURVE",
"1185 3370 OFFCURVE",
"1440 3370 CURVE SMOOTH"
);
},
{
closed = 1;
nodes = (
"1590 1011 LINE SMOOTH",
"1825 982 OFFCURVE",
"1998 773 OFFCURVE",
"1981 537 CURVE SMOOTH",
"1978 505 LINE",
"1933 248 OFFCURVE",
"1786 1 OFFCURVE",
"1575 -175 CURVE SMOOTH",
"1369 -347 OFFCURVE",
"1109 -445 OFFCURVE",
"854 -445 CURVE SMOOTH",
"610 -445 OFFCURVE",
"410 -245 OFFCURVE",
"409 0 CURVE SMOOTH",
"410 245 OFFCURVE",
"609 445 OFFCURVE",
"854 445 CURVE SMOOTH",
"901 445 OFFCURVE",
"955 467 OFFCURVE",
"1005 508 CURVE SMOOTH",
"1057 552 OFFCURVE",
"1091 605 OFFCURVE",
"1101 656 CURVE SMOOTH",
"1143 873 OFFCURVE",
"1343 1028 OFFCURVE",
"1566 1013 CURVE SMOOTH"
);
},
{
closed = 1;
nodes = (
"453 1011 LINE SMOOTH",
"688 983 OFFCURVE",
"860 773 OFFCURVE",
"843 537 CURVE SMOOTH",
"840 499 LINE",
"834 481 OFFCURVE",
"834 444 OFFCURVE",
"834 444 CURVE",
"834 444 OFFCURVE",
"839 445 OFFCURVE",
"855 445 CURVE SMOOTH",
"1100 445 OFFCURVE",
"1299 245 OFFCURVE",
"1299 0 CURVE SMOOTH",
"1299 -245 OFFCURVE",
"1099 -445 OFFCURVE",
"855 -445 CURVE SMOOTH",
"570 -445 OFFCURVE",
"308 -323 OFFCURVE",
"138 -111 CURVE SMOOTH",
"-29 98 OFFCURVE",
"-93 379 OFFCURVE",
"-37 657 CURVE SMOOTH",
"7 874 OFFCURVE",
"206 1028 OFFCURVE",
"427 1013 CURVE SMOOTH"
);
},
{
closed = 1;
nodes = (
"2647 6292 LINE SMOOTH",
"2882 6264 OFFCURVE",
"3054 6054 OFFCURVE",
"3037 5818 CURVE SMOOTH",
"3034 5784 LINE",
"2916 5194 LINE SMOOTH",
"2872 4974 OFFCURVE",
"2669 4820 OFFCURVE",
"2445 4838 CURVE SMOOTH",
"2423 4840 LINE SMOOTH",
"2189 4869 OFFCURVE",
"2019 5078 OFFCURVE",
"2036 5314 CURVE SMOOTH",
"2039 5348 LINE",
"2157 5939 LINE SMOOTH",
"2201 6155 OFFCURVE",
"2400 6309 OFFCURVE",
"2621 6294 CURVE SMOOTH"
);
},
{
closed = 1;
nodes = (
"2527 5724 LINE SMOOTH",
"2765 5699 OFFCURVE",
"2940 5488 OFFCURVE",
"2923 5250 CURVE SMOOTH",
"2920 5215 LINE",
"2558 3407 LINE SMOOTH",
"2516 3189 OFFCURVE",
"2316 3036 OFFCURVE",
"2093 3050 CURVE SMOOTH",
"2072 3052 LINE SMOOTH",
"1835 3079 OFFCURVE",
"1661 3290 OFFCURVE",
"1679 3526 CURVE SMOOTH",
"1682 3561 LINE",
"2043 5369 LINE SMOOTH",
"2087 5583 OFFCURVE",
"2283 5737 OFFCURVE",
"2501 5726 CURVE SMOOTH"
);
},
{
closed = 1;
nodes = (
"2175 3936 LINE SMOOTH",
"2412 3907 OFFCURVE",
"2586 3695 OFFCURVE",
"2566 3456 CURVE",
"2561 3423 LINE",
"2445 2837 LINE SMOOTH",
"2400 2620 OFFCURVE",
"2200 2467 OFFCURVE",
"1979 2481 CURVE SMOOTH",
"1958 2483 LINE SMOOTH",
"1722 2510 OFFCURVE",
"1548 2721 OFFCURVE",
"1565 2957 CURVE SMOOTH",
"1568 2992 LINE",
"1686 3581 LINE SMOOTH",
"1728 3798 OFFCURVE",
"1928 3953 OFFCURVE",
"2151 3938 CURVE SMOOTH"
);
},
{
closed = 1;
nodes = (
"1732 4833 LINE SMOOTH",
"1978 4833 OFFCURVE",
"2177 4633 OFFCURVE",
"2177 4388 CURVE SMOOTH",
"2177 4142 OFFCURVE",
"1977 3943 OFFCURVE",
"1732 3943 CURVE SMOOTH",
"1163 3943 LINE SMOOTH",
"917 3943 OFFCURVE",
"718 4143 OFFCURVE",
"718 4388 CURVE SMOOTH",
"718 4634 OFFCURVE",
"918 4833 OFFCURVE",
"1163 4833 CURVE SMOOTH"
);
},
{
closed = 1;
nodes = (
"2301 4833 LINE SMOOTH",
"2547 4833 OFFCURVE",
"2746 4633 OFFCURVE",
"2746 4388 CURVE SMOOTH",
"2746 4142 OFFCURVE",
"2546 3943 OFFCURVE",
"2301 3943 CURVE SMOOTH",
"1732 3943 LINE SMOOTH",
"1486 3943 OFFCURVE",
"1287 4143 OFFCURVE",
"1287 4388 CURVE SMOOTH",
"1287 4634 OFFCURVE",
"1487 4833 OFFCURVE",
"1732 4833 CURVE SMOOTH"
);
},
{
closed = 1;
nodes = (
"2008 3370 LINE SMOOTH",
"2254 3370 OFFCURVE",
"2453 3170 OFFCURVE",
"2453 2925 CURVE SMOOTH",
"2453 2680 OFFCURVE",
"2253 2480 OFFCURVE",
"2008 2480 CURVE SMOOTH",
"1439 2480 LINE SMOOTH",
"1195 2480 OFFCURVE",
"995 2680 OFFCURVE",
"994 2925 CURVE SMOOTH",
"995 3170 OFFCURVE",
"1194 3370 OFFCURVE",
"1439 3370 CURVE SMOOTH"
);
}
);
width = 2294;
}
);
unicode = 0044;
},
{
glyphname = s;
lastChange = "2021-02-03 07:47:43 +0000";
layers = (
{
layerId = master01;
paths = (
{
closed = 1;
nodes = (
"1436 2936 OFFCURVE",
"1441 2931 OFFCURVE",
"1441 2925 CURVE SMOOTH",
"1441 2920 OFFCURVE",
"1436 2915 OFFCURVE",
"1430 2915 CURVE SMOOTH",
"1283 2915 OFFCURVE",
"1127 2855 OFFCURVE",
"1002 2751 CURVE SMOOTH",
"876 2646 OFFCURVE",
"788 2502 OFFCURVE",
"758 2354 CURVE SMOOTH",
"757 2350 OFFCURVE",
"753 2346 OFFCURVE",
"748 2346 CURVE SMOOTH",
"745 2346 LINE SMOOTH",
"741 2347 OFFCURVE",
"738 2352 OFFCURVE",
"737 2356 CURVE",
"738 2359 LINE SMOOTH",
"769 2513 OFFCURVE",
"858 2658 OFFCURVE",
"988 2767 CURVE SMOOTH",
"1119 2875 OFFCURVE",
"1276 2936 OFFCURVE",
"1430 2936 CURVE SMOOTH"
);
},
{
closed = 1;
nodes = (
"751 2367 LINE",
"754 2365 OFFCURVE",
"758 2361 OFFCURVE",
"758 2357 CURVE SMOOTH",
"758 2354 LINE",
"729 2210 OFFCURVE",
"757 2062 OFFCURVE",
"842 1899 CURVE SMOOTH",
"919 1754 OFFCURVE",
"1032 1611 OFFCURVE",
"1146 1469 CURVE SMOOTH",
"1260 1327 OFFCURVE",
"1374 1186 OFFCURVE",
"1452 1036 CURVE SMOOTH",
"1540 868 OFFCURVE",
"1568 716 OFFCURVE",
"1538 567 CURVE",
"1538 563 OFFCURVE",
"1533 559 OFFCURVE",
"1529 559 CURVE SMOOTH",
"1525 559 LINE SMOOTH",
"1521 560 OFFCURVE",
"1518 564 OFFCURVE",
"1518 569 CURVE SMOOTH",
"1518 572 LINE",
"1547 716 OFFCURVE",
"1519 863 OFFCURVE",
"1434 1027 CURVE SMOOTH",
"1357 1172 OFFCURVE",
"1244 1314 OFFCURVE",
"1130 1456 CURVE SMOOTH",
"1016 1598 OFFCURVE",
"902 1740 OFFCURVE",
"824 1889 CURVE SMOOTH",
"736 2057 OFFCURVE",
"708 2210 OFFCURVE",
"738 2358 CURVE",
"738 2362 OFFCURVE",
"743 2366 OFFCURVE",
"747 2367 CURVE SMOOTH"
);
},
{
closed = 1;
nodes = (
"1531 579 LINE SMOOTH",
"1535 578 OFFCURVE",
"1538 574 OFFCURVE",
"1539 570 CURVE",
"1538 566 LINE SMOOTH",
"1507 413 OFFCURVE",
"1418 267 OFFCURVE",
"1288 159 CURVE SMOOTH",
"1157 50 OFFCURVE",
"999 -10 OFFCURVE",
"845 -10 CURVE SMOOTH",
"840 -10 OFFCURVE",
"835 -5 OFFCURVE",
"835 0 CURVE SMOOTH",
"835 6 OFFCURVE",
"840 11 OFFCURVE",
"845 11 CURVE SMOOTH",
"993 11 OFFCURVE",
"1149 70 OFFCURVE",
"1274 175 CURVE SMOOTH",
"1400 280 OFFCURVE",
"1488 423 OFFCURVE",
"1518 571 CURVE SMOOTH",
"1519 575 OFFCURVE",
"1523 579 OFFCURVE",
"1527 580 CURVE"
);
},
{
closed = 1;
nodes = (
"1585 2936 OFFCURVE",
"1720 2874 OFFCURVE",
"1808 2765 CURVE SMOOTH",
"1895 2656 OFFCURVE",
"1927 2509 OFFCURVE",
"1896 2354 CURVE SMOOTH",
"1895 2350 OFFCURVE",
"1891 2346 OFFCURVE",
"1886 2346 CURVE SMOOTH",
"1883 2346 LINE SMOOTH",
"1879 2347 OFFCURVE",
"1875 2352 OFFCURVE",
"1875 2356 CURVE SMOOTH",
"1875 2359 LINE",
"1905 2507 OFFCURVE",
"1874 2648 OFFCURVE",
"1791 2752 CURVE SMOOTH",
"1708 2856 OFFCURVE",
"1578 2915 OFFCURVE",
"1430 2915 CURVE SMOOTH",
"1425 2915 OFFCURVE",
"1420 2920 OFFCURVE",
"1420 2925 CURVE SMOOTH",
"1420 2931 OFFCURVE",
"1425 2936 OFFCURVE",
"1430 2936 CURVE SMOOTH"
);
},
{
closed = 1;
nodes = (
"393 579 LINE SMOOTH",
"397 578 OFFCURVE",
"400 574 OFFCURVE",
"401 570 CURVE",
"400 566 LINE SMOOTH",
"371 419 OFFCURVE",
"402 277 OFFCURVE",
"485 174 CURVE SMOOTH",
"568 69 OFFCURVE",
"698 11 OFFCURVE",
"845 11 CURVE SMOOTH",
"851 11 OFFCURVE",
"856 6 OFFCURVE",
"856 0 CURVE SMOOTH",
"856 -5 OFFCURVE",
"851 -10 OFFCURVE",
"845 -10 CURVE SMOOTH",
"691 -10 OFFCURVE",
"556 51 OFFCURVE",
"468 160 CURVE SMOOTH",
"381 270 OFFCURVE",
"349 417 OFFCURVE",
"380 571 CURVE SMOOTH",
"381 575 OFFCURVE",
"385 579 OFFCURVE",
"389 580 CURVE"
);
}
);
width = 2276;
},
{
layerId = "328E32EA-B50A-4570-BED2-89D75A472110";
paths = (
{
closed = 1;
nodes = (
"1685 3370 OFFCURVE",
"1884 3170 OFFCURVE",
"1884 2925 CURVE SMOOTH",
"1884 2680 OFFCURVE",
"1684 2480 OFFCURVE",
"1440 2480 CURVE SMOOTH",
"1381 2480 OFFCURVE",
"1311 2446 OFFCURVE",
"1251 2380 CURVE SMOOTH",
"1221 2345 OFFCURVE",
"1200 2306 OFFCURVE",
"1193 2269 CURVE SMOOTH",
"1149 2049 OFFCURVE",
"946 1895 OFFCURVE",
"722 1913 CURVE SMOOTH",
"699 1916 LINE SMOOTH",
"466 1946 OFFCURVE",
"296 2155 OFFCURVE",
"313 2390 CURVE SMOOTH",
"316 2421 LINE",
"361 2678 OFFCURVE",
"507 2923 OFFCURVE",
"719 3100 CURVE SMOOTH",
"925 3273 OFFCURVE",
"1185 3370 OFFCURVE",
"1440 3370 CURVE SMOOTH"
);
},
{
closed = 1;
nodes = (
"804 2799 LINE SMOOTH",
"1042 2774 OFFCURVE",
"1218 2562 OFFCURVE",
"1200 2325 CURVE SMOOTH",
"1197 2289 LINE",
"1184 2233 OFFCURVE",
"1191 2188 OFFCURVE",
"1236 2101 CURVE SMOOTH",
"1294 1992 OFFCURVE",
"1381 1882 OFFCURVE",
"1494 1741 CURVE SMOOTH",
"1608 1599 OFFCURVE",
"1748 1425 OFFCURVE",
"1846 1238 CURVE SMOOTH",
"1979 983 OFFCURVE",
"2023 728 OFFCURVE",
"1973 482 CURVE SMOOTH",
"1931 264 OFFCURVE",
"1731 111 OFFCURVE",
"1508 125 CURVE SMOOTH",
"1487 127 LINE SMOOTH",
"1250 154 OFFCURVE",
"1076 365 OFFCURVE",
"1094 601 CURVE SMOOTH",
"1097 637 LINE",
"1110 693 OFFCURVE",
"1103 739 OFFCURVE",
"1058 825 CURVE SMOOTH",
"1000 934 OFFCURVE",
"913 1044 OFFCURVE",
"800 1185 CURVE SMOOTH",
"686 1327 OFFCURVE",
"546 1501 OFFCURVE",
"448 1687 CURVE SMOOTH",
"314 1942 OFFCURVE",
"271 2197 OFFCURVE",
"321 2443 CURVE SMOOTH",
"363 2658 OFFCURVE",
"560 2812 OFFCURVE",
"780 2801 CURVE SMOOTH"
);
},
{
closed = 1;
nodes = (
"1590 1011 LINE SMOOTH",
"1825 982 OFFCURVE",
"1998 773 OFFCURVE",
"1981 537 CURVE SMOOTH",
"1978 505 LINE",
"1933 248 OFFCURVE",
"1786 1 OFFCURVE",
"1575 -175 CURVE SMOOTH",
"1369 -347 OFFCURVE",
"1109 -445 OFFCURVE",
"854 -445 CURVE SMOOTH",
"610 -445 OFFCURVE",
"410 -245 OFFCURVE",
"409 0 CURVE SMOOTH",
"410 245 OFFCURVE",
"609 445 OFFCURVE",
"854 445 CURVE SMOOTH",
"901 445 OFFCURVE",
"955 467 OFFCURVE",
"1005 508 CURVE SMOOTH",
"1057 552 OFFCURVE",
"1091 605 OFFCURVE",
"1101 656 CURVE SMOOTH",
"1143 873 OFFCURVE",
"1343 1028 OFFCURVE",
"1566 1013 CURVE SMOOTH"
);
},
{
closed = 1;
nodes = (
"1724 3370 OFFCURVE",
"1986 3248 OFFCURVE",
"2156 3037 CURVE SMOOTH",
"2323 2827 OFFCURVE",
"2387 2547 OFFCURVE",
"2331 2269 CURVE SMOOTH",
"2287 2049 OFFCURVE",
"2084 1895 OFFCURVE",
"1860 1913 CURVE SMOOTH",
"1838 1915 LINE SMOOTH",
"1604 1944 OFFCURVE",
"1434 2153 OFFCURVE",
"1451 2389 CURVE SMOOTH",
"1454 2427 LINE",
"1459 2442 OFFCURVE",
"1460 2473 OFFCURVE",
"1460 2480 CURVE",
"1456 2480 OFFCURVE",
"1442 2480 OFFCURVE",
"1439 2480 CURVE SMOOTH",
"1195 2480 OFFCURVE",
"995 2680 OFFCURVE",
"994 2925 CURVE SMOOTH",
"995 3170 OFFCURVE",
"1194 3370 OFFCURVE",
"1439 3370 CURVE SMOOTH"
);
},
{
closed = 1;
nodes = (
"453 1011 LINE SMOOTH",
"688 983 OFFCURVE",
"860 773 OFFCURVE",
"843 537 CURVE SMOOTH",
"840 499 LINE",
"834 481 OFFCURVE",
"834 444 OFFCURVE",
"834 444 CURVE",
"834 444 OFFCURVE",
"839 445 OFFCURVE",
"855 445 CURVE SMOOTH",
"1100 445 OFFCURVE",
"1299 245 OFFCURVE",
"1299 0 CURVE SMOOTH",
"1299 -245 OFFCURVE",
"1099 -445 OFFCURVE",
"855 -445 CURVE SMOOTH",
"570 -445 OFFCURVE",
"308 -323 OFFCURVE",
"138 -111 CURVE SMOOTH",
"-29 98 OFFCURVE",
"-93 379 OFFCURVE",
"-37 657 CURVE SMOOTH",
"7 874 OFFCURVE",
"206 1028 OFFCURVE",
"427 1013 CURVE SMOOTH"
);
}
);
width = 2294;
}
);
unicode = 0073;
},
{
glyphname = r;
lastChange = "2021-02-03 07:47:43 +0000";
layers = (
{
layerId = master01;
paths = (
{
closed = 1;
nodes = (
"751 2367 LINE",
"754 2365 OFFCURVE",
"758 2361 OFFCURVE",
"758 2357 CURVE SMOOTH",
"758 2354 LINE",
"401 567 LINE SMOOTH",
"400 563 OFFCURVE",
"395 559 OFFCURVE",
"391 559 CURVE SMOOTH",
"388 559 LINE SMOOTH",
"384 560 OFFCURVE",
"380 564 OFFCURVE",
"380 569 CURVE SMOOTH",
"380 572 LINE",
"738 2358 LINE",
"738 2362 OFFCURVE",
"743 2366 OFFCURVE",
"747 2367 CURVE SMOOTH"
);
},
{
closed = 1;
nodes = (
"393 579 LINE SMOOTH",
"397 578 OFFCURVE",
"400 574 OFFCURVE",
"401 570 CURVE",
"400 566 LINE",
"287 -2 LINE SMOOTH",
"286 -6 OFFCURVE",
"282 -10 OFFCURVE",
"277 -10 CURVE SMOOTH",
"274 -10 LINE SMOOTH",
"270 -9 OFFCURVE",
"266 -4 OFFCURVE",
"266 0 CURVE SMOOTH",
"266 3 LINE",
"380 571 LINE SMOOTH",
"381 575 OFFCURVE",
"385 579 OFFCURVE",
"389 580 CURVE"
);
},
{
closed = 1;
nodes = (
"1436 2936 OFFCURVE",
"1441 2931 OFFCURVE",
"1441 2925 CURVE SMOOTH",
"1441 2920 OFFCURVE",
"1436 2915 OFFCURVE",
"1430 2915 CURVE SMOOTH",
"1283 2915 OFFCURVE",
"1127 2855 OFFCURVE",
"1002 2751 CURVE SMOOTH",
"876 2646 OFFCURVE",
"788 2502 OFFCURVE",
"758 2354 CURVE SMOOTH",
"757 2350 OFFCURVE",
"753 2346 OFFCURVE",
"748 2346 CURVE SMOOTH",
"745 2346 LINE SMOOTH",
"741 2347 OFFCURVE",
"738 2352 OFFCURVE",
"737 2356 CURVE",
"738 2359 LINE SMOOTH",
"769 2513 OFFCURVE",
"858 2658 OFFCURVE",
"988 2767 CURVE SMOOTH",
"1119 2875 OFFCURVE",
"1276 2936 OFFCURVE",
"1430 2936 CURVE SMOOTH"
);
}
);
width = 1707;
},
{
layerId = "328E32EA-B50A-4570-BED2-89D75A472110";
paths = (
{
closed = 1;
nodes = (
"804 2799 LINE SMOOTH",
"1042 2774 OFFCURVE",
"1218 2562 OFFCURVE",
"1200 2325 CURVE SMOOTH",
"1197 2290 LINE",
"836 482 LINE SMOOTH",
"792 264 OFFCURVE",
"593 111 OFFCURVE",
"372 125 CURVE SMOOTH",
"349 127 LINE SMOOTH",
"113 154 OFFCURVE",
"-61 364 OFFCURVE",
"-44 601 CURVE SMOOTH",
"-41 636 LINE",
"321 2443 LINE SMOOTH",
"363 2658 OFFCURVE",
"560 2812 OFFCURVE",
"780 2801 CURVE SMOOTH"
);
},
{
closed = 1;
nodes = (
"453 1011 LINE SMOOTH",
"688 983 OFFCURVE",
"860 773 OFFCURVE",
"843 537 CURVE SMOOTH",
"840 503 LINE",
"722 -87 LINE SMOOTH",
"678 -305 OFFCURVE",
"479 -458 OFFCURVE",
"258 -444 CURVE SMOOTH",
"235 -442 LINE SMOOTH",
"-1 -415 OFFCURVE",
"-175 -205 OFFCURVE",
"-158 32 CURVE SMOOTH",
"-155 67 LINE",
"-37 657 LINE SMOOTH",
"7 874 OFFCURVE",
"206 1028 OFFCURVE",
"427 1013 CURVE SMOOTH"
);
},
{
closed = 1;
nodes = (
"1685 3370 OFFCURVE",
"1884 3170 OFFCURVE",
"1884 2925 CURVE SMOOTH",
"1884 2680 OFFCURVE",
"1684 2480 OFFCURVE",
"1440 2480 CURVE SMOOTH",
"1381 2480 OFFCURVE",
"1311 2446 OFFCURVE",
"1251 2380 CURVE SMOOTH",
"1221 2345 OFFCURVE",
"1200 2306 OFFCURVE",
"1193 2269 CURVE SMOOTH",
"1149 2049 OFFCURVE",
"946 1895 OFFCURVE",
"722 1913 CURVE SMOOTH",
"699 1916 LINE SMOOTH",
"466 1946 OFFCURVE",
"296 2155 OFFCURVE",
"313 2390 CURVE SMOOTH",
"316 2421 LINE",
"361 2678 OFFCURVE",
"507 2923 OFFCURVE",
"719 3100 CURVE SMOOTH",
"925 3273 OFFCURVE",
"1185 3370 OFFCURVE",
"1440 3370 CURVE SMOOTH"
);
}
);
width = 1724;
}
);
unicode = 0072;
},
{
glyphname = H;
lastChange = "2021-02-03 07:47:43 +0000";
layers = (
{
layerId = master01;
paths = (
{
closed = 1;
nodes = (
"864 2935 LINE SMOOTH",
"868 2934 OFFCURVE",
"872 2930 OFFCURVE",
"872 2926 CURVE SMOOTH",
"872 2922 LINE",
"758 2354 LINE SMOOTH",
"757 2350 OFFCURVE",
"753 2346 OFFCURVE",
"748 2346 CURVE SMOOTH",
"745 2346 LINE SMOOTH",
"741 2347 OFFCURVE",
"738 2352 OFFCURVE",
"737 2356 CURVE",
"738 2359 LINE",
"851 2927 LINE SMOOTH",
"852 2931 OFFCURVE",
"856 2935 OFFCURVE",
"860 2936 CURVE"
);
},
{
closed = 1;
nodes = (
"751 2367 LINE",
"754 2365 OFFCURVE",
"758 2361 OFFCURVE",
"758 2357 CURVE SMOOTH",
"758 2354 LINE",
"401 567 LINE SMOOTH",
"400 563 OFFCURVE",
"395 559 OFFCURVE",
"391 559 CURVE SMOOTH",
"388 559 LINE SMOOTH",
"384 560 OFFCURVE",
"380 564 OFFCURVE",
"380 569 CURVE SMOOTH",
"380 572 LINE",
"738 2358 LINE",
"738 2362 OFFCURVE",
"743 2366 OFFCURVE",
"747 2367 CURVE SMOOTH"
);
},
{
closed = 1;
nodes = (
"393 579 LINE SMOOTH",
"397 578 OFFCURVE",
"400 574 OFFCURVE",
"401 570 CURVE",
"400 566 LINE",
"287 -2 LINE SMOOTH",
"286 -6 OFFCURVE",
"282 -10 OFFCURVE",
"277 -10 CURVE SMOOTH",
"274 -10 LINE SMOOTH",
"270 -9 OFFCURVE",
"266 -4 OFFCURVE",
"266 0 CURVE SMOOTH",
"266 3 LINE",
"380 571 LINE SMOOTH",
"381 575 OFFCURVE",
"385 579 OFFCURVE",
"389 580 CURVE"
);
},
{
closed = 1;
nodes = (
"279 10 LINE SMOOTH",
"283 9 OFFCURVE",
"287 5 OFFCURVE",
"287 1 CURVE SMOOTH",
"287 -3 LINE",
"173 -571 LINE SMOOTH",
"172 -575 OFFCURVE",
"168 -579 OFFCURVE",
"163 -579 CURVE SMOOTH",
"160 -579 LINE SMOOTH",
"156 -578 OFFCURVE",
"153 -573 OFFCURVE",
"152 -569 CURVE",
"153 -566 LINE",
"266 2 LINE SMOOTH",
"267 6 OFFCURVE",
"271 10 OFFCURVE",
"275 11 CURVE"
);
},
{
closed = 1;
nodes = (
"166 -558 LINE",
"169 -560 OFFCURVE",
"173 -564 OFFCURVE",
"173 -568 CURVE SMOOTH",
"173 -571 LINE",
"-184 -2358 LINE SMOOTH",
"-185 -2362 OFFCURVE",
"-190 -2366 OFFCURVE",
"-194 -2366 CURVE SMOOTH",
"-197 -2366 LINE SMOOTH",
"-201 -2365 OFFCURVE",
"-205 -2361 OFFCURVE",
"-205 -2356 CURVE SMOOTH",
"-205 -2353 LINE",
"153 -567 LINE",
"153 -563 OFFCURVE",
"158 -559 OFFCURVE",
"162 -558 CURVE SMOOTH"
);
},
{
closed = 1;
nodes = (
"-192 -2346 LINE SMOOTH",
"-188 -2347 OFFCURVE",
"-185 -2351 OFFCURVE",
"-184 -2355 CURVE",
"-185 -2359 LINE",
"-298 -2927 LINE SMOOTH",
"-299 -2931 OFFCURVE",
"-303 -2935 OFFCURVE",
"-308 -2935 CURVE SMOOTH",
"-311 -2935 LINE SMOOTH",
"-315 -2934 OFFCURVE",
"-319 -2929 OFFCURVE",
"-319 -2925 CURVE SMOOTH",
"-319 -2922 LINE",
"-205 -2354 LINE SMOOTH",
"-204 -2350 OFFCURVE",
"-200 -2346 OFFCURVE",
"-196 -2345 CURVE"
);
},
{
closed = 1;
nodes = (
"393 579 LINE SMOOTH",
"397 578 OFFCURVE",
"400 574 OFFCURVE",
"401 570 CURVE",
"400 566 LINE SMOOTH",
"371 419 OFFCURVE",
"402 277 OFFCURVE",
"485 174 CURVE SMOOTH",
"568 69 OFFCURVE",
"698 11 OFFCURVE",
"845 11 CURVE SMOOTH",
"851 11 OFFCURVE",
"856 6 OFFCURVE",
"856 0 CURVE SMOOTH",
"856 -5 OFFCURVE",
"851 -10 OFFCURVE",
"845 -10 CURVE SMOOTH",
"691 -10 OFFCURVE",
"556 51 OFFCURVE",
"468 160 CURVE SMOOTH",
"381 270 OFFCURVE",
"349 417 OFFCURVE",
"380 571 CURVE SMOOTH",
"381 575 OFFCURVE",
"385 579 OFFCURVE",
"389 580 CURVE"
);
}
);
width = 1139;
},
{
layerId = "328E32EA-B50A-4570-BED2-89D75A472110";
paths = (
{
closed = 1;
nodes = (
"923 3367 LINE SMOOTH",
"1158 3340 OFFCURVE",
"1332 3129 OFFCURVE",
"1314 2892 CURVE SMOOTH",
"1311 2859 LINE",
"1193 2268 LINE SMOOTH",
"1148 2049 OFFCURVE",
"946 1895 OFFCURVE",
"722 1913 CURVE SMOOTH",
"699 1916 LINE SMOOTH",
"466 1946 OFFCURVE",
"296 2154 OFFCURVE",
"313 2389 CURVE SMOOTH",
"316 2423 LINE",
"434 3014 LINE SMOOTH",
"478 3230 OFFCURVE",
"678 3384 OFFCURVE",
"898 3369 CURVE SMOOTH"
);
},
{
closed = 1;
nodes = (
"804 2799 LINE SMOOTH",
"1042 2774 OFFCURVE",
"1218 2562 OFFCURVE",
"1200 2325 CURVE SMOOTH",
"1197 2290 LINE",
"836 482 LINE SMOOTH",
"792 264 OFFCURVE",
"593 111 OFFCURVE",
"372 125 CURVE SMOOTH",
"349 127 LINE SMOOTH",
"113 154 OFFCURVE",
"-61 364 OFFCURVE",
"-44 601 CURVE SMOOTH",
"-41 636 LINE",
"321 2443 LINE SMOOTH",
"363 2658 OFFCURVE",
"560 2812 OFFCURVE",
"780 2801 CURVE SMOOTH"
);
},
{
closed = 1;
nodes = (
"453 1011 LINE SMOOTH",
"688 983 OFFCURVE",
"860 773 OFFCURVE",
"843 537 CURVE SMOOTH",
"840 503 LINE",
"722 -87 LINE SMOOTH",
"678 -305 OFFCURVE",
"479 -458 OFFCURVE",
"258 -444 CURVE SMOOTH",
"235 -442 LINE SMOOTH",
"-1 -415 OFFCURVE",
"-175 -205 OFFCURVE",
"-158 32 CURVE SMOOTH",
"-155 67 LINE",
"-37 657 LINE SMOOTH",
"7 874 OFFCURVE",
"206 1028 OFFCURVE",
"427 1013 CURVE SMOOTH"
);
},
{
closed = 1;
nodes = (
"338 442 LINE SMOOTH",
"573 415 OFFCURVE",
"747 204 OFFCURVE",
"729 -33 CURVE SMOOTH",
"726 -66 LINE",
"608 -657 LINE SMOOTH",
"563 -876 OFFCURVE",
"361 -1030 OFFCURVE",
"137 -1012 CURVE SMOOTH",
"115 -1010 LINE SMOOTH",
"-118 -980 OFFCURVE",
"-289 -771 OFFCURVE",
"-272 -536 CURVE SMOOTH",
"-269 -502 LINE",
"-151 89 LINE SMOOTH",
"-107 305 OFFCURVE",
"93 459 OFFCURVE",
"313 444 CURVE SMOOTH"
);
},
{
closed = 1;
nodes = (
"219 -126 LINE SMOOTH",
"457 -151 OFFCURVE",
"633 -363 OFFCURVE",
"615 -600 CURVE SMOOTH",
"612 -635 LINE",
"251 -2443 LINE SMOOTH",
"207 -2661 OFFCURVE",
"8 -2814 OFFCURVE",
"-213 -2800 CURVE SMOOTH",
"-236 -2798 LINE SMOOTH",
"-472 -2771 OFFCURVE",
"-646 -2561 OFFCURVE",
"-629 -2324 CURVE SMOOTH",
"-626 -2289 LINE",
"-264 -482 LINE SMOOTH",
"-222 -267 OFFCURVE",
"-25 -113 OFFCURVE",
"195 -124 CURVE SMOOTH"
);
},
{
closed = 1;
nodes = (
"-133 -1914 LINE SMOOTH",
"102 -1941 OFFCURVE",
"275 -2152 OFFCURVE",
"258 -2388 CURVE SMOOTH",
"255 -2422 LINE",
"137 -3012 LINE SMOOTH",
"93 -3230 OFFCURVE",
"-106 -3383 OFFCURVE",
"-327 -3369 CURVE SMOOTH",
"-350 -3367 LINE SMOOTH",
"-586 -3340 OFFCURVE",
"-760 -3130 OFFCURVE",
"-743 -2893 CURVE SMOOTH",
"-740 -2858 LINE",
"-622 -2268 LINE SMOOTH",
"-577 -2051 OFFCURVE",
"-379 -1897 OFFCURVE",
"-157 -1912 CURVE SMOOTH"
);
},
{
closed = 1;
nodes = (
"453 1011 LINE SMOOTH",
"688 983 OFFCURVE",
"860 773 OFFCURVE",
"843 537 CURVE SMOOTH",
"840 499 LINE",
"834 481 OFFCURVE",
"834 444 OFFCURVE",
"834 444 CURVE",
"834 444 OFFCURVE",
"839 445 OFFCURVE",
"855 445 CURVE SMOOTH",
"1100 445 OFFCURVE",
"1299 245 OFFCURVE",
"1299 0 CURVE SMOOTH",
"1299 -245 OFFCURVE",
"1099 -445 OFFCURVE",
"855 -445 CURVE SMOOTH",
"570 -445 OFFCURVE",
"308 -323 OFFCURVE",
"138 -111 CURVE SMOOTH",
"-29 98 OFFCURVE",
"-93 379 OFFCURVE",
"-37 657 CURVE SMOOTH",
"7 874 OFFCURVE",
"206 1028 OFFCURVE",
"427 1013 CURVE SMOOTH"
);
}
);
width = 1156;
}
);
unicode = 0048;
},
{
glyphname = i;
lastChange = "2021-02-03 07:47:43 +0000";
layers = (
{
layerId = master01;
paths = (
{
closed = 1;
nodes = (
"1190 4386 OFFCURVE",
"1188 4381 OFFCURVE",
"1183 4377 CURVE SMOOTH",
"1178 4372 OFFCURVE",
"1174 4370 OFFCURVE",
"1167 4370 CURVE SMOOTH",
"1161 4370 OFFCURVE",
"1156 4372 OFFCURVE",
"1151 4377 CURVE SMOOTH",
"1147 4381 OFFCURVE",
"1145 4386 OFFCURVE",
"1145 4393 CURVE SMOOTH",
"1145 4399 OFFCURVE",
"1147 4404 OFFCURVE",
"1151 4408 CURVE SMOOTH",
"1156 4413 OFFCURVE",
"1161 4415 OFFCURVE",
"1167 4415 CURVE SMOOTH",
"1174 4415 OFFCURVE",
"1178 4413 OFFCURVE",
"1183 4408 CURVE SMOOTH",
"1188 4404 OFFCURVE",
"1190 4399 OFFCURVE",
"1190 4393 CURVE SMOOTH"
);
},
{
closed = 1;
nodes = (
"880 2935 LINE SMOOTH",
"884 2934 OFFCURVE",
"888 2930 OFFCURVE",
"888 2926 CURVE SMOOTH",
"888 2922 LINE",
"774 2354 LINE SMOOTH",
"773 2350 OFFCURVE",
"769 2346 OFFCURVE",
"764 2346 CURVE SMOOTH",
"761 2346 LINE SMOOTH",
"757 2347 OFFCURVE",
"754 2352 OFFCURVE",
"753 2356 CURVE",
"754 2359 LINE",
"867 2927 LINE SMOOTH",
"868 2931 OFFCURVE",
"872 2935 OFFCURVE",
"876 2936 CURVE"
);
},
{
closed = 1;
nodes = (
"767 2367 LINE",
"770 2365 OFFCURVE",
"774 2361 OFFCURVE",
"774 2357 CURVE SMOOTH",
"774 2354 LINE",
"417 567 LINE SMOOTH",
"416 563 OFFCURVE",
"411 559 OFFCURVE",
"407 559 CURVE SMOOTH",
"404 559 LINE SMOOTH",
"400 560 OFFCURVE",
"396 564 OFFCURVE",
"396 569 CURVE SMOOTH",
"396 572 LINE",
"754 2358 LINE",
"754 2362 OFFCURVE",
"759 2366 OFFCURVE",
"763 2367 CURVE SMOOTH"
);
},
{
closed = 1;
nodes = (
"409 579 LINE SMOOTH",
"413 578 OFFCURVE",
"416 574 OFFCURVE",
"417 570 CURVE",
"416 566 LINE",
"303 -2 LINE SMOOTH",
"302 -6 OFFCURVE",
"298 -10 OFFCURVE",
"293 -10 CURVE SMOOTH",
"290 -10 LINE SMOOTH",
"286 -9 OFFCURVE",
"282 -4 OFFCURVE",
"282 0 CURVE SMOOTH",
"282 3 LINE",
"396 571 LINE SMOOTH",
"397 575 OFFCURVE",
"401 579 OFFCURVE",
"405 580 CURVE"
);
}
);
width = 1162;
},
{
layerId = "328E32EA-B50A-4570-BED2-89D75A472110";
paths = (
{
closed = 1;
nodes = (
"1633 4272 OFFCURVE",
"1585 4155 OFFCURVE",
"1499 4070 CURVE SMOOTH",
"1414 3984 OFFCURVE",
"1297 3936 OFFCURVE",
"1176 3936 CURVE SMOOTH",
"1022 3936 OFFCURVE",
"873 4015 OFFCURVE",
"790 4149 CURVE SMOOTH",
"744 4221 OFFCURVE",
"719 4306 OFFCURVE",
"719 4393 CURVE SMOOTH",
"719 4514 OFFCURVE",
"768 4631 OFFCURVE",
"854 4716 CURVE SMOOTH",
"939 4801 OFFCURVE",
"1056 4849 OFFCURVE",
"1176 4849 CURVE SMOOTH",
"1297 4849 OFFCURVE",
"1413 4801 OFFCURVE",
"1498 4716 CURVE SMOOTH",
"1584 4631 OFFCURVE",
"1633 4514 OFFCURVE",
"1633 4393 CURVE SMOOTH"
);
},
{
closed = 1;
nodes = (
"939 3367 LINE SMOOTH",
"1174 3340 OFFCURVE",
"1348 3129 OFFCURVE",
"1330 2892 CURVE SMOOTH",
"1327 2859 LINE",
"1209 2268 LINE SMOOTH",
"1164 2049 OFFCURVE",
"962 1895 OFFCURVE",
"738 1913 CURVE SMOOTH",
"715 1916 LINE SMOOTH",
"482 1946 OFFCURVE",
"312 2154 OFFCURVE",
"329 2389 CURVE SMOOTH",
"332 2423 LINE",
"450 3014 LINE SMOOTH",
"494 3230 OFFCURVE",
"694 3384 OFFCURVE",
"914 3369 CURVE SMOOTH"
);
},
{
closed = 1;
nodes = (
"820 2799 LINE SMOOTH",
"1058 2774 OFFCURVE",
"1234 2562 OFFCURVE",
"1216 2325 CURVE SMOOTH",
"1213 2290 LINE",
"852 482 LINE SMOOTH",
"808 264 OFFCURVE",
"609 111 OFFCURVE",
"388 125 CURVE SMOOTH",
"365 127 LINE SMOOTH",
"129 154 OFFCURVE",
"-45 364 OFFCURVE",
"-28 601 CURVE SMOOTH",
"-25 636 LINE",
"337 2443 LINE SMOOTH",
"379 2658 OFFCURVE",
"576 2812 OFFCURVE",
"796 2801 CURVE SMOOTH"
);
},
{
closed = 1;
nodes = (
"469 1011 LINE SMOOTH",
"704 983 OFFCURVE",
"876 773 OFFCURVE",
"859 537 CURVE SMOOTH",
"856 503 LINE",
"738 -87 LINE SMOOTH",
"694 -305 OFFCURVE",
"495 -458 OFFCURVE",
"274 -444 CURVE SMOOTH",
"251 -442 LINE SMOOTH",
"15 -415 OFFCURVE",
"-159 -205 OFFCURVE",
"-142 32 CURVE SMOOTH",
"-139 67 LINE",
"-21 657 LINE SMOOTH",
"23 874 OFFCURVE",
"222 1028 OFFCURVE",
"443 1013 CURVE SMOOTH"
);
}
);
width = 1180;
}
);
unicode = 0069;
},
{
glyphname = one;
lastChange = "2021-02-03 07:47:43 +0000";
layers = (
{
layerId = master01;
paths = (
{
closed = 1;
nodes = (
"864 2935 LINE SMOOTH",
"868 2934 OFFCURVE",
"872 2930 OFFCURVE",
"872 2926 CURVE SMOOTH",
"872 2922 LINE",
"758 2354 LINE SMOOTH",
"757 2350 OFFCURVE",
"753 2346 OFFCURVE",
"748 2346 CURVE SMOOTH",
"745 2346 LINE SMOOTH",
"741 2347 OFFCURVE",
"738 2352 OFFCURVE",
"737 2356 CURVE",
"738 2359 LINE",
"851 2927 LINE SMOOTH",
"852 2931 OFFCURVE",
"856 2935 OFFCURVE",
"860 2936 CURVE"
);
},
{
closed = 1;
nodes = (
"751 2367 LINE",
"754 2365 OFFCURVE",
"758 2361 OFFCURVE",
"758 2357 CURVE SMOOTH",
"758 2354 LINE",
"401 567 LINE SMOOTH",
"400 563 OFFCURVE",
"395 559 OFFCURVE",
"391 559 CURVE SMOOTH",
"388 559 LINE SMOOTH",
"384 560 OFFCURVE",
"380 564 OFFCURVE",
"380 569 CURVE SMOOTH",
"380 572 LINE",
"738 2358 LINE",
"738 2362 OFFCURVE",
"743 2366 OFFCURVE",
"747 2367 CURVE SMOOTH"
);
},
{
closed = 1;
nodes = (
"393 579 LINE SMOOTH",
"397 578 OFFCURVE",
"400 574 OFFCURVE",
"401 570 CURVE",
"400 566 LINE",
"287 -2 LINE SMOOTH",
"286 -6 OFFCURVE",
"282 -10 OFFCURVE",
"277 -10 CURVE SMOOTH",
"274 -10 LINE SMOOTH",
"270 -9 OFFCURVE",
"266 -4 OFFCURVE",
"266 0 CURVE SMOOTH",
"266 3 LINE",
"380 571 LINE SMOOTH",
"381 575 OFFCURVE",
"385 579 OFFCURVE",
"389 580 CURVE"
);
}
);
width = 1138;
},
{
layerId = "328E32EA-B50A-4570-BED2-89D75A472110";
paths = (
{
closed = 1;
nodes = (
"923 3367 LINE SMOOTH",
"1158 3340 OFFCURVE",
"1332 3129 OFFCURVE",
"1314 2892 CURVE SMOOTH",
"1311 2859 LINE",
"1193 2268 LINE SMOOTH",
"1148 2049 OFFCURVE",
"946 1895 OFFCURVE",
"722 1913 CURVE SMOOTH",
"699 1916 LINE SMOOTH",
"466 1946 OFFCURVE",
"296 2154 OFFCURVE",
"313 2389 CURVE SMOOTH",
"316 2423 LINE",
"434 3014 LINE SMOOTH",
"478 3230 OFFCURVE",
"678 3384 OFFCURVE",
"898 3369 CURVE SMOOTH"
);
},
{
closed = 1;
nodes = (
"804 2799 LINE SMOOTH",
"1042 2774 OFFCURVE",
"1218 2562 OFFCURVE",
"1200 2325 CURVE SMOOTH",
"1197 2290 LINE",
"836 482 LINE SMOOTH",
"792 264 OFFCURVE",
"593 111 OFFCURVE",
"372 125 CURVE SMOOTH",
"349 127 LINE SMOOTH",
"113 154 OFFCURVE",
"-61 364 OFFCURVE",
"-44 601 CURVE SMOOTH",
"-41 636 LINE",
"321 2443 LINE SMOOTH",
"363 2658 OFFCURVE",
"560 2812 OFFCURVE",
"780 2801 CURVE SMOOTH"
);
},
{
closed = 1;
nodes = (
"453 1011 LINE SMOOTH",
"688 983 OFFCURVE",
"860 773 OFFCURVE",
"843 537 CURVE SMOOTH",
"840 503 LINE",
"722 -87 LINE SMOOTH",
"678 -305 OFFCURVE",
"479 -458 OFFCURVE",
"258 -444 CURVE SMOOTH",
"235 -442 LINE SMOOTH",
"-1 -415 OFFCURVE",
"-175 -205 OFFCURVE",
"-158 32 CURVE SMOOTH",
"-155 67 LINE",
"-37 657 LINE SMOOTH",
"7 874 OFFCURVE",
"206 1028 OFFCURVE",
"427 1013 CURVE SMOOTH"
);
}
);
width = 1156;
}
);
unicode = 0031;
},
{
glyphname = V;
lastChange = "2021-02-03 07:47:43 +0000";
layers = (
{
layerId = master01;
paths = (
{
closed = 1;
nodes = (
"751 2367 LINE",
"754 2365 OFFCURVE",
"758 2361 OFFCURVE",
"758 2357 CURVE SMOOTH",
"758 2354 LINE",
"401 567 LINE SMOOTH",
"400 563 OFFCURVE",
"395 559 OFFCURVE",
"391 559 CURVE SMOOTH",
"388 559 LINE SMOOTH",
"384 560 OFFCURVE",
"380 564 OFFCURVE",
"380 569 CURVE SMOOTH",
"380 572 LINE",
"738 2358 LINE",
"738 2362 OFFCURVE",
"743 2366 OFFCURVE",
"747 2367 CURVE SMOOTH"
);
},
{
closed = 1;
nodes = (
"393 579 LINE SMOOTH",
"397 578 OFFCURVE",
"400 574 OFFCURVE",
"401 570 CURVE",
"400 566 LINE",
"287 -2 LINE SMOOTH",
"286 -6 OFFCURVE",
"282 -10 OFFCURVE",
"277 -10 CURVE SMOOTH",
"274 -10 LINE SMOOTH",
"270 -9 OFFCURVE",
"266 -4 OFFCURVE",
"266 0 CURVE SMOOTH",
"266 3 LINE",
"380 571 LINE SMOOTH",
"381 575 OFFCURVE",
"385 579 OFFCURVE",
"389 580 CURVE"
);
},
{
closed = 1;
nodes = (
"1436 2936 OFFCURVE",
"1441 2931 OFFCURVE",
"1441 2925 CURVE SMOOTH",
"1441 2920 OFFCURVE",
"1436 2915 OFFCURVE",
"1430 2915 CURVE SMOOTH",
"1283 2915 OFFCURVE",
"1127 2855 OFFCURVE",
"1002 2751 CURVE SMOOTH",
"876 2646 OFFCURVE",
"788 2502 OFFCURVE",
"758 2354 CURVE SMOOTH",
"757 2350 OFFCURVE",
"753 2346 OFFCURVE",
"748 2346 CURVE SMOOTH",
"745 2346 LINE SMOOTH",
"741 2347 OFFCURVE",
"738 2352 OFFCURVE",
"737 2356 CURVE",
"738 2359 LINE SMOOTH",
"769 2513 OFFCURVE",
"858 2658 OFFCURVE",
"988 2767 CURVE SMOOTH",
"1119 2875 OFFCURVE",
"1276 2936 OFFCURVE",
"1430 2936 CURVE SMOOTH"
);
},
{
closed = 1;
nodes = (
"751 2367 LINE",
"754 2365 OFFCURVE",
"758 2361 OFFCURVE",
"758 2357 CURVE SMOOTH",
"758 2354 LINE",
"729 2210 OFFCURVE",
"757 2062 OFFCURVE",
"842 1899 CURVE SMOOTH",
"919 1754 OFFCURVE",
"1032 1611 OFFCURVE",
"1146 1469 CURVE SMOOTH",
"1260 1327 OFFCURVE",
"1374 1186 OFFCURVE",
"1452 1036 CURVE SMOOTH",
"1540 868 OFFCURVE",
"1568 716 OFFCURVE",
"1538 567 CURVE",
"1538 563 OFFCURVE",
"1533 559 OFFCURVE",
"1529 559 CURVE SMOOTH",
"1525 559 LINE SMOOTH",
"1521 560 OFFCURVE",
"1518 564 OFFCURVE",
"1518 569 CURVE SMOOTH",
"1518 572 LINE",
"1547 716 OFFCURVE",
"1519 863 OFFCURVE",
"1434 1027 CURVE SMOOTH",
"1357 1172 OFFCURVE",
"1244 1314 OFFCURVE",
"1130 1456 CURVE SMOOTH",
"1016 1598 OFFCURVE",
"902 1740 OFFCURVE",
"824 1889 CURVE SMOOTH",
"736 2057 OFFCURVE",
"708 2210 OFFCURVE",
"738 2358 CURVE",
"738 2362 OFFCURVE",
"743 2366 OFFCURVE",
"747 2367 CURVE SMOOTH"
);
},
{
closed = 1;
nodes = (
"1531 579 LINE SMOOTH",
"1535 578 OFFCURVE",
"1538 574 OFFCURVE",
"1539 570 CURVE",
"1538 566 LINE",
"1425 -2 LINE SMOOTH",
"1424 -6 OFFCURVE",
"1419 -10 OFFCURVE",
"1415 -10 CURVE SMOOTH",
"1412 -10 LINE SMOOTH",
"1408 -9 OFFCURVE",
"1404 -4 OFFCURVE",
"1404 0 CURVE SMOOTH",
"1404 3 LINE",
"1518 571 LINE SMOOTH",
"1519 575 OFFCURVE",
"1523 579 OFFCURVE",
"1527 580 CURVE"
);
}
);
width = 2276;
},
{
layerId = "328E32EA-B50A-4570-BED2-89D75A472110";
paths = (
{
closed = 1;
nodes = (
"804 2799 LINE SMOOTH",
"1042 2774 OFFCURVE",
"1218 2562 OFFCURVE",
"1200 2325 CURVE SMOOTH",
"1197 2290 LINE",
"836 482 LINE SMOOTH",
"792 264 OFFCURVE",
"593 111 OFFCURVE",
"372 125 CURVE SMOOTH",
"349 127 LINE SMOOTH",
"113 154 OFFCURVE",
"-61 364 OFFCURVE",
"-44 601 CURVE SMOOTH",
"-41 636 LINE",
"321 2443 LINE SMOOTH",
"363 2658 OFFCURVE",
"560 2812 OFFCURVE",
"780 2801 CURVE SMOOTH"
);
},
{
closed = 1;
nodes = (
"453 1011 LINE SMOOTH",
"688 983 OFFCURVE",
"860 773 OFFCURVE",
"843 537 CURVE SMOOTH",
"840 503 LINE",
"722 -87 LINE SMOOTH",
"678 -305 OFFCURVE",
"479 -458 OFFCURVE",
"258 -444 CURVE SMOOTH",
"235 -442 LINE SMOOTH",
"-1 -415 OFFCURVE",
"-175 -205 OFFCURVE",
"-158 32 CURVE SMOOTH",
"-155 67 LINE",
"-37 657 LINE SMOOTH",
"7 874 OFFCURVE",
"206 1028 OFFCURVE",
"427 1013 CURVE SMOOTH"
);
},
{
closed = 1;
nodes = (
"1685 3370 OFFCURVE",
"1884 3170 OFFCURVE",
"1884 2925 CURVE SMOOTH",
"1884 2680 OFFCURVE",
"1684 2480 OFFCURVE",
"1440 2480 CURVE SMOOTH",
"1381 2480 OFFCURVE",
"1311 2446 OFFCURVE",
"1251 2380 CURVE SMOOTH",
"1221 2345 OFFCURVE",
"1200 2306 OFFCURVE",
"1193 2269 CURVE SMOOTH",
"1149 2049 OFFCURVE",
"946 1895 OFFCURVE",
"722 1913 CURVE SMOOTH",
"699 1916 LINE SMOOTH",
"466 1946 OFFCURVE",
"296 2155 OFFCURVE",
"313 2390 CURVE SMOOTH",
"316 2421 LINE",
"361 2678 OFFCURVE",
"507 2923 OFFCURVE",
"719 3100 CURVE SMOOTH",
"925 3273 OFFCURVE",
"1185 3370 OFFCURVE",
"1440 3370 CURVE SMOOTH"
);
},
{
closed = 1;
nodes = (
"804 2799 LINE SMOOTH",
"1042 2774 OFFCURVE",
"1218 2562 OFFCURVE",
"1200 2325 CURVE SMOOTH",
"1197 2289 LINE",
"1184 2233 OFFCURVE",
"1191 2188 OFFCURVE",
"1236 2101 CURVE SMOOTH",
"1294 1992 OFFCURVE",
"1381 1882 OFFCURVE",
"1494 1741 CURVE SMOOTH",
"1608 1599 OFFCURVE",
"1748 1425 OFFCURVE",
"1846 1238 CURVE SMOOTH",
"1979 983 OFFCURVE",
"2023 728 OFFCURVE",
"1973 482 CURVE SMOOTH",
"1931 264 OFFCURVE",
"1731 111 OFFCURVE",
"1508 125 CURVE SMOOTH",
"1487 127 LINE SMOOTH",
"1250 154 OFFCURVE",
"1076 365 OFFCURVE",
"1094 601 CURVE SMOOTH",
"1097 637 LINE",
"1110 693 OFFCURVE",
"1103 739 OFFCURVE",
"1058 825 CURVE SMOOTH",
"1000 934 OFFCURVE",
"913 1044 OFFCURVE",
"800 1185 CURVE SMOOTH",
"686 1327 OFFCURVE",
"546 1501 OFFCURVE",
"448 1687 CURVE SMOOTH",
"314 1942 OFFCURVE",
"271 2197 OFFCURVE",
"321 2443 CURVE SMOOTH",
"363 2658 OFFCURVE",
"560 2812 OFFCURVE",
"780 2801 CURVE SMOOTH"
);
},
{
closed = 1;
nodes = (
"1590 1011 LINE SMOOTH",
"1827 982 OFFCURVE",
"2001 770 OFFCURVE",
"1981 531 CURVE",
"1976 498 LINE",
"1860 -88 LINE SMOOTH",
"1815 -305 OFFCURVE",
"1615 -458 OFFCURVE",
"1394 -444 CURVE SMOOTH",
"1373 -442 LINE SMOOTH",
"1137 -415 OFFCURVE",
"963 -204 OFFCURVE",
"980 32 CURVE SMOOTH",
"983 67 LINE",
"1101 656 LINE SMOOTH",
"1143 873 OFFCURVE",
"1343 1028 OFFCURVE",
"1566 1013 CURVE SMOOTH"
);
}
);
width = 2294;
}
);
unicode = 0056;
},
